<svg width="600" height="210" viewBox="0 0 600 210" xmlns="http://www.w3.org/2000/svg">
  <defs>
    <radialGradient id="fl" cx="92%" cy="8%" r="70%">
      <stop offset="0%" stop-color="#e8451c" stop-opacity="0.16"/>
      <stop offset="60%" stop-color="#e8451c" stop-opacity="0"/>
    </radialGradient>
    <radialGradient id="in" cx="4%" cy="96%" r="72%">
      <stop offset="0%" stop-color="#16305e" stop-opacity="0.12"/>
      <stop offset="64%" stop-color="#16305e" stop-opacity="0"/>
    </radialGradient>
    <filter id="gr"><feTurbulence type="fractalNoise" baseFrequency="0.9" numOctaves="2" stitchTiles="stitch" result="n"/><feColorMatrix in="n" type="saturate" values="0"/></filter>
    <style>
      text{font-family:'SFMono-Regular','SF Mono',Menlo,Consolas,'Liberation Mono',monospace}
      .eb{fill:#e8451c;font-size:13px;letter-spacing:2.4px;font-weight:600}
      .lab{fill:#45568a;font-size:13.5px}
      .num{fill:#0d2148;font-size:21px;font-weight:600}
      .lang{fill:#16305e;font-size:12.5px}
      .pct{fill:#8794b4;font-size:11px}
      .head{fill:#8794b4;font-size:12px;letter-spacing:2px}
    </style>
  </defs>
  <rect x="0" y="0" width="600" height="210" rx="0" fill="#f7e7c8"/>
  <rect x="0" y="0" width="600" height="210" rx="0" fill="url(#fl)"/>
  <rect x="0" y="0" width="600" height="210" rx="0" fill="url(#in)"/>
  <rect x="0" y="0" width="600" height="210" rx="0" filter="url(#gr)" opacity="0.22" style="mix-blend-mode:multiply"/>
  <rect x="0.75" y="0.75" width="598.5" height="208.5" rx="0" fill="none" stroke="#16305e" stroke-opacity="0.14" stroke-width="1.5"/>
  <g transform="translate(28,30)" fill="none" stroke="#e8451c" stroke-width="1.7" stroke-linecap="round">
    <g transform="scale(0.72)">
      <path d="M12 2.5 L12 21.5 M3.77 7.25 L20.23 16.75 M20.23 7.25 L3.77 16.75 M12 2.5 l-1.9 2 M12 2.5 l1.9 2 M12 21.5 l-1.9 -2 M12 21.5 l1.9 -2 M20.23 7.25 l-2.7 -0.3 M20.23 7.25 l-0.3 2.7 M3.77 16.75 l2.7 0.3 M3.77 16.75 l0.3 -2.7 M3.77 7.25 l2.7 -0.3 M3.77 7.25 l0.3 2.7 M20.23 16.75 l-2.7 0.3 M20.23 16.75 l-0.3 -2.7"/>
    </g>
  </g>
  <text class="eb" x="48" y="42">GITHUB · STATS</text>
  <text class="head" x="320" y="60">TOP LANGUAGES</text>
  
      <circle cx="30" cy="78" r="3" fill="#e8451c"/>
      <text class="lab" x="44" y="84">Total stars</text>
      <text class="num" x="250" y="84" text-anchor="end">19</text>
      <circle cx="30" cy="111" r="3" fill="#e8451c"/>
      <text class="lab" x="44" y="117">Public repos</text>
      <text class="num" x="250" y="117" text-anchor="end">48</text>
      <circle cx="30" cy="144" r="3" fill="#e8451c"/>
      <text class="lab" x="44" y="150">Total forks</text>
      <text class="num" x="250" y="150" text-anchor="end">0</text>
      <circle cx="30" cy="177" r="3" fill="#e8451c"/>
      <text class="lab" x="44" y="183">Followers</text>
      <text class="num" x="250" y="183" text-anchor="end">28</text>
  
      <text class="lang" x="320" y="80">TypeScript</text>
      <text class="pct" x="560" y="80" text-anchor="end">38%</text>
      <rect x="320" y="86" width="168" height="4" rx="2" fill="#e6c78f"/>
      <rect x="320" y="86" width="63.0" height="4" rx="2" fill="#e8451c"/>
      <text class="lang" x="320" y="106">Python</text>
      <text class="pct" x="560" y="106" text-anchor="end">35%</text>
      <rect x="320" y="112" width="168" height="4" rx="2" fill="#e6c78f"/>
      <rect x="320" y="112" width="58.8" height="4" rx="2" fill="#16305e"/>
      <text class="lang" x="320" y="132">JavaScript</text>
      <text class="pct" x="560" y="132" text-anchor="end">20%</text>
      <rect x="320" y="138" width="168" height="4" rx="2" fill="#e6c78f"/>
      <rect x="320" y="138" width="33.6" height="4" rx="2" fill="#c8390f"/>
      <text class="lang" x="320" y="158">Jupyter Notebook</text>
      <text class="pct" x="560" y="158" text-anchor="end">5%</text>
      <rect x="320" y="164" width="168" height="4" rx="2" fill="#e6c78f"/>
      <rect x="320" y="164" width="8.4" height="4" rx="2" fill="#45568a"/>
      <text class="lang" x="320" y="184">HTML</text>
      <text class="pct" x="560" y="184" text-anchor="end">2%</text>
      <rect x="320" y="190" width="168" height="4" rx="2" fill="#e6c78f"/>
      <rect x="320" y="190" width="4.2" height="4" rx="2" fill="#f5411a"/>
</svg>