<svg xmlns="http://www.w3.org/2000/svg" viewBox="0 0 128 54" width="128" height="54" font-family="sans-serif"><defs><filter id="grbemail"><feTurbulence type="fractalNoise" baseFrequency="0.9" numOctaves="2" stitchTiles="stitch" result="n"/><feColorMatrix in="n" type="saturate" values="0"/></filter></defs><rect x="1.5" y="1.5" width="124.552" height="51" rx="25.5" fill="#fbefd7" stroke="#16305e" stroke-opacity="0.22" stroke-width="1.5"/><rect x="1.5" y="1.5" width="124.552" height="51" rx="25.5" filter="url(#grbemail)" opacity="0.18" style="mix-blend-mode:multiply"/><circle cx="31.00" cy="27.00" r="4.00" fill="#e8451c"/><g fill="#16305e"><path d="M86 0V710H548V611H194V404H536V308H194V99H556V0Z" transform="translate(48.00 32.50) scale(0.01600 -0.01600)"/><path d="M75 0V532H172L174 441Q194 489 233.0 516.5Q272 544 322 544Q381 544 421.5 515.0Q462 486 479 434Q497 487 536.5 515.5Q576 544 633 544Q717 544 763.0 491.5Q809 439 809 342V0H703V316Q703 455 602 455Q552 455 522.0 417.0Q492 379 492 312V0H391V312Q391 379 368.5 417.0Q346 455 292 455Q241 455 211.0 417.0Q181 379 181 312V0Z" transform="translate(57.74 32.50) scale(0.01600 -0.01600)"/><path d="M224 -12Q141 -12 91.5 26.0Q42 64 42 133Q42 201 83.5 240.0Q125 279 212 296L395 331Q395 454 280 454Q229 454 200.0 431.0Q171 408 160 365L51 372Q66 452 125.5 498.0Q185 544 280 544Q388 544 444.5 486.5Q501 429 501 325V118Q501 99 507.5 91.5Q514 84 529 84H548V0Q534 -3 509 -3Q464 -3 437.5 15.5Q411 34 404 79V82Q384 40 335.0 14.0Q286 -12 224 -12ZM241 72Q313 72 354.0 113.0Q395 154 395 217V251L239 221Q191 212 171.5 192.5Q152 173 152 143Q152 109 175.5 90.5Q199 72 241 72Z" transform="translate(71.90 32.50) scale(0.01600 -0.01600)"/><path d="M75 0V532H181V0ZM73 609V715H183V609Z" transform="translate(80.94 32.50) scale(0.01600 -0.01600)"/><path d="M191 0Q138 0 106.5 27.0Q75 54 75 113V710H181V123Q181 87 218 87H260V0Z" transform="translate(85.04 32.50) scale(0.01600 -0.01600)"/></g><g transform="translate(95.55 19.50) scale(0.8125)" fill="none" stroke="#e8451c" stroke-width="2.34" stroke-linecap="round" stroke-linejoin="round"><path d="M3 8h9M8 4l4 4-4 4"/></g></svg>