<svg xmlns="http://www.w3.org/2000/svg" viewBox="0 0 152 54" width="152" height="54" font-family="sans-serif"><defs><filter id="grblinkedin"><feTurbulence type="fractalNoise" baseFrequency="0.9" numOctaves="2" stitchTiles="stitch" result="n"/><feColorMatrix in="n" type="saturate" values="0"/></filter></defs><rect x="1.5" y="1.5" width="148.50400000000002" height="51" rx="25.5" fill="#fbefd7" stroke="#16305e" stroke-opacity="0.22" stroke-width="1.5"/><rect x="1.5" y="1.5" width="148.50400000000002" height="51" rx="25.5" filter="url(#grblinkedin)" opacity="0.18" style="mix-blend-mode:multiply"/><circle cx="31.00" cy="27.00" r="4.00" fill="#e8451c"/><g fill="#16305e"><path d="M86 0V710H194V99H540V0Z" transform="translate(48.00 32.50) scale(0.01600 -0.01600)"/><path d="M75 0V532H181V0ZM73 609V715H183V609Z" transform="translate(57.33 32.50) scale(0.01600 -0.01600)"/><path d="M75 0V532H172L174 439Q195 494 238.0 519.0Q281 544 336 544Q395 544 435.0 517.5Q475 491 495.5 445.5Q516 400 516 342V0H410V310Q410 380 386.5 417.5Q363 455 307 455Q250 455 215.5 417.5Q181 380 181 310V0Z" transform="translate(61.42 32.50) scale(0.01600 -0.01600)"/><path d="M75 0V710H181V269L420 532H554L346 308L562 0H440L275 242L181 142V0Z" transform="translate(70.88 32.50) scale(0.01600 -0.01600)"/><path d="M294 -12Q216 -12 159.5 22.5Q103 57 72.5 119.5Q42 182 42 266Q42 350 72.5 412.5Q103 475 159.0 509.5Q215 544 291 544Q363 544 418.0 510.5Q473 477 503.5 414.0Q534 351 534 262V235H152Q156 157 193.5 118.0Q231 79 295 79Q342 79 372.5 100.5Q403 122 416 160L526 153Q505 78 443.5 33.0Q382 -12 294 -12ZM152 315H422Q417 386 381.0 420.0Q345 454 291 454Q234 454 197.5 418.5Q161 383 152 315Z" transform="translate(80.62 32.50) scale(0.01600 -0.01600)"/><path d="M264 -12Q196 -12 146.0 22.0Q96 56 69.0 118.5Q42 181 42 266Q42 351 69.0 413.5Q96 476 146.0 510.0Q196 544 264 544Q319 544 362.0 521.0Q405 498 427 457V710H533V0H434L431 80Q409 36 364.5 12.0Q320 -12 264 -12ZM292 80Q357 80 392.0 129.0Q427 178 427 266Q427 355 392.0 403.5Q357 452 292 452Q228 452 190.0 402.5Q152 353 152 266Q152 181 190.0 130.5Q228 80 292 80Z" transform="translate(89.84 32.50) scale(0.01600 -0.01600)"/><path d="M86 0V710H194V0Z" transform="translate(99.57 32.50) scale(0.01600 -0.01600)"/><path d="M75 0V532H172L174 439Q195 494 238.0 519.0Q281 544 336 544Q395 544 435.0 517.5Q475 491 495.5 445.5Q516 400 516 342V0H410V310Q410 380 386.5 417.5Q363 455 307 455Q250 455 215.5 417.5Q181 380 181 310V0Z" transform="translate(104.05 32.50) scale(0.01600 -0.01600)"/></g><g transform="translate(119.50 19.50) scale(0.8125)" fill="none" stroke="#e8451c" stroke-width="2.34" stroke-linecap="round" stroke-linejoin="round"><path d="M3 8h9M8 4l4 4-4 4"/></g></svg>