<svg xmlns="http://www.w3.org/2000/svg" viewBox="0 0 139 54" width="139" height="54" font-family="sans-serif"><defs><filter id="grbgithub"><feTurbulence type="fractalNoise" baseFrequency="0.9" numOctaves="2" stitchTiles="stitch" result="n"/><feColorMatrix in="n" type="saturate" values="0"/></filter></defs><rect x="1.5" y="1.5" width="135.624" height="51" rx="25.5" fill="#fbefd7" stroke="#16305e" stroke-opacity="0.22" stroke-width="1.5"/><rect x="1.5" y="1.5" width="135.624" height="51" rx="25.5" filter="url(#grbgithub)" opacity="0.18" style="mix-blend-mode:multiply"/><circle cx="31.00" cy="27.00" r="4.00" fill="#e8451c"/><g fill="#16305e"><path d="M365 -16Q264 -16 192.0 31.5Q120 79 82.0 162.5Q44 246 44 354Q44 461 83.0 545.0Q122 629 194.5 677.5Q267 726 369 726Q456 726 516.5 695.0Q577 664 612.5 610.0Q648 556 662 487L549 481Q537 546 495.0 586.5Q453 627 369 627Q295 627 248.0 590.0Q201 553 178.5 491.0Q156 429 156 354Q156 276 178.5 215.0Q201 154 248.5 118.5Q296 83 370 83Q428 83 470.0 108.0Q512 133 535.5 176.0Q559 219 561 271H371V362H664V0H590L585 113Q558 55 498.0 19.5Q438 -16 365 -16Z" transform="translate(48.00 32.50) scale(0.01600 -0.01600)"/><path d="M75 0V532H181V0ZM73 609V715H183V609Z" transform="translate(59.41 32.50) scale(0.01600 -0.01600)"/><path d="M279 0Q203 0 167.0 34.5Q131 69 131 144V445H50V532H131V657H237V532H378V445H237V152Q237 115 253.0 101.0Q269 87 302 87H378V0Z" transform="translate(63.50 32.50) scale(0.01600 -0.01600)"/><path d="M86 0V710H194V406H522V710H630V0H522V308H194V0Z" transform="translate(70.06 32.50) scale(0.01600 -0.01600)"/><path d="M250 -12Q169 -12 122.0 41.0Q75 94 75 190V532H181V217Q181 145 206.0 111.0Q231 77 282 77Q340 77 372.5 114.5Q405 152 405 220V532H511V0H412L411 87Q368 -12 250 -12Z" transform="translate(81.52 32.50) scale(0.01600 -0.01600)"/><path d="M340 -12Q284 -12 241.5 12.0Q199 36 177 80L174 0H75V710H181V457Q201 492 243.0 518.0Q285 544 340 544Q409 544 460.0 510.0Q511 476 538.5 413.5Q566 351 566 266Q566 181 538.5 118.5Q511 56 460.0 22.0Q409 -12 340 -12ZM323 80Q384 80 420.0 130.0Q456 180 456 266Q456 354 420.5 403.0Q385 452 324 452Q257 452 219.0 403.0Q181 354 181 266Q181 180 218.5 130.0Q256 80 323 80Z" transform="translate(90.90 32.50) scale(0.01600 -0.01600)"/></g><g transform="translate(106.62 19.50) scale(0.8125)" fill="none" stroke="#e8451c" stroke-width="2.34" stroke-linecap="round" stroke-linejoin="round"><path d="M3 8h9M8 4l4 4-4 4"/></g></svg>