<svg xmlns="http://www.w3.org/2000/svg" viewBox="0 0 163 54" width="163" height="54" font-family="sans-serif"><defs><filter id="grbinstagram"><feTurbulence type="fractalNoise" baseFrequency="0.9" numOctaves="2" stitchTiles="stitch" result="n"/><feColorMatrix in="n" type="saturate" values="0"/></filter></defs><rect x="1.5" y="1.5" width="160.344" height="51" rx="25.5" fill="#fbefd7" stroke="#16305e" stroke-opacity="0.22" stroke-width="1.5"/><rect x="1.5" y="1.5" width="160.344" height="51" rx="25.5" filter="url(#grbinstagram)" opacity="0.18" style="mix-blend-mode:multiply"/><circle cx="31.00" cy="27.00" r="4.00" fill="#e8451c"/><g fill="#16305e"><path d="M86 0V710H194V0Z" transform="translate(48.00 32.50) scale(0.01600 -0.01600)"/><path d="M75 0V532H172L174 439Q195 494 238.0 519.0Q281 544 336 544Q395 544 435.0 517.5Q475 491 495.5 445.5Q516 400 516 342V0H410V310Q410 380 386.5 417.5Q363 455 307 455Q250 455 215.5 417.5Q181 380 181 310V0Z" transform="translate(52.48 32.50) scale(0.01600 -0.01600)"/><path d="M280 -12Q164 -12 106.0 38.5Q48 89 42 168L151 173Q158 129 187.0 103.0Q216 77 280 77Q330 77 356.5 93.0Q383 109 383 144Q383 164 374.0 177.0Q365 190 339.0 199.5Q313 209 262 218Q184 233 140.5 253.5Q97 274 79.0 304.5Q61 335 61 379Q61 451 116.0 497.5Q171 544 275 544Q348 544 395.0 519.5Q442 495 466.0 455.0Q490 415 495 369L386 363Q383 401 357.5 428.0Q332 455 273 455Q221 455 196.0 435.0Q171 415 171 383Q171 348 194.5 330.5Q218 313 283 303Q364 290 409.5 269.5Q455 249 474.0 218.5Q493 188 493 145Q493 70 434.0 29.0Q375 -12 280 -12Z" transform="translate(61.94 32.50) scale(0.01600 -0.01600)"/><path d="M279 0Q203 0 167.0 34.5Q131 69 131 144V445H50V532H131V657H237V532H378V445H237V152Q237 115 253.0 101.0Q269 87 302 87H378V0Z" transform="translate(70.53 32.50) scale(0.01600 -0.01600)"/><path d="M224 -12Q141 -12 91.5 26.0Q42 64 42 133Q42 201 83.5 240.0Q125 279 212 296L395 331Q395 454 280 454Q229 454 200.0 431.0Q171 408 160 365L51 372Q66 452 125.5 498.0Q185 544 280 544Q388 544 444.5 486.5Q501 429 501 325V118Q501 99 507.5 91.5Q514 84 529 84H548V0Q534 -3 509 -3Q464 -3 437.5 15.5Q411 34 404 79V82Q384 40 335.0 14.0Q286 -12 224 -12ZM241 72Q313 72 354.0 113.0Q395 154 395 217V251L239 221Q191 212 171.5 192.5Q152 173 152 143Q152 109 175.5 90.5Q199 72 241 72Z" transform="translate(77.09 32.50) scale(0.01600 -0.01600)"/><path d="M289 -162Q194 -162 134.0 -120.0Q74 -78 57 -9L167 -2Q178 -36 205.5 -55.0Q233 -74 289 -74Q355 -74 390.5 -46.0Q426 -18 426 39V116Q406 75 364.0 51.0Q322 27 271 27Q204 27 152.0 59.5Q100 92 71.0 150.5Q42 209 42 285Q42 361 70.5 419.5Q99 478 150.0 511.0Q201 544 267 544Q324 544 367.5 518.0Q411 492 430 448V532H532V42Q532 -56 466.5 -109.0Q401 -162 289 -162ZM288 117Q350 117 387.5 162.0Q425 207 426 286Q427 364 389.0 409.0Q351 454 288 454Q223 454 187.5 408.5Q152 363 152 286Q152 208 188.5 162.5Q225 117 288 117Z" transform="translate(86.13 32.50) scale(0.01600 -0.01600)"/><path d="M75 0V532H172L175 431Q190 483 221.5 507.5Q253 532 302 532H353V437H302Q241 437 211.0 407.0Q181 377 181 314V0Z" transform="translate(95.84 32.50) scale(0.01600 -0.01600)"/><path d="M224 -12Q141 -12 91.5 26.0Q42 64 42 133Q42 201 83.5 240.0Q125 279 212 296L395 331Q395 454 280 454Q229 454 200.0 431.0Q171 408 160 365L51 372Q66 452 125.5 498.0Q185 544 280 544Q388 544 444.5 486.5Q501 429 501 325V118Q501 99 507.5 91.5Q514 84 529 84H548V0Q534 -3 509 -3Q464 -3 437.5 15.5Q411 34 404 79V82Q384 40 335.0 14.0Q286 -12 224 -12ZM241 72Q313 72 354.0 113.0Q395 154 395 217V251L239 221Q191 212 171.5 192.5Q152 173 152 143Q152 109 175.5 90.5Q199 72 241 72Z" transform="translate(102.14 32.50) scale(0.01600 -0.01600)"/><path d="M75 0V532H172L174 441Q194 489 233.0 516.5Q272 544 322 544Q381 544 421.5 515.0Q462 486 479 434Q497 487 536.5 515.5Q576 544 633 544Q717 544 763.0 491.5Q809 439 809 342V0H703V316Q703 455 602 455Q552 455 522.0 417.0Q492 379 492 312V0H391V312Q391 379 368.5 417.0Q346 455 292 455Q241 455 211.0 417.0Q181 379 181 312V0Z" transform="translate(111.18 32.50) scale(0.01600 -0.01600)"/></g><g transform="translate(131.34 19.50) scale(0.8125)" fill="none" stroke="#e8451c" stroke-width="2.34" stroke-linecap="round" stroke-linejoin="round"><path d="M3 8h9M8 4l4 4-4 4"/></g></svg>