<svg xmlns="http://www.w3.org/2000/svg" viewBox="0 0 153 54" width="153" height="54" font-family="sans-serif"><defs><filter id="grbportfolio"><feTurbulence type="fractalNoise" baseFrequency="0.9" numOctaves="2" stitchTiles="stitch" result="n"/><feColorMatrix in="n" type="saturate" values="0"/></filter></defs><rect x="1.5" y="1.5" width="149.8" height="51" rx="25.5" fill="#fbefd7" stroke="#16305e" stroke-opacity="0.22" stroke-width="1.5"/><rect x="1.5" y="1.5" width="149.8" height="51" rx="25.5" filter="url(#grbportfolio)" opacity="0.18" style="mix-blend-mode:multiply"/><circle cx="31.00" cy="27.00" r="4.00" fill="#e8451c"/><g fill="#16305e"><path d="M86 0V710H351Q472 710 540.5 651.5Q609 593 609 489Q609 385 540.5 325.5Q472 266 351 266H194V0ZM194 364H348Q497 364 497 489Q497 611 348 611H194Z" transform="translate(48.00 32.50) scale(0.01600 -0.01600)"/><path d="M294 -12Q218 -12 161.0 22.5Q104 57 73.0 119.0Q42 181 42 266Q42 351 73.0 413.0Q104 475 161.0 509.5Q218 544 294 544Q370 544 427.0 509.5Q484 475 515.0 413.0Q546 351 546 266Q546 181 515.0 119.0Q484 57 427.0 22.5Q370 -12 294 -12ZM294 80Q362 80 399.0 129.0Q436 178 436 266Q436 353 399.0 402.5Q362 452 294 452Q227 452 189.5 402.5Q152 353 152 266Q152 178 189.5 129.0Q227 80 294 80Z" transform="translate(58.51 32.50) scale(0.01600 -0.01600)"/><path d="M75 0V532H172L175 431Q190 483 221.5 507.5Q253 532 302 532H353V437H302Q241 437 211.0 407.0Q181 377 181 314V0Z" transform="translate(67.92 32.50) scale(0.01600 -0.01600)"/><path d="M279 0Q203 0 167.0 34.5Q131 69 131 144V445H50V532H131V657H237V532H378V445H237V152Q237 115 253.0 101.0Q269 87 302 87H378V0Z" transform="translate(74.22 32.50) scale(0.01600 -0.01600)"/><path d="M129 0V445H55V532H129V566Q129 632 166.0 671.0Q203 710 281 710H376V623H296Q235 623 235 560V532H368V445H235V0Z" transform="translate(80.78 32.50) scale(0.01600 -0.01600)"/><path d="M294 -12Q218 -12 161.0 22.5Q104 57 73.0 119.0Q42 181 42 266Q42 351 73.0 413.0Q104 475 161.0 509.5Q218 544 294 544Q370 544 427.0 509.5Q484 475 515.0 413.0Q546 351 546 266Q546 181 515.0 119.0Q484 57 427.0 22.5Q370 -12 294 -12ZM294 80Q362 80 399.0 129.0Q436 178 436 266Q436 353 399.0 402.5Q362 452 294 452Q227 452 189.5 402.5Q152 353 152 266Q152 178 189.5 129.0Q227 80 294 80Z" transform="translate(87.38 32.50) scale(0.01600 -0.01600)"/><path d="M191 0Q138 0 106.5 27.0Q75 54 75 113V710H181V123Q181 87 218 87H260V0Z" transform="translate(96.78 32.50) scale(0.01600 -0.01600)"/><path d="M75 0V532H181V0ZM73 609V715H183V609Z" transform="translate(101.30 32.50) scale(0.01600 -0.01600)"/><path d="M294 -12Q218 -12 161.0 22.5Q104 57 73.0 119.0Q42 181 42 266Q42 351 73.0 413.0Q104 475 161.0 509.5Q218 544 294 544Q370 544 427.0 509.5Q484 475 515.0 413.0Q546 351 546 266Q546 181 515.0 119.0Q484 57 427.0 22.5Q370 -12 294 -12ZM294 80Q362 80 399.0 129.0Q436 178 436 266Q436 353 399.0 402.5Q362 452 294 452Q227 452 189.5 402.5Q152 353 152 266Q152 178 189.5 129.0Q227 80 294 80Z" transform="translate(105.39 32.50) scale(0.01600 -0.01600)"/></g><g transform="translate(120.80 19.50) scale(0.8125)" fill="none" stroke="#e8451c" stroke-width="2.34" stroke-linecap="round" stroke-linejoin="round"><path d="M3 8h9M8 4l4 4-4 4"/></g></svg>