<svg xmlns="http://www.w3.org/2000/svg" viewBox="0 0 1200 272" width="1200" height="272" font-family="sans-serif"><defs>
    <radialGradient id="flc" cx="8%" cy="8%" r="62%">
      <stop offset="0%" stop-color="#e8451c" stop-opacity="0.20"/>
      <stop offset="62%" stop-color="#e8451c" stop-opacity="0"/>
    </radialGradient>
    <radialGradient id="inc" cx="6%" cy="96%" r="70%">
      <stop offset="0%" stop-color="#16305e" stop-opacity="0.16"/>
      <stop offset="66%" stop-color="#16305e" stop-opacity="0"/>
    </radialGradient>
    <filter id="grc" x="0" y="0" width="100%" height="100%">
      <feTurbulence type="fractalNoise" baseFrequency="0.9" numOctaves="2" stitchTiles="stitch" result="n"/>
      <feColorMatrix in="n" type="saturate" values="0"/>
    </filter>
    <pattern id="htc" width="9" height="9" patternUnits="userSpaceOnUse">
      <circle cx="2" cy="2" r="1.9" fill="#e8451c"/>
    </pattern>
  </defs><rect x="0" y="0" width="1200" height="272" fill="#f7e7c8"/><rect x="0" y="0" width="1200" height="272" fill="url(#flc)"/><rect x="0" y="0" width="1200" height="272" fill="url(#inc)"/><rect x="0" y="0" width="1200" height="272" filter="url(#grc)" opacity="0.21" style="mix-blend-mode:multiply"/><g fill="#e8451c"><path d="M300 -16Q222 -16 165.5 29.0Q109 74 78.5 157.0Q48 240 48 354Q48 469 78.5 552.5Q109 636 165.5 681.0Q222 726 300 726Q378 726 434.5 681.0Q491 636 521.5 552.5Q552 469 552 354Q552 240 521.5 157.0Q491 74 434.5 29.0Q378 -16 300 -16ZM157 354Q157 265 176 202L384 587Q350 628 300 628Q233 628 195.0 556.0Q157 484 157 354ZM300 82Q367 82 405.0 154.0Q443 226 443 354Q443 444 424 507L215 123Q250 82 300 82Z" transform="translate(74.00 64.00) scale(0.01300 -0.01300)"/><path d="M298 -16Q227 -16 174.5 10.0Q122 36 91.5 81.0Q61 126 56 185L165 192Q172 137 207.0 109.5Q242 82 298 82Q361 82 398.0 120.5Q435 159 435 230Q435 300 399.0 339.5Q363 379 300 379Q261 379 227.0 359.5Q193 340 178 306L67 308L113 710H504V611H204L181 418Q207 445 243.0 458.5Q279 472 316 472Q385 472 436.0 441.0Q487 410 515.5 355.0Q544 300 544 229Q544 157 513.0 102.0Q482 47 426.5 15.5Q371 -16 298 -16Z" transform="translate(83.30 64.00) scale(0.01300 -0.01300)"/></g><g fill="#8794b4"><path d="M101 -110 403 750H499L197 -110Z" transform="translate(111.20 64.00) scale(0.01300 -0.01300)"/><path d="M303 -16Q217 -16 157.5 29.0Q98 74 67.0 157.0Q36 240 36 354Q36 469 67.0 552.5Q98 636 157.5 681.0Q217 726 303 726Q400 726 466.0 662.5Q532 599 554 483L444 477Q429 551 391.5 589.5Q354 628 303 628Q226 628 185.5 556.5Q145 485 145 354Q145 223 185.5 152.5Q226 82 303 82Q358 82 397.0 124.0Q436 166 449 247L558 242Q540 120 472.5 52.0Q405 -16 303 -16Z" transform="translate(139.10 64.00) scale(0.01300 -0.01300)"/><path d="M300 -16Q173 -16 104.5 80.0Q36 176 36 354Q36 533 104.5 629.5Q173 726 300 726Q427 726 495.5 629.5Q564 533 564 354Q564 176 495.5 80.0Q427 -16 300 -16ZM300 82Q375 82 415.0 150.5Q455 219 455 354Q455 489 415.0 558.5Q375 628 300 628Q225 628 185.0 558.5Q145 489 145 354Q145 219 185.0 150.5Q225 82 300 82Z" transform="translate(148.40 64.00) scale(0.01300 -0.01300)"/><path d="M68 0V710H196L429 149V710H532V0H404L171 561V0Z" transform="translate(157.70 64.00) scale(0.01300 -0.01300)"/><path d="M248 0V611H40V710H560V611H352V0Z" transform="translate(167.00 64.00) scale(0.01300 -0.01300)"/><path d="M24 0 232 710H368L576 0H467L416 185H184L133 0ZM300 601 211 282H389Z" transform="translate(176.30 64.00) scale(0.01300 -0.01300)"/><path d="M303 -16Q217 -16 157.5 29.0Q98 74 67.0 157.0Q36 240 36 354Q36 469 67.0 552.5Q98 636 157.5 681.0Q217 726 303 726Q400 726 466.0 662.5Q532 599 554 483L444 477Q429 551 391.5 589.5Q354 628 303 628Q226 628 185.5 556.5Q145 485 145 354Q145 223 185.5 152.5Q226 82 303 82Q358 82 397.0 124.0Q436 166 449 247L558 242Q540 120 472.5 52.0Q405 -16 303 -16Z" transform="translate(185.60 64.00) scale(0.01300 -0.01300)"/><path d="M248 0V611H40V710H560V611H352V0Z" transform="translate(194.90 64.00) scale(0.01300 -0.01300)"/></g><g fill="#0d2148"><path d="M73 0V660H217V0ZM103 0V121H496V0Z" transform="translate(74.00 124.00) scale(0.04600 -0.04600)"/><path d="M310 -14Q245 -14 194.5 4.0Q144 22 109.0 56.0Q74 90 55.5 140.0Q37 190 37 253Q37 315 54.5 367.5Q72 420 106.0 458.5Q140 497 189.0 518.0Q238 539 300 539Q360 539 407.0 519.5Q454 500 485.5 461.0Q517 422 531.5 365.5Q546 309 542 236L130 232V311L459 314L408 274Q415 327 401.0 361.0Q387 395 360.5 411.0Q334 427 302 427Q264 427 235.0 407.0Q206 387 190.0 348.5Q174 310 174 256Q174 171 211.5 131.0Q249 91 310 91Q338 91 357.5 98.5Q377 106 389.5 118.0Q402 130 409.5 145.0Q417 160 422 175L547 148Q538 111 520.5 81.5Q503 52 474.0 30.5Q445 9 404.5 -2.5Q364 -14 310 -14Z" transform="translate(96.17 124.00) scale(0.04600 -0.04600)"/><path d="M261 -12Q173 -12 131.5 34.5Q90 81 90 183V412H14L16 525H69Q100 525 115.0 534.0Q130 543 133 567L146 642H228V525H361V408H228V189Q228 153 245.0 137.0Q262 121 297 121Q316 121 333.5 125.0Q351 129 364 138V4Q333 -6 307.0 -9.0Q281 -12 261 -12Z" transform="translate(121.69 124.00) scale(0.04600 -0.04600)"/><path d="M40 462 23 715H155L137 462Z" transform="translate(138.76 124.00) scale(0.04600 -0.04600)"/><path d="M276 -14Q223 -14 180.0 -4.0Q137 6 106.0 25.0Q75 44 56.0 70.5Q37 97 31 130L141 175Q145 153 163.0 134.0Q181 115 211.5 103.5Q242 92 285 92Q331 92 356.0 105.5Q381 119 381 144Q381 163 367.0 174.0Q353 185 326.0 193.0Q299 201 261 208Q224 217 185.5 227.0Q147 237 114.5 255.0Q82 273 61.5 302.5Q41 332 41 378Q41 426 67.0 462.0Q93 498 143.0 518.5Q193 539 265 539Q330 539 379.0 521.5Q428 504 459.5 471.5Q491 439 502 394L385 355Q381 379 365.5 397.0Q350 415 324.5 424.0Q299 433 265 433Q222 433 198.5 419.0Q175 405 175 382Q175 363 190.5 351.0Q206 339 234.0 331.5Q262 324 300 316Q340 308 378.0 297.5Q416 287 446.5 270.0Q477 253 495.0 225.0Q513 197 513 153Q513 101 485.0 63.5Q457 26 404.0 6.0Q351 -14 276 -14Z" transform="translate(145.70 124.00) scale(0.04600 -0.04600)"/><path d="M384 -14Q334 -14 297.0 5.5Q260 25 237.0 62.0Q214 99 205 152H186L185 0H66V258V715H210V543Q210 519 207.0 491.5Q204 464 198.5 435.0Q193 406 187 375H209Q222 425 244.5 461.5Q267 498 302.0 517.5Q337 537 385 537Q451 537 499.0 503.0Q547 469 573.5 407.0Q600 345 600 260Q600 177 574.0 115.5Q548 54 499.5 20.0Q451 -14 384 -14ZM333 104Q369 104 395.0 123.5Q421 143 435.0 179.0Q449 215 449 263Q449 311 435.5 346.0Q422 381 397.0 401.0Q372 421 336 421Q312 421 292.0 412.0Q272 403 257.0 387.5Q242 372 231.0 352.5Q220 333 215.0 312.0Q210 291 210 272V253Q210 230 217.0 203.5Q224 177 239.5 154.5Q255 132 278.0 118.0Q301 104 333 104Z" transform="translate(178.90 124.00) scale(0.04600 -0.04600)"/><path d="M244 -14Q152 -14 105.5 48.5Q59 111 59 239V525H203V257Q203 180 226.0 142.5Q249 105 296 105Q324 105 345.0 119.0Q366 133 381.0 158.0Q396 183 403.5 217.0Q411 251 412 290V525H556V214V0H440L439 164H421Q406 102 383.5 62.5Q361 23 326.5 4.5Q292 -14 244 -14Z" transform="translate(207.05 124.00) scale(0.04600 -0.04600)"/><path d="M66 0V525H210V0ZM139 604Q97 604 74.5 621.5Q52 639 52 673Q52 708 74.5 726.0Q97 744 139 744Q182 744 204.5 726.0Q227 708 227 673Q227 640 204.5 622.0Q182 604 139 604Z" transform="translate(234.46 124.00) scale(0.04600 -0.04600)"/><path d="M66 0V715H208V0Z" transform="translate(246.00 124.00) scale(0.04600 -0.04600)"/><path d="M257 -14Q191 -14 141.5 20.0Q92 54 65.0 116.0Q38 178 38 263Q38 343 62.0 405.0Q86 467 133.0 502.0Q180 537 250 537Q301 537 336.0 518.0Q371 499 393.5 462.5Q416 426 429 375H452Q445 407 439.5 437.5Q434 468 431.0 496.0Q428 524 428 545V715H572V258V0H452V152H432Q421 96 398.0 59.0Q375 22 339.5 4.0Q304 -14 257 -14ZM305 104Q338 104 361.0 118.0Q384 132 399.0 154.5Q414 177 421.0 203.5Q428 230 428 253V272Q428 291 422.5 311.5Q417 332 407.0 352.0Q397 372 382.0 387.5Q367 403 347.0 412.0Q327 421 303 421Q267 421 242.0 401.0Q217 381 203.0 345.5Q189 310 189 263Q189 215 203.5 179.0Q218 143 244.0 123.5Q270 104 305 104Z" transform="translate(257.41 124.00) scale(0.04600 -0.04600)"/><path d="M276 -14Q223 -14 180.0 -4.0Q137 6 106.0 25.0Q75 44 56.0 70.5Q37 97 31 130L141 175Q145 153 163.0 134.0Q181 115 211.5 103.5Q242 92 285 92Q331 92 356.0 105.5Q381 119 381 144Q381 163 367.0 174.0Q353 185 326.0 193.0Q299 201 261 208Q224 217 185.5 227.0Q147 237 114.5 255.0Q82 273 61.5 302.5Q41 332 41 378Q41 426 67.0 462.0Q93 498 143.0 518.5Q193 539 265 539Q330 539 379.0 521.5Q428 504 459.5 471.5Q491 439 502 394L385 355Q381 379 365.5 397.0Q350 415 324.5 424.0Q299 433 265 433Q222 433 198.5 419.0Q175 405 175 382Q175 363 190.5 351.0Q206 339 234.0 331.5Q262 324 300 316Q340 308 378.0 297.5Q416 287 446.5 270.0Q477 253 495.0 225.0Q513 197 513 153Q513 101 485.0 63.5Q457 26 404.0 6.0Q351 -14 276 -14Z" transform="translate(294.98 124.00) scale(0.04600 -0.04600)"/><path d="M304 -14Q225 -14 165.0 17.5Q105 49 71.0 110.5Q37 172 37 264Q37 356 71.5 417.0Q106 478 166.5 508.5Q227 539 304 539Q383 539 443.5 508.0Q504 477 538.5 415.5Q573 354 573 262Q573 169 537.5 107.5Q502 46 441.5 16.0Q381 -14 304 -14ZM309 93Q348 93 374.5 111.0Q401 129 414.5 165.5Q428 202 428 254Q428 309 413.5 347.5Q399 386 371.0 406.5Q343 427 300 427Q263 427 236.0 409.5Q209 392 195.0 355.5Q181 319 181 266Q181 181 215.0 137.0Q249 93 309 93Z" transform="translate(318.81 124.00) scale(0.04600 -0.04600)"/><path d="M66 0V336V525H181V368H200Q214 426 237.0 463.5Q260 501 292.5 520.0Q325 539 369 539Q416 539 447.0 518.0Q478 497 495.0 459.5Q512 422 517 368H533Q548 427 573.5 465.0Q599 503 634.5 521.0Q670 539 713 539Q756 539 788.5 522.0Q821 505 843.0 471.5Q865 438 876.0 387.5Q887 337 887 271V0H743V253Q743 307 734.0 343.5Q725 380 706.0 398.0Q687 416 657 416Q624 416 600.0 393.5Q576 371 562.0 332.0Q548 293 547 243V0H406V249Q406 305 396.0 341.5Q386 378 367.0 397.0Q348 416 319 416Q285 416 261.0 393.5Q237 371 224.0 331.0Q211 291 210 242V0Z" transform="translate(345.62 124.00) scale(0.04600 -0.04600)"/><path d="M310 -14Q245 -14 194.5 4.0Q144 22 109.0 56.0Q74 90 55.5 140.0Q37 190 37 253Q37 315 54.5 367.5Q72 420 106.0 458.5Q140 497 189.0 518.0Q238 539 300 539Q360 539 407.0 519.5Q454 500 485.5 461.0Q517 422 531.5 365.5Q546 309 542 236L130 232V311L459 314L408 274Q415 327 401.0 361.0Q387 395 360.5 411.0Q334 427 302 427Q264 427 235.0 407.0Q206 387 190.0 348.5Q174 310 174 256Q174 171 211.5 131.0Q249 91 310 91Q338 91 357.5 98.5Q377 106 389.5 118.0Q402 130 409.5 145.0Q417 160 422 175L547 148Q538 111 520.5 81.5Q503 52 474.0 30.5Q445 9 404.5 -2.5Q364 -14 310 -14Z" transform="translate(387.94 124.00) scale(0.04600 -0.04600)"/><path d="M261 -12Q173 -12 131.5 34.5Q90 81 90 183V412H14L16 525H69Q100 525 115.0 534.0Q130 543 133 567L146 642H228V525H361V408H228V189Q228 153 245.0 137.0Q262 121 297 121Q316 121 333.5 125.0Q351 129 364 138V4Q333 -6 307.0 -9.0Q281 -12 261 -12Z" transform="translate(413.46 124.00) scale(0.04600 -0.04600)"/><path d="M66 0V330V715H211V551Q211 531 209.5 509.0Q208 487 204.5 464.5Q201 442 197.5 419.0Q194 396 190 373H212Q226 424 247.5 461.0Q269 498 303.0 518.5Q337 539 389 539Q481 539 527.0 474.5Q573 410 573 277V0H428V255Q428 339 403.5 379.5Q379 420 330 420Q290 420 264.0 396.0Q238 372 225.0 331.5Q212 291 210 241V0Z" transform="translate(430.52 124.00) scale(0.04600 -0.04600)"/><path d="M66 0V525H210V0ZM139 604Q97 604 74.5 621.5Q52 639 52 673Q52 708 74.5 726.0Q97 744 139 744Q182 744 204.5 726.0Q227 708 227 673Q227 640 204.5 622.0Q182 604 139 604Z" transform="translate(458.35 124.00) scale(0.04600 -0.04600)"/><path d="M66 0V318V525H184L183 368H203Q216 425 240.0 463.0Q264 501 300.5 520.0Q337 539 387 539Q478 539 525.5 475.0Q573 411 573 274V0H428V258Q428 342 403.5 380.5Q379 419 332 419Q292 419 265.0 394.0Q238 369 224.5 328.5Q211 288 210 238V0Z" transform="translate(469.89 124.00) scale(0.04600 -0.04600)"/><path d="M274 -183Q188 -183 132.5 -169.5Q77 -156 51.0 -130.0Q25 -104 25 -65Q25 -19 61.5 10.0Q98 39 169 45V65Q115 65 86.0 76.5Q57 88 57 117Q57 145 85.5 167.0Q114 189 180 202V222Q118 226 83.0 262.0Q48 298 48 355Q48 405 76.0 444.5Q104 484 159.5 507.5Q215 531 296 531H562V421L397 444V421Q461 412 489.5 389.0Q518 366 518 325Q518 284 491.0 253.0Q464 222 414.5 204.5Q365 187 296 187Q283 187 268.0 188.0Q253 189 218 193Q199 179 188.5 168.5Q178 158 178 149Q178 142 185.5 137.0Q193 132 205.5 130.0Q218 128 231 128H381Q401 128 433.0 125.5Q465 123 497.0 110.0Q529 97 551.0 68.5Q573 40 573 -13Q573 -71 540.5 -109.0Q508 -147 441.5 -165.0Q375 -183 274 -183ZM290 -68Q351 -68 385.0 -61.5Q419 -55 433.5 -40.5Q448 -26 448 -4Q448 16 439.5 27.0Q431 38 417.5 42.5Q404 47 390.5 48.5Q377 50 367 50H241Q199 46 180.5 27.5Q162 9 162 -15Q162 -37 176.0 -48.0Q190 -59 218.5 -63.5Q247 -68 290 -68ZM288 262Q336 262 360.0 285.5Q384 309 384 347Q384 387 359.5 413.0Q335 439 288 439Q242 439 216.0 413.5Q190 388 190 348Q190 323 201.5 303.5Q213 284 235.0 273.0Q257 262 288 262Z" transform="translate(497.72 124.00) scale(0.04600 -0.04600)"/><path d="M261 -12Q173 -12 131.5 34.5Q90 81 90 183V412H14L16 525H69Q100 525 115.0 534.0Q130 543 133 567L146 642H228V525H361V408H228V189Q228 153 245.0 137.0Q262 121 297 121Q316 121 333.5 125.0Q351 129 364 138V4Q333 -6 307.0 -9.0Q281 -12 261 -12Z" transform="translate(533.54 124.00) scale(0.04600 -0.04600)"/><path d="M66 0V330V715H211V551Q211 531 209.5 509.0Q208 487 204.5 464.5Q201 442 197.5 419.0Q194 396 190 373H212Q226 424 247.5 461.0Q269 498 303.0 518.5Q337 539 389 539Q481 539 527.0 474.5Q573 410 573 277V0H428V255Q428 339 403.5 379.5Q379 420 330 420Q290 420 264.0 396.0Q238 372 225.0 331.5Q212 291 210 241V0Z" transform="translate(550.61 124.00) scale(0.04600 -0.04600)"/><path d="M189 -14Q145 -14 111.0 3.5Q77 21 58.0 54.0Q39 87 39 136Q39 179 55.5 208.0Q72 237 104.0 255.0Q136 273 183.0 285.0Q230 297 290 306Q322 311 342.5 315.5Q363 320 373.0 330.5Q383 341 383 361Q383 389 363.0 409.0Q343 429 300 429Q271 429 246.5 419.0Q222 409 204.5 389.0Q187 369 179 338L52 377Q64 418 86.5 448.0Q109 478 141.0 498.5Q173 519 214.0 529.0Q255 539 303 539Q380 539 428.5 514.5Q477 490 501.0 438.5Q525 387 525 306V216Q525 181 526.5 145.0Q528 109 530.5 72.5Q533 36 536 0H409Q405 25 401.5 57.5Q398 90 396 123H378Q364 85 338.0 54.0Q312 23 274.5 4.5Q237 -14 189 -14ZM250 90Q269 90 288.5 97.0Q308 104 326.5 116.5Q345 129 360.5 148.0Q376 167 386 191L384 275L407 270Q389 257 365.0 249.5Q341 242 315.5 238.0Q290 234 265.0 229.0Q240 224 220.5 216.0Q201 208 189.5 194.5Q178 181 178 157Q178 126 198.0 108.0Q218 90 250 90Z" transform="translate(578.43 124.00) scale(0.04600 -0.04600)"/><path d="M261 -12Q173 -12 131.5 34.5Q90 81 90 183V412H14L16 525H69Q100 525 115.0 534.0Q130 543 133 567L146 642H228V525H361V408H228V189Q228 153 245.0 137.0Q262 121 297 121Q316 121 333.5 125.0Q351 129 364 138V4Q333 -6 307.0 -9.0Q281 -12 261 -12Z" transform="translate(604.14 124.00) scale(0.04600 -0.04600)"/><path d="M276 -14Q223 -14 180.0 -4.0Q137 6 106.0 25.0Q75 44 56.0 70.5Q37 97 31 130L141 175Q145 153 163.0 134.0Q181 115 211.5 103.5Q242 92 285 92Q331 92 356.0 105.5Q381 119 381 144Q381 163 367.0 174.0Q353 185 326.0 193.0Q299 201 261 208Q224 217 185.5 227.0Q147 237 114.5 255.0Q82 273 61.5 302.5Q41 332 41 378Q41 426 67.0 462.0Q93 498 143.0 518.5Q193 539 265 539Q330 539 379.0 521.5Q428 504 459.5 471.5Q491 439 502 394L385 355Q381 379 365.5 397.0Q350 415 324.5 424.0Q299 433 265 433Q222 433 198.5 419.0Q175 405 175 382Q175 363 190.5 351.0Q206 339 234.0 331.5Q262 324 300 316Q340 308 378.0 297.5Q416 287 446.5 270.0Q477 253 495.0 225.0Q513 197 513 153Q513 101 485.0 63.5Q457 26 404.0 6.0Q351 -14 276 -14Z" transform="translate(630.58 124.00) scale(0.04600 -0.04600)"/><path d="M261 -12Q173 -12 131.5 34.5Q90 81 90 183V412H14L16 525H69Q100 525 115.0 534.0Q130 543 133 567L146 642H228V525H361V408H228V189Q228 153 245.0 137.0Q262 121 297 121Q316 121 333.5 125.0Q351 129 364 138V4Q333 -6 307.0 -9.0Q281 -12 261 -12Z" transform="translate(654.41 124.00) scale(0.04600 -0.04600)"/><path d="M189 -14Q145 -14 111.0 3.5Q77 21 58.0 54.0Q39 87 39 136Q39 179 55.5 208.0Q72 237 104.0 255.0Q136 273 183.0 285.0Q230 297 290 306Q322 311 342.5 315.5Q363 320 373.0 330.5Q383 341 383 361Q383 389 363.0 409.0Q343 429 300 429Q271 429 246.5 419.0Q222 409 204.5 389.0Q187 369 179 338L52 377Q64 418 86.5 448.0Q109 478 141.0 498.5Q173 519 214.0 529.0Q255 539 303 539Q380 539 428.5 514.5Q477 490 501.0 438.5Q525 387 525 306V216Q525 181 526.5 145.0Q528 109 530.5 72.5Q533 36 536 0H409Q405 25 401.5 57.5Q398 90 396 123H378Q364 85 338.0 54.0Q312 23 274.5 4.5Q237 -14 189 -14ZM250 90Q269 90 288.5 97.0Q308 104 326.5 116.5Q345 129 360.5 148.0Q376 167 386 191L384 275L407 270Q389 257 365.0 249.5Q341 242 315.5 238.0Q290 234 265.0 229.0Q240 224 220.5 216.0Q201 208 189.5 194.5Q178 181 178 157Q178 126 198.0 108.0Q218 90 250 90Z" transform="translate(671.47 124.00) scale(0.04600 -0.04600)"/><path d="M265 -182Q225 -182 183.5 -174.5Q142 -167 105.5 -151.5Q69 -136 43 -112L84 11Q116 -22 164.0 -38.5Q212 -55 259 -55Q312 -55 347.5 -33.5Q383 -12 401.5 32.5Q420 77 423 144L429 235H407Q397 169 374.5 127.0Q352 85 317.5 65.5Q283 46 236 46Q179 46 140.0 75.0Q101 104 81.5 162.0Q62 220 62 305V525H206V340Q206 247 227.0 206.0Q248 165 291 165Q314 165 333.0 177.5Q352 190 365.5 214.0Q379 238 386.5 272.5Q394 307 394 351V525H538V139Q538 76 527.0 24.5Q516 -27 494.5 -65.5Q473 -104 440.0 -130.0Q407 -156 363.5 -169.0Q320 -182 265 -182Z" transform="translate(697.18 124.00) scale(0.04600 -0.04600)"/><path d="M276 -14Q223 -14 180.0 -4.0Q137 6 106.0 25.0Q75 44 56.0 70.5Q37 97 31 130L141 175Q145 153 163.0 134.0Q181 115 211.5 103.5Q242 92 285 92Q331 92 356.0 105.5Q381 119 381 144Q381 163 367.0 174.0Q353 185 326.0 193.0Q299 201 261 208Q224 217 185.5 227.0Q147 237 114.5 255.0Q82 273 61.5 302.5Q41 332 41 378Q41 426 67.0 462.0Q93 498 143.0 518.5Q193 539 265 539Q330 539 379.0 521.5Q428 504 459.5 471.5Q491 439 502 394L385 355Q381 379 365.5 397.0Q350 415 324.5 424.0Q299 433 265 433Q222 433 198.5 419.0Q175 405 175 382Q175 363 190.5 351.0Q206 339 234.0 331.5Q262 324 300 316Q340 308 378.0 297.5Q416 287 446.5 270.0Q477 253 495.0 225.0Q513 197 513 153Q513 101 485.0 63.5Q457 26 404.0 6.0Q351 -14 276 -14Z" transform="translate(723.67 124.00) scale(0.04600 -0.04600)"/><path d="M244 -14Q152 -14 105.5 48.5Q59 111 59 239V525H203V257Q203 180 226.0 142.5Q249 105 296 105Q324 105 345.0 119.0Q366 133 381.0 158.0Q396 183 403.5 217.0Q411 251 412 290V525H556V214V0H440L439 164H421Q406 102 383.5 62.5Q361 23 326.5 4.5Q292 -14 244 -14Z" transform="translate(756.88 124.00) scale(0.04600 -0.04600)"/><path d="M66 -168V258V525H185L186 379L204 378Q213 431 235.5 467.0Q258 503 294.0 521.0Q330 539 377 539Q447 539 497.0 504.5Q547 470 573.5 407.5Q600 345 600 260Q600 181 576.0 119.5Q552 58 504.5 22.0Q457 -14 386 -14Q336 -14 301.5 5.0Q267 24 244.5 58.5Q222 93 207 141H188Q194 114 199.0 86.0Q204 58 207.0 31.5Q210 5 210 -20V-168ZM336 101Q372 101 397.0 121.0Q422 141 435.5 177.0Q449 213 449 259Q449 309 435.0 344.5Q421 380 395.0 400.0Q369 420 333 420Q301 420 278.0 406.0Q255 392 239.5 369.0Q224 346 217.0 319.5Q210 293 210 269V250Q210 231 215.0 210.5Q220 190 231.0 170.5Q242 151 257.0 135.5Q272 120 292.0 110.5Q312 101 336 101Z" transform="translate(784.29 124.00) scale(0.04600 -0.04600)"/><path d="M116 -13Q69 -13 45.5 7.0Q22 27 22 69Q22 112 45.5 132.0Q69 152 116 152Q164 152 187.5 132.0Q211 112 211 69Q211 -13 116 -13Z" transform="translate(812.44 124.00) scale(0.04600 -0.04600)"/></g><g fill="#45568a"><path d="M369 -16Q268 -16 195.5 28.5Q123 73 84.0 156.0Q45 239 45 354Q45 469 84.0 552.5Q123 636 195.5 681.0Q268 726 369 726Q471 726 543.5 681.0Q616 636 655.0 552.5Q694 469 694 354Q694 239 655.0 156.0Q616 73 543.5 28.5Q471 -16 369 -16ZM369 68Q479 68 541.5 143.5Q604 219 604 354Q604 489 541.5 565.5Q479 642 369 642Q260 642 197.5 565.5Q135 489 135 354Q135 219 197.5 143.5Q260 68 369 68Z" transform="translate(74.00 160.00) scale(0.01650 -0.01650)"/><path d="M80 -150V530H158L159 449Q183 495 225.5 518.5Q268 542 322 542Q401 542 451.5 503.0Q502 464 526.5 401.0Q551 338 551 265Q551 192 526.5 129.0Q502 66 451.5 27.0Q401 -12 322 -12Q270 -12 227.5 10.0Q185 32 164 70V-150ZM314 68Q383 68 423.0 120.0Q463 172 463 265Q463 358 423.0 410.0Q383 462 314 462Q245 462 204.5 412.5Q164 363 164 265Q164 168 204.0 118.0Q244 68 314 68Z" transform="translate(86.19 160.00) scale(0.01650 -0.01650)"/><path d="M287 -12Q212 -12 157.5 22.0Q103 56 73.5 118.5Q44 181 44 265Q44 349 73.5 411.0Q103 473 156.5 507.5Q210 542 283 542Q352 542 405.0 509.5Q458 477 487.5 415.0Q517 353 517 264V239H132Q137 154 177.5 111.0Q218 68 287 68Q339 68 372.5 92.5Q406 117 419 157L509 150Q488 79 429.5 33.5Q371 -12 287 -12ZM132 313H425Q419 390 380.5 426.0Q342 462 283 462Q222 462 182.5 424.5Q143 387 132 313Z" transform="translate(96.01 160.00) scale(0.01650 -0.01650)"/><path d="M80 0V530H157L159 435Q180 490 223.5 516.0Q267 542 322 542Q383 542 422.5 515.0Q462 488 481.5 442.5Q501 397 501 341V0H417V317Q417 391 390.5 429.5Q364 468 304 468Q243 468 203.5 429.5Q164 391 164 317V0Z" transform="translate(105.27 160.00) scale(0.01650 -0.01650)"/><path d="M274 0Q202 0 167.5 33.0Q133 66 133 136V456H55V530H133V654H217V530H358V456H217V138Q217 102 233.0 88.0Q249 74 282 74H358V0Z" transform="translate(118.98 160.00) scale(0.01650 -0.01650)"/><path d="M287 -12Q214 -12 159.0 22.0Q104 56 74.0 118.5Q44 181 44 265Q44 350 74.0 412.0Q104 474 159.0 508.0Q214 542 287 542Q360 542 414.5 508.0Q469 474 499.0 412.0Q529 350 529 265Q529 181 499.0 118.5Q469 56 414.5 22.0Q360 -12 287 -12ZM287 68Q360 68 400.5 120.5Q441 173 441 265Q441 357 400.5 409.5Q360 462 287 462Q214 462 173.0 409.5Q132 357 132 265Q132 173 173.0 120.5Q214 68 287 68Z" transform="translate(125.45 160.00) scale(0.01650 -0.01650)"/><path d="M323 -12Q268 -12 225.0 12.5Q182 37 159 80L156 0H80V710H164V456Q184 489 226.0 515.5Q268 542 323 542Q393 542 444.0 508.0Q495 474 523.0 412.0Q551 350 551 265Q551 180 523.0 118.0Q495 56 444.0 22.0Q393 -12 323 -12ZM318 68Q385 68 424.0 121.0Q463 174 463 265Q463 357 424.0 409.5Q385 462 320 462Q247 462 205.5 409.5Q164 357 164 265Q164 174 205.0 121.0Q246 68 318 68Z" transform="translate(139.03 160.00) scale(0.01650 -0.01650)"/><path d="M223 -12Q141 -12 92.5 26.0Q44 64 44 132Q44 200 84.0 239.0Q124 278 211 294L399 329Q399 462 273 462Q218 462 186.0 437.5Q154 413 142 367L53 374Q68 449 125.5 495.5Q183 542 273 542Q375 542 429.0 484.5Q483 427 483 326V107Q483 74 511 74H532V0Q520 -2 500 -2Q454 -2 430.5 16.5Q407 35 401 77L400 82Q380 41 331.0 14.5Q282 -12 223 -12ZM231 62Q311 62 355.0 107.0Q399 152 399 218V256L227 224Q173 214 152.5 193.5Q132 173 132 140Q132 103 158.5 82.5Q185 62 231 62Z" transform="translate(148.84 160.00) scale(0.01650 -0.01650)"/><path d="M287 -12Q213 -12 158.5 22.0Q104 56 74.0 118.5Q44 181 44 265Q44 349 74.0 411.0Q104 473 158.5 507.5Q213 542 287 542Q379 542 439.0 494.5Q499 447 512 358L424 352Q415 405 378.0 433.5Q341 462 287 462Q214 462 173.0 409.5Q132 357 132 265Q132 173 173.0 120.5Q214 68 287 68Q341 68 378.0 98.0Q415 128 424 188L512 182Q499 94 439.0 41.0Q379 -12 287 -12Z" transform="translate(157.94 160.00) scale(0.01650 -0.01650)"/><path d="M80 0V710H164V245L422 530H534L325 305L543 0H441L268 248L164 138V0Z" transform="translate(166.94 160.00) scale(0.01650 -0.01650)"/><path d="M287 -12Q212 -12 157.5 22.0Q103 56 73.5 118.5Q44 181 44 265Q44 349 73.5 411.0Q103 473 156.5 507.5Q210 542 283 542Q352 542 405.0 509.5Q458 477 487.5 415.0Q517 353 517 264V239H132Q137 154 177.5 111.0Q218 68 287 68Q339 68 372.5 92.5Q406 117 419 157L509 150Q488 79 429.5 33.5Q371 -12 287 -12ZM132 313H425Q419 390 380.5 426.0Q342 462 283 462Q222 462 182.5 424.5Q143 387 132 313Z" transform="translate(176.68 160.00) scale(0.01650 -0.01650)"/><path d="M80 0V530H157L159 435Q180 490 223.5 516.0Q267 542 322 542Q383 542 422.5 515.0Q462 488 481.5 442.5Q501 397 501 341V0H417V317Q417 391 390.5 429.5Q364 468 304 468Q243 468 203.5 429.5Q164 391 164 317V0Z" transform="translate(185.94 160.00) scale(0.01650 -0.01650)"/><path d="M268 -12Q199 -12 148.5 22.0Q98 56 71.0 118.0Q44 180 44 265Q44 350 71.0 412.0Q98 474 148.5 508.0Q199 542 268 542Q321 542 365.0 519.5Q409 497 431 456V710H515V0H439L436 80Q414 37 369.0 12.5Q324 -12 268 -12ZM285 68Q356 68 393.5 121.0Q431 174 431 265Q431 357 393.5 409.5Q356 462 285 462Q215 462 173.5 409.5Q132 357 132 265Q132 174 173.5 121.0Q215 68 285 68Z" transform="translate(195.52 160.00) scale(0.01650 -0.01650)"/><path d="M47 -156 95 0H44V113H157V14L97 -156Z" transform="translate(205.34 160.00) scale(0.01650 -0.01650)"/><path d="M80 0V530H164V0ZM78 613V711H166V613Z" transform="translate(212.78 160.00) scale(0.01650 -0.01650)"/><path d="M80 0V530H157L159 435Q180 490 223.5 516.0Q267 542 322 542Q383 542 422.5 515.0Q462 488 481.5 442.5Q501 397 501 341V0H417V317Q417 391 390.5 429.5Q364 468 304 468Q243 468 203.5 429.5Q164 391 164 317V0Z" transform="translate(216.81 160.00) scale(0.01650 -0.01650)"/><path d="M132 0V456H60V530H132V578Q132 637 166.0 673.5Q200 710 272 710H356V636H278Q247 636 231.5 619.0Q216 602 216 572V530H349V456H216V0Z" transform="translate(226.39 160.00) scale(0.01650 -0.01650)"/><path d="M80 0V530H154L157 432Q184 530 283 530H335V450H284Q164 450 164 320V0Z" transform="translate(232.91 160.00) scale(0.01650 -0.01650)"/><path d="M223 -12Q141 -12 92.5 26.0Q44 64 44 132Q44 200 84.0 239.0Q124 278 211 294L399 329Q399 462 273 462Q218 462 186.0 437.5Q154 413 142 367L53 374Q68 449 125.5 495.5Q183 542 273 542Q375 542 429.0 484.5Q483 427 483 326V107Q483 74 511 74H532V0Q520 -2 500 -2Q454 -2 430.5 16.5Q407 35 401 77L400 82Q380 41 331.0 14.5Q282 -12 223 -12ZM231 62Q311 62 355.0 107.0Q399 152 399 218V256L227 224Q173 214 152.5 193.5Q132 173 132 140Q132 103 158.5 82.5Q185 62 231 62Z" transform="translate(239.17 160.00) scale(0.01650 -0.01650)"/><path d="M273 -12Q164 -12 107.0 38.5Q50 89 44 167L132 173Q140 125 171.5 96.5Q203 68 273 68Q327 68 356.5 85.5Q386 103 386 142Q386 163 376.5 177.0Q367 191 339.0 201.5Q311 212 257 222Q183 236 141.0 257.0Q99 278 82.0 308.0Q65 338 65 380Q65 451 117.5 496.5Q170 542 266 542Q336 542 380.5 517.5Q425 493 448.0 454.0Q471 415 476 372L388 366Q384 404 356.5 433.0Q329 462 264 462Q207 462 180.0 440.0Q153 418 153 384Q153 345 178.0 326.5Q203 308 273 296Q351 283 395.0 263.0Q439 243 456.5 213.5Q474 184 474 142Q474 69 417.5 28.5Q361 -12 273 -12Z" transform="translate(248.26 160.00) scale(0.01650 -0.01650)"/><path d="M274 0Q202 0 167.5 33.0Q133 66 133 136V456H55V530H133V654H217V530H358V456H217V138Q217 102 233.0 88.0Q249 74 282 74H358V0Z" transform="translate(256.84 160.00) scale(0.01650 -0.01650)"/><path d="M80 0V530H154L157 432Q184 530 283 530H335V450H284Q164 450 164 320V0Z" transform="translate(263.30 160.00) scale(0.01650 -0.01650)"/><path d="M254 -12Q175 -12 127.5 41.5Q80 95 80 189V530H164V212Q164 135 191.5 98.5Q219 62 276 62Q339 62 375.0 102.5Q411 143 411 214V530H495V0H415V86Q371 -12 254 -12Z" transform="translate(269.56 160.00) scale(0.01650 -0.01650)"/><path d="M287 -12Q213 -12 158.5 22.0Q104 56 74.0 118.5Q44 181 44 265Q44 349 74.0 411.0Q104 473 158.5 507.5Q213 542 287 542Q379 542 439.0 494.5Q499 447 512 358L424 352Q415 405 378.0 433.5Q341 462 287 462Q214 462 173.0 409.5Q132 357 132 265Q132 173 173.0 120.5Q214 68 287 68Q341 68 378.0 98.0Q415 128 424 188L512 182Q499 94 439.0 41.0Q379 -12 287 -12Z" transform="translate(279.05 160.00) scale(0.01650 -0.01650)"/><path d="M274 0Q202 0 167.5 33.0Q133 66 133 136V456H55V530H133V654H217V530H358V456H217V138Q217 102 233.0 88.0Q249 74 282 74H358V0Z" transform="translate(288.05 160.00) scale(0.01650 -0.01650)"/><path d="M254 -12Q175 -12 127.5 41.5Q80 95 80 189V530H164V212Q164 135 191.5 98.5Q219 62 276 62Q339 62 375.0 102.5Q411 143 411 214V530H495V0H415V86Q371 -12 254 -12Z" transform="translate(294.52 160.00) scale(0.01650 -0.01650)"/><path d="M80 0V530H154L157 432Q184 530 283 530H335V450H284Q164 450 164 320V0Z" transform="translate(304.01 160.00) scale(0.01650 -0.01650)"/><path d="M287 -12Q212 -12 157.5 22.0Q103 56 73.5 118.5Q44 181 44 265Q44 349 73.5 411.0Q103 473 156.5 507.5Q210 542 283 542Q352 542 405.0 509.5Q458 477 487.5 415.0Q517 353 517 264V239H132Q137 154 177.5 111.0Q218 68 287 68Q339 68 372.5 92.5Q406 117 419 157L509 150Q488 79 429.5 33.5Q371 -12 287 -12ZM132 313H425Q419 390 380.5 426.0Q342 462 283 462Q222 462 182.5 424.5Q143 387 132 313Z" transform="translate(310.26 160.00) scale(0.01650 -0.01650)"/><path d="M47 -156 95 0H44V113H157V14L97 -156Z" transform="translate(319.52 160.00) scale(0.01650 -0.01650)"/><path d="M223 -12Q141 -12 92.5 26.0Q44 64 44 132Q44 200 84.0 239.0Q124 278 211 294L399 329Q399 462 273 462Q218 462 186.0 437.5Q154 413 142 367L53 374Q68 449 125.5 495.5Q183 542 273 542Q375 542 429.0 484.5Q483 427 483 326V107Q483 74 511 74H532V0Q520 -2 500 -2Q454 -2 430.5 16.5Q407 35 401 77L400 82Q380 41 331.0 14.5Q282 -12 223 -12ZM231 62Q311 62 355.0 107.0Q399 152 399 218V256L227 224Q173 214 152.5 193.5Q132 173 132 140Q132 103 158.5 82.5Q185 62 231 62Z" transform="translate(326.96 160.00) scale(0.01650 -0.01650)"/><path d="M80 0V530H157L159 435Q180 490 223.5 516.0Q267 542 322 542Q383 542 422.5 515.0Q462 488 481.5 442.5Q501 397 501 341V0H417V317Q417 391 390.5 429.5Q364 468 304 468Q243 468 203.5 429.5Q164 391 164 317V0Z" transform="translate(336.05 160.00) scale(0.01650 -0.01650)"/><path d="M268 -12Q199 -12 148.5 22.0Q98 56 71.0 118.0Q44 180 44 265Q44 350 71.0 412.0Q98 474 148.5 508.0Q199 542 268 542Q321 542 365.0 519.5Q409 497 431 456V710H515V0H439L436 80Q414 37 369.0 12.5Q324 -12 268 -12ZM285 68Q356 68 393.5 121.0Q431 174 431 265Q431 357 393.5 409.5Q356 462 285 462Q215 462 173.5 409.5Q132 357 132 265Q132 174 173.5 121.0Q215 68 285 68Z" transform="translate(345.64 160.00) scale(0.01650 -0.01650)"/><path d="M336 -16Q254 -16 193.0 15.0Q132 46 96.5 100.5Q61 155 55 227L145 233Q156 154 204.5 111.0Q253 68 338 68Q412 68 453.5 96.5Q495 125 495 180Q495 213 479.5 238.5Q464 264 420.5 285.5Q377 307 292 328Q210 349 161.5 374.0Q113 399 91.5 435.0Q70 471 70 524Q70 584 98.5 629.5Q127 675 180.0 700.5Q233 726 306 726Q384 726 440.0 696.5Q496 667 529.0 616.0Q562 565 570 500L480 494Q471 559 427.5 600.5Q384 642 304 642Q238 642 199.0 610.5Q160 579 160 528Q160 495 175.5 473.5Q191 452 231.0 435.5Q271 419 346 400Q435 378 487.5 347.5Q540 317 562.5 277.0Q585 237 585 186Q585 124 553.0 78.5Q521 33 465.0 8.5Q409 -16 336 -16Z" transform="translate(359.58 160.00) scale(0.01650 -0.01650)"/><path d="M92 0V710H361Q473 710 538.0 652.0Q603 594 603 495Q603 454 586.0 420.5Q569 387 542.0 364.0Q515 341 483 332Q530 324 557.5 294.0Q585 264 590 209L610 0H523L505 200Q501 244 473.5 265.0Q446 286 384 286H178V0ZM178 370H372Q437 370 475.0 403.0Q513 436 513 497Q513 559 474.0 592.5Q435 626 361 626H178Z" transform="translate(370.14 160.00) scale(0.01650 -0.01650)"/><path d="M92 0V710H538V626H178V397H526V315H178V84H546V0Z" transform="translate(381.23 160.00) scale(0.01650 -0.01650)"/><path d="M186 0 22 530H114L238 88L364 530H454L580 88L705 530H797L633 0H527L409 403L291 0Z" transform="translate(395.30 160.00) scale(0.01650 -0.01650)"/><path d="M287 -12Q214 -12 159.0 22.0Q104 56 74.0 118.5Q44 181 44 265Q44 350 74.0 412.0Q104 474 159.0 508.0Q214 542 287 542Q360 542 414.5 508.0Q469 474 499.0 412.0Q529 350 529 265Q529 181 499.0 118.5Q469 56 414.5 22.0Q360 -12 287 -12ZM287 68Q360 68 400.5 120.5Q441 173 441 265Q441 357 400.5 409.5Q360 462 287 462Q214 462 173.0 409.5Q132 357 132 265Q132 173 173.0 120.5Q214 68 287 68Z" transform="translate(408.82 160.00) scale(0.01650 -0.01650)"/><path d="M80 0V530H154L157 432Q184 530 283 530H335V450H284Q164 450 164 320V0Z" transform="translate(418.27 160.00) scale(0.01650 -0.01650)"/><path d="M80 0V710H164V245L422 530H534L325 305L543 0H441L268 248L164 138V0Z" transform="translate(424.53 160.00) scale(0.01650 -0.01650)"/><path d="M44 253V331H863V253Z" transform="translate(438.39 160.00) scale(0.01650 -0.01650)"/><path d="M274 0Q202 0 167.5 33.0Q133 66 133 136V456H55V530H133V654H217V530H358V456H217V138Q217 102 233.0 88.0Q249 74 282 74H358V0Z" transform="translate(457.48 160.00) scale(0.01650 -0.01650)"/><path d="M80 0V710H164V447Q185 496 227.0 519.0Q269 542 324 542Q410 542 455.5 486.0Q501 430 501 341V0H417V317Q417 468 306 468Q242 468 203.0 429.0Q164 390 164 316V0Z" transform="translate(463.94 160.00) scale(0.01650 -0.01650)"/><path d="M287 -12Q212 -12 157.5 22.0Q103 56 73.5 118.5Q44 181 44 265Q44 349 73.5 411.0Q103 473 156.5 507.5Q210 542 283 542Q352 542 405.0 509.5Q458 477 487.5 415.0Q517 353 517 264V239H132Q137 154 177.5 111.0Q218 68 287 68Q339 68 372.5 92.5Q406 117 419 157L509 150Q488 79 429.5 33.5Q371 -12 287 -12ZM132 313H425Q419 390 380.5 426.0Q342 462 283 462Q222 462 182.5 424.5Q143 387 132 313Z" transform="translate(473.53 160.00) scale(0.01650 -0.01650)"/><path d="M80 0V710H164V245L422 530H534L325 305L543 0H441L268 248L164 138V0Z" transform="translate(486.91 160.00) scale(0.01650 -0.01650)"/><path d="M80 0V530H164V0ZM78 613V711H166V613Z" transform="translate(496.65 160.00) scale(0.01650 -0.01650)"/><path d="M80 0V530H157L159 435Q180 490 223.5 516.0Q267 542 322 542Q383 542 422.5 515.0Q462 488 481.5 442.5Q501 397 501 341V0H417V317Q417 391 390.5 429.5Q364 468 304 468Q243 468 203.5 429.5Q164 391 164 317V0Z" transform="translate(500.67 160.00) scale(0.01650 -0.01650)"/><path d="M268 -12Q199 -12 148.5 22.0Q98 56 71.0 118.0Q44 180 44 265Q44 350 71.0 412.0Q98 474 148.5 508.0Q199 542 268 542Q321 542 365.0 519.5Q409 497 431 456V710H515V0H439L436 80Q414 37 369.0 12.5Q324 -12 268 -12ZM285 68Q356 68 393.5 121.0Q431 174 431 265Q431 357 393.5 409.5Q356 462 285 462Q215 462 173.5 409.5Q132 357 132 265Q132 174 173.5 121.0Q215 68 285 68Z" transform="translate(510.26 160.00) scale(0.01650 -0.01650)"/><path d="M274 0Q202 0 167.5 33.0Q133 66 133 136V456H55V530H133V654H217V530H358V456H217V138Q217 102 233.0 88.0Q249 74 282 74H358V0Z" transform="translate(524.20 160.00) scale(0.01650 -0.01650)"/><path d="M80 0V710H164V447Q185 496 227.0 519.0Q269 542 324 542Q410 542 455.5 486.0Q501 430 501 341V0H417V317Q417 468 306 468Q242 468 203.0 429.0Q164 390 164 316V0Z" transform="translate(530.67 160.00) scale(0.01650 -0.01650)"/><path d="M223 -12Q141 -12 92.5 26.0Q44 64 44 132Q44 200 84.0 239.0Q124 278 211 294L399 329Q399 462 273 462Q218 462 186.0 437.5Q154 413 142 367L53 374Q68 449 125.5 495.5Q183 542 273 542Q375 542 429.0 484.5Q483 427 483 326V107Q483 74 511 74H532V0Q520 -2 500 -2Q454 -2 430.5 16.5Q407 35 401 77L400 82Q380 41 331.0 14.5Q282 -12 223 -12ZM231 62Q311 62 355.0 107.0Q399 152 399 218V256L227 224Q173 214 152.5 193.5Q132 173 132 140Q132 103 158.5 82.5Q185 62 231 62Z" transform="translate(540.26 160.00) scale(0.01650 -0.01650)"/><path d="M274 0Q202 0 167.5 33.0Q133 66 133 136V456H55V530H133V654H217V530H358V456H217V138Q217 102 233.0 88.0Q249 74 282 74H358V0Z" transform="translate(549.35 160.00) scale(0.01650 -0.01650)"/><path d="M80 0V710H164V447Q185 496 227.0 519.0Q269 542 324 542Q410 542 455.5 486.0Q501 430 501 341V0H417V317Q417 468 306 468Q242 468 203.0 429.0Q164 390 164 316V0Z" transform="translate(559.94 160.00) scale(0.01650 -0.01650)"/><path d="M223 -12Q141 -12 92.5 26.0Q44 64 44 132Q44 200 84.0 239.0Q124 278 211 294L399 329Q399 462 273 462Q218 462 186.0 437.5Q154 413 142 367L53 374Q68 449 125.5 495.5Q183 542 273 542Q375 542 429.0 484.5Q483 427 483 326V107Q483 74 511 74H532V0Q520 -2 500 -2Q454 -2 430.5 16.5Q407 35 401 77L400 82Q380 41 331.0 14.5Q282 -12 223 -12ZM231 62Q311 62 355.0 107.0Q399 152 399 218V256L227 224Q173 214 152.5 193.5Q132 173 132 140Q132 103 158.5 82.5Q185 62 231 62Z" transform="translate(569.53 160.00) scale(0.01650 -0.01650)"/><path d="M273 -12Q164 -12 107.0 38.5Q50 89 44 167L132 173Q140 125 171.5 96.5Q203 68 273 68Q327 68 356.5 85.5Q386 103 386 142Q386 163 376.5 177.0Q367 191 339.0 201.5Q311 212 257 222Q183 236 141.0 257.0Q99 278 82.0 308.0Q65 338 65 380Q65 451 117.5 496.5Q170 542 266 542Q336 542 380.5 517.5Q425 493 448.0 454.0Q471 415 476 372L388 366Q384 404 356.5 433.0Q329 462 264 462Q207 462 180.0 440.0Q153 418 153 384Q153 345 178.0 326.5Q203 308 273 296Q351 283 395.0 263.0Q439 243 456.5 213.5Q474 184 474 142Q474 69 417.5 28.5Q361 -12 273 -12Z" transform="translate(578.62 160.00) scale(0.01650 -0.01650)"/><path d="M274 0Q202 0 167.5 33.0Q133 66 133 136V456H55V530H133V654H217V530H358V456H217V138Q217 102 233.0 88.0Q249 74 282 74H358V0Z" transform="translate(591.32 160.00) scale(0.01650 -0.01650)"/><path d="M287 -12Q214 -12 159.0 22.0Q104 56 74.0 118.5Q44 181 44 265Q44 350 74.0 412.0Q104 474 159.0 508.0Q214 542 287 542Q360 542 414.5 508.0Q469 474 499.0 412.0Q529 350 529 265Q529 181 499.0 118.5Q469 56 414.5 22.0Q360 -12 287 -12ZM287 68Q360 68 400.5 120.5Q441 173 441 265Q441 357 400.5 409.5Q360 462 287 462Q214 462 173.0 409.5Q132 357 132 265Q132 173 173.0 120.5Q214 68 287 68Z" transform="translate(597.79 160.00) scale(0.01650 -0.01650)"/><path d="M323 -12Q268 -12 225.0 12.5Q182 37 159 80L156 0H80V710H164V456Q184 489 226.0 515.5Q268 542 323 542Q393 542 444.0 508.0Q495 474 523.0 412.0Q551 350 551 265Q551 180 523.0 118.0Q495 56 444.0 22.0Q393 -12 323 -12ZM318 68Q385 68 424.0 121.0Q463 174 463 265Q463 357 424.0 409.5Q385 462 320 462Q247 462 205.5 409.5Q164 357 164 265Q164 174 205.0 121.0Q246 68 318 68Z" transform="translate(611.37 160.00) scale(0.01650 -0.01650)"/><path d="M287 -12Q212 -12 157.5 22.0Q103 56 73.5 118.5Q44 181 44 265Q44 349 73.5 411.0Q103 473 156.5 507.5Q210 542 283 542Q352 542 405.0 509.5Q458 477 487.5 415.0Q517 353 517 264V239H132Q137 154 177.5 111.0Q218 68 287 68Q339 68 372.5 92.5Q406 117 419 157L509 150Q488 79 429.5 33.5Q371 -12 287 -12ZM132 313H425Q419 390 380.5 426.0Q342 462 283 462Q222 462 182.5 424.5Q143 387 132 313Z" transform="translate(621.19 160.00) scale(0.01650 -0.01650)"/><path d="M281 -162Q196 -162 136.0 -120.0Q76 -78 59 -8L147 -2Q159 -39 189.5 -60.5Q220 -82 281 -82Q353 -82 391.5 -53.0Q430 -24 430 34V120Q411 78 369.0 53.0Q327 28 275 28Q208 28 155.5 61.0Q103 94 73.5 152.0Q44 210 44 285Q44 361 73.0 418.5Q102 476 153.5 509.0Q205 542 271 542Q327 542 371.5 516.0Q416 490 434 446V530H514V36Q514 -57 452.5 -109.5Q391 -162 281 -162ZM279 108Q347 108 388.0 155.5Q429 203 430 285Q432 367 390.0 414.5Q348 462 279 462Q209 462 170.5 414.5Q132 367 132 285Q132 203 171.5 155.5Q211 108 279 108Z" transform="translate(634.57 160.00) scale(0.01650 -0.01650)"/><path d="M287 -12Q214 -12 159.0 22.0Q104 56 74.0 118.5Q44 181 44 265Q44 350 74.0 412.0Q104 474 159.0 508.0Q214 542 287 542Q360 542 414.5 508.0Q469 474 499.0 412.0Q529 350 529 265Q529 181 499.0 118.5Q469 56 414.5 22.0Q360 -12 287 -12ZM287 68Q360 68 400.5 120.5Q441 173 441 265Q441 357 400.5 409.5Q360 462 287 462Q214 462 173.0 409.5Q132 357 132 265Q132 173 173.0 120.5Q214 68 287 68Z" transform="translate(644.37 160.00) scale(0.01650 -0.01650)"/><path d="M287 -12Q214 -12 159.0 22.0Q104 56 74.0 118.5Q44 181 44 265Q44 350 74.0 412.0Q104 474 159.0 508.0Q214 542 287 542Q360 542 414.5 508.0Q469 474 499.0 412.0Q529 350 529 265Q529 181 499.0 118.5Q469 56 414.5 22.0Q360 -12 287 -12ZM287 68Q360 68 400.5 120.5Q441 173 441 265Q441 357 400.5 409.5Q360 462 287 462Q214 462 173.0 409.5Q132 357 132 265Q132 173 173.0 120.5Q214 68 287 68Z" transform="translate(653.83 160.00) scale(0.01650 -0.01650)"/><path d="M268 -12Q199 -12 148.5 22.0Q98 56 71.0 118.0Q44 180 44 265Q44 350 71.0 412.0Q98 474 148.5 508.0Q199 542 268 542Q321 542 365.0 519.5Q409 497 431 456V710H515V0H439L436 80Q414 37 369.0 12.5Q324 -12 268 -12ZM285 68Q356 68 393.5 121.0Q431 174 431 265Q431 357 393.5 409.5Q356 462 285 462Q215 462 173.5 409.5Q132 357 132 265Q132 174 173.5 121.0Q215 68 285 68Z" transform="translate(663.28 160.00) scale(0.01650 -0.01650)"/><path d="M44 0V113H157V0Z" transform="translate(673.10 160.00) scale(0.01650 -0.01650)"/></g><g fill="#e8451c"><path d="M70 0V534H186L189 445Q209 493 247.5 519.5Q286 546 336 546Q395 546 434.5 517.0Q474 488 491 436Q509 490 548.5 518.0Q588 546 644 546Q727 546 774.5 494.0Q822 442 822 343V0H694V310Q694 442 603 442Q557 442 531.0 406.5Q505 371 505 306V0H386V306Q386 371 366.0 406.5Q346 442 297 442Q251 442 224.5 406.0Q198 370 198 306V0Z" transform="translate(74.00 214.00) scale(0.02600 -0.02600)"/><path d="M301 -12Q221 -12 162.0 22.5Q103 57 71.0 120.0Q39 183 39 267Q39 351 71.0 414.0Q103 477 161.5 511.5Q220 546 298 546Q374 546 431.0 512.0Q488 478 519.5 414.0Q551 350 551 260V231H172Q175 161 210.0 125.5Q245 90 302 90Q389 90 413 164L544 156Q522 78 457.5 33.0Q393 -12 301 -12ZM172 317H419Q414 382 381.5 413.5Q349 445 298 445Q246 445 213.0 412.0Q180 379 172 317Z" transform="translate(97.19 214.00) scale(0.02600 -0.02600)"/><path d="M298 -162Q193 -162 133.0 -120.0Q73 -78 55 -10L187 -1Q197 -32 221.5 -48.5Q246 -65 298 -65Q357 -65 389.0 -38.5Q421 -12 421 44V112Q402 73 360.0 49.5Q318 26 266 26Q200 26 148.5 58.5Q97 91 68.0 149.5Q39 208 39 285Q39 362 68.0 420.5Q97 479 147.5 512.5Q198 546 264 546Q321 546 363.0 520.0Q405 494 425 451V534H550V47Q550 -56 481.0 -109.0Q412 -162 298 -162ZM296 126Q353 126 387.5 168.5Q422 211 422 286Q423 360 388.5 403.0Q354 446 296 446Q237 446 204.5 402.5Q172 359 172 286Q172 213 205.5 169.5Q239 126 296 126Z" transform="translate(112.56 214.00) scale(0.02600 -0.02600)"/><path d="M70 0V710H198V463Q220 505 260.0 525.5Q300 546 350 546Q439 546 485.0 489.5Q531 433 531 343V0H403V312Q403 442 312 442Q259 442 228.5 408.0Q198 374 198 309V0Z" transform="translate(128.68 214.00) scale(0.02600 -0.02600)"/><path d="M39 0V140H185V0Z" transform="translate(144.30 214.00) scale(0.02600 -0.02600)"/><path d="M216 0 21 534H156L292 129L428 534H563L368 0Z" transform="translate(150.15 214.00) scale(0.02600 -0.02600)"/><path d="M108 -150V-51H176Q202 -51 214.5 -43.0Q227 -35 234 -16L249 21H212L21 534H154L288 141L416 534H549L340 -56Q322 -106 289.5 -128.0Q257 -150 199 -150Z" transform="translate(165.34 214.00) scale(0.02600 -0.02600)"/><path d="M225 -12Q141 -12 90.0 26.0Q39 64 39 134Q39 203 82.0 242.0Q125 281 213 298L390 333Q390 447 287 447Q241 447 214.0 425.5Q187 404 178 364L48 370Q64 454 126.0 500.0Q188 546 287 546Q401 546 459.5 488.5Q518 431 518 324V130Q518 109 525.5 101.0Q533 93 548 93H565V0Q548 -4 518 -4Q475 -4 445.0 14.0Q415 32 407 81V82Q387 40 338.5 14.0Q290 -12 225 -12ZM251 81Q315 81 352.5 118.0Q390 155 390 216V246L252 218Q209 209 190.5 191.5Q172 174 172 146Q172 81 251 81Z" transform="translate(180.16 214.00) scale(0.02600 -0.02600)"/><path d="M287 -12Q165 -12 105.0 39.0Q45 90 39 168L170 174Q177 132 203.5 109.0Q230 86 288 86Q333 86 356.5 100.5Q380 115 380 146Q380 164 371.5 176.0Q363 188 338.5 197.0Q314 206 267 215Q186 229 140.0 249.5Q94 270 75.5 301.0Q57 332 57 378Q57 452 114.5 499.0Q172 546 283 546Q360 546 409.5 521.5Q459 497 484.5 456.5Q510 416 514 366L384 360Q382 398 358.0 423.0Q334 448 281 448Q236 448 212.5 430.0Q189 412 189 382Q189 350 211.5 334.5Q234 319 294 309Q376 297 424.0 276.0Q472 255 492.5 223.5Q513 192 513 148Q513 71 451.5 29.5Q390 -12 287 -12Z" transform="translate(195.24 214.00) scale(0.02600 -0.02600)"/><path d="M664 -71Q553 -117 429 -117Q307 -117 220.5 -74.0Q134 -31 88.5 50.5Q43 132 43 247Q43 350 76.5 435.0Q110 520 171.5 581.5Q233 643 317.5 676.5Q402 710 505 710Q624 710 713.0 666.0Q802 622 851.5 542.5Q901 463 901 355Q901 271 875.0 209.5Q849 148 803.0 114.0Q757 80 697 80Q651 80 621.0 100.5Q591 121 580 156L579 158Q555 121 513.0 98.0Q471 75 427 75Q340 75 292.5 125.5Q245 176 245 260Q245 329 271.0 384.0Q297 439 344.0 470.5Q391 502 453 502Q496 502 530.0 486.5Q564 471 581 444L586 498H686L668 296Q666 273 664.0 247.5Q662 222 662 204Q662 161 709 161Q758 161 785.5 209.5Q813 258 813 346Q813 484 734.0 556.0Q655 628 502 628Q391 628 307.5 581.0Q224 534 177.0 449.5Q130 365 130 252Q130 115 208.5 40.0Q287 -35 432 -35Q490 -35 541.5 -25.0Q593 -15 643 6ZM450 162Q490 162 516.5 182.5Q543 203 556.0 236.0Q569 269 569 306Q569 354 546.0 384.5Q523 415 474 415Q419 415 388.5 372.0Q358 329 358 269Q358 222 379.5 192.0Q401 162 450 162Z" transform="translate(209.62 214.00) scale(0.02600 -0.02600)"/><path d="M108 -150V-51H176Q202 -51 214.5 -43.0Q227 -35 234 -16L249 21H212L21 534H154L288 141L416 534H549L340 -56Q322 -106 289.5 -128.0Q257 -150 199 -150Z" transform="translate(234.16 214.00) scale(0.02600 -0.02600)"/><path d="M225 -12Q141 -12 90.0 26.0Q39 64 39 134Q39 203 82.0 242.0Q125 281 213 298L390 333Q390 447 287 447Q241 447 214.0 425.5Q187 404 178 364L48 370Q64 454 126.0 500.0Q188 546 287 546Q401 546 459.5 488.5Q518 431 518 324V130Q518 109 525.5 101.0Q533 93 548 93H565V0Q548 -4 518 -4Q475 -4 445.0 14.0Q415 32 407 81V82Q387 40 338.5 14.0Q290 -12 225 -12ZM251 81Q315 81 352.5 118.0Q390 155 390 216V246L252 218Q209 209 190.5 191.5Q172 174 172 146Q172 81 251 81Z" transform="translate(248.98 214.00) scale(0.02600 -0.02600)"/><path d="M70 0V710H198V463Q220 505 260.0 525.5Q300 546 350 546Q439 546 485.0 489.5Q531 433 531 343V0H403V312Q403 442 312 442Q259 442 228.5 408.0Q198 374 198 309V0Z" transform="translate(264.06 214.00) scale(0.02600 -0.02600)"/><path d="M302 -12Q223 -12 163.5 22.5Q104 57 71.5 119.5Q39 182 39 267Q39 352 71.5 414.5Q104 477 163.5 511.5Q223 546 302 546Q381 546 440.0 511.5Q499 477 531.5 414.5Q564 352 564 267Q564 182 531.5 119.5Q499 57 440.0 22.5Q381 -12 302 -12ZM302 92Q363 92 397.0 138.0Q431 184 431 267Q431 350 397.0 396.0Q363 442 302 442Q240 442 206.0 396.0Q172 350 172 267Q172 184 206.0 138.0Q240 92 302 92Z" transform="translate(279.69 214.00) scale(0.02600 -0.02600)"/><path d="M302 -12Q223 -12 163.5 22.5Q104 57 71.5 119.5Q39 182 39 267Q39 352 71.5 414.5Q104 477 163.5 511.5Q223 546 302 546Q381 546 440.0 511.5Q499 477 531.5 414.5Q564 352 564 267Q564 182 531.5 119.5Q499 57 440.0 22.5Q381 -12 302 -12ZM302 92Q363 92 397.0 138.0Q431 184 431 267Q431 350 397.0 396.0Q363 442 302 442Q240 442 206.0 396.0Q172 350 172 267Q172 184 206.0 138.0Q240 92 302 92Z" transform="translate(295.36 214.00) scale(0.02600 -0.02600)"/><path d="M39 0V140H185V0Z" transform="translate(311.04 214.00) scale(0.02600 -0.02600)"/><path d="M302 -12Q222 -12 163.0 22.5Q104 57 71.5 120.0Q39 183 39 267Q39 351 71.5 414.0Q104 477 163.0 511.5Q222 546 302 546Q404 546 471.5 493.0Q539 440 551 345L419 338Q411 389 379.5 415.5Q348 442 302 442Q240 442 206.0 396.0Q172 350 172 267Q172 184 206.0 138.0Q240 92 302 92Q349 92 380.5 119.0Q412 146 419 203L551 197Q540 101 472.5 44.5Q405 -12 302 -12Z" transform="translate(316.89 214.00) scale(0.02600 -0.02600)"/><path d="M302 -12Q223 -12 163.5 22.5Q104 57 71.5 119.5Q39 182 39 267Q39 352 71.5 414.5Q104 477 163.5 511.5Q223 546 302 546Q381 546 440.0 511.5Q499 477 531.5 414.5Q564 352 564 267Q564 182 531.5 119.5Q499 57 440.0 22.5Q381 -12 302 -12ZM302 92Q363 92 397.0 138.0Q431 184 431 267Q431 350 397.0 396.0Q363 442 302 442Q240 442 206.0 396.0Q172 350 172 267Q172 184 206.0 138.0Q240 92 302 92Z" transform="translate(331.97 214.00) scale(0.02600 -0.02600)"/><path d="M70 0V534H186L189 445Q209 493 247.5 519.5Q286 546 336 546Q395 546 434.5 517.0Q474 488 491 436Q509 490 548.5 518.0Q588 546 644 546Q727 546 774.5 494.0Q822 442 822 343V0H694V310Q694 442 603 442Q557 442 531.0 406.5Q505 371 505 306V0H386V306Q386 371 366.0 406.5Q346 442 297 442Q251 442 224.5 406.0Q198 370 198 306V0Z" transform="translate(347.65 214.00) scale(0.02600 -0.02600)"/></g><g fill="#8794b4"><path d="M90 0V710H290Q407 710 466.5 658.0Q526 606 526 516Q526 458 491.0 417.5Q456 377 397 366Q472 356 514.0 311.5Q556 267 556 198Q556 106 492.0 53.0Q428 0 315 0ZM176 403H294Q368 403 402.0 432.0Q436 461 436 514Q436 568 402.0 597.0Q368 626 294 626H176ZM176 84H316Q393 84 429.5 114.0Q466 144 466 198Q466 255 428.0 287.0Q390 319 316 319H176Z" transform="translate(74.00 242.00) scale(0.01300 -0.01300)"/><path d="M306 -12Q231 -12 176.5 22.0Q122 56 92.5 118.5Q63 181 63 265Q63 349 92.5 411.0Q122 473 175.5 507.5Q229 542 302 542Q371 542 424.0 509.5Q477 477 507.0 415.0Q537 353 537 264V239H151Q156 154 196.5 111.0Q237 68 306 68Q358 68 391.5 92.5Q425 117 438 157L528 150Q507 79 448.5 33.5Q390 -12 306 -12ZM151 313H445Q439 390 400.0 426.0Q361 462 302 462Q241 462 201.5 424.5Q162 387 151 313Z" transform="translate(82.80 242.00) scale(0.01300 -0.01300)"/><path d="M84 0V530H161L163 435Q184 489 230.5 515.5Q277 542 332 542Q393 542 433.5 515.0Q474 488 495.0 442.5Q516 397 516 341V0H432V317Q432 391 403.0 429.5Q374 468 314 468Q253 468 210.5 429.5Q168 391 168 317V0Z" transform="translate(91.60 242.00) scale(0.01300 -0.01300)"/><path d="M297 -162Q212 -162 152.0 -120.0Q92 -78 75 -8L163 -2Q175 -39 205.5 -60.5Q236 -82 297 -82Q369 -82 407.5 -53.0Q446 -24 446 34V120Q427 78 385.0 53.0Q343 28 291 28Q224 28 171.5 61.0Q119 94 89.5 152.0Q60 210 60 285Q60 361 89.0 418.5Q118 476 169.5 509.0Q221 542 287 542Q343 542 387.5 516.0Q432 490 450 446V530H530V36Q530 -57 468.5 -109.5Q407 -162 297 -162ZM295 108Q363 108 404.0 155.5Q445 203 446 285Q448 367 406.0 414.5Q364 462 295 462Q225 462 186.5 414.5Q148 367 148 285Q148 203 187.5 155.5Q227 108 295 108Z" transform="translate(100.40 242.00) scale(0.01300 -0.01300)"/><path d="M230 -12Q180 -12 140.0 6.0Q100 24 77.0 56.5Q54 89 54 132Q54 200 94.5 237.5Q135 275 222 292L400 328Q400 396 369.5 429.0Q339 462 282 462Q227 462 196.0 437.5Q165 413 153 367L64 374Q79 449 135.5 495.5Q192 542 282 542Q378 542 431.0 484.5Q484 427 484 326V106Q484 88 492.0 81.0Q500 74 516 74H550V0Q534 -2 506 -2Q464 -2 438.5 15.0Q413 32 404 70L403 75Q382 36 334.5 12.0Q287 -12 230 -12ZM238 62Q319 62 359.5 103.0Q400 144 400 210V256L238 224Q184 214 163.0 193.5Q142 173 142 140Q142 103 167.5 82.5Q193 62 238 62Z" transform="translate(109.20 242.00) scale(0.01300 -0.01300)"/><path d="M60 0V74H273V568Q273 600 255.0 618.0Q237 636 205 636H80V710H209Q357 710 357 562V74H540V0Z" transform="translate(118.00 242.00) scale(0.01300 -0.01300)"/><path d="M263 -12Q184 -12 137.0 41.5Q90 95 90 189V530H174V212Q174 135 201.5 98.5Q229 62 286 62Q348 62 384.0 102.5Q420 143 420 214V530H504V0H424V86Q380 -12 263 -12Z" transform="translate(126.80 242.00) scale(0.01300 -0.01300)"/><path d="M90 0V74H228V456H90V530H298L304 427Q329 530 431 530H540V454H432Q374 454 343.0 419.5Q312 385 312 320V74H480V0Z" transform="translate(135.60 242.00) scale(0.01300 -0.01300)"/><path d="M263 -12Q184 -12 137.0 41.5Q90 95 90 189V530H174V212Q174 135 201.5 98.5Q229 62 286 62Q348 62 384.0 102.5Q420 143 420 214V530H504V0H424V86Q380 -12 263 -12Z" transform="translate(144.40 242.00) scale(0.01300 -0.01300)"/><path d="M240 -162 294 0H240V122H360V10L300 -162Z" transform="translate(153.20 242.00) scale(0.01300 -0.01300)"/><path d="M80 0V84H257V626H80V710H520V626H343V84H520V0Z" transform="translate(170.80 242.00) scale(0.01300 -0.01300)"/><path d="M84 0V530H161L163 435Q184 489 230.5 515.5Q277 542 332 542Q393 542 433.5 515.0Q474 488 495.0 442.5Q516 397 516 341V0H432V317Q432 391 403.0 429.5Q374 468 314 468Q253 468 210.5 429.5Q168 391 168 317V0Z" transform="translate(179.60 242.00) scale(0.01300 -0.01300)"/><path d="M267 -12Q197 -12 146.0 22.0Q95 56 67.5 118.0Q40 180 40 265Q40 350 67.5 412.0Q95 474 146.0 508.0Q197 542 267 542Q323 542 365.0 515.5Q407 489 426 456V710H510V0H434L431 79Q408 36 365.0 12.0Q322 -12 267 -12ZM272 68Q344 68 385.0 121.0Q426 174 426 265Q426 357 385.0 409.5Q344 462 270 462Q205 462 166.5 409.5Q128 357 128 265Q128 174 166.5 121.0Q205 68 272 68Z" transform="translate(188.40 242.00) scale(0.01300 -0.01300)"/><path d="M80 0V74H293V456H90V530H377V74H560V0ZM285 613V711H373V613Z" transform="translate(197.20 242.00) scale(0.01300 -0.01300)"/><path d="M230 -12Q180 -12 140.0 6.0Q100 24 77.0 56.5Q54 89 54 132Q54 200 94.5 237.5Q135 275 222 292L400 328Q400 396 369.5 429.0Q339 462 282 462Q227 462 196.0 437.5Q165 413 153 367L64 374Q79 449 135.5 495.5Q192 542 282 542Q378 542 431.0 484.5Q484 427 484 326V106Q484 88 492.0 81.0Q500 74 516 74H550V0Q534 -2 506 -2Q464 -2 438.5 15.0Q413 32 404 70L403 75Q382 36 334.5 12.0Q287 -12 230 -12ZM238 62Q319 62 359.5 103.0Q400 144 400 210V256L238 224Q184 214 163.0 193.5Q142 173 142 140Q142 103 167.5 82.5Q193 62 238 62Z" transform="translate(206.00 242.00) scale(0.01300 -0.01300)"/></g><polyline points="840,200.0 844,203.0 848,205.9 852,208.6 856,211.1 860,213.3 864,215.1 868,216.6 872,217.5 876,218.0 880,217.9 884,217.4 888,216.4 892,214.9 896,213.0 900,210.8 904,208.2 908,205.5 912,202.5 916,199.5 920,196.6 924,193.7 928,191.0 932,188.5 936,186.4 940,184.6 944,183.3 948,182.4 952,182.0 956,182.1 960,182.7 964,183.8 968,185.4 972,187.3 976,189.6 980,192.2 984,195.0 988,197.9 992,200.9 996,203.9 1000,206.7 1004,209.4 1008,211.8 1012,213.9 1016,215.6 1020,216.9 1024,217.7 1028,218.0 1032,217.8 1036,217.1 1040,216.0 1044,214.4 1048,212.4 1052,210.0 1056,207.4 1060,204.6 1064,201.6 1068,198.6 1072,195.7 1076,192.8 1080,190.2 1084,187.8 1088,185.8 1092,184.2 1096,183.0 1100,182.2 1104,182.0 1108,182.3 1112,183.0 1116,184.2 1120,185.9 1124,188.0 1128,190.3 1132,193.0 1136,195.8 1140,198.8 1144,201.8 1148,204.7 1152,207.6 1156,210.2 1160,212.5 1164,214.5 1168,216.0 1172,217.2 1176,217.8" fill="none" stroke="#e8451c" stroke-width="2.4" stroke-linecap="round" opacity="0.55"/><g transform="translate(1076.00 52.00) scale(1.6667)" fill="none" stroke="#e8451c" stroke-width="1.7" stroke-linecap="round"><path d="M12 2.5 L12 21.5 M3.77 7.25 L20.23 16.75 M20.23 7.25 L3.77 16.75 M12 2.5 l-1.9 2 M12 2.5 l1.9 2 M12 21.5 l-1.9 -2 M12 21.5 l1.9 -2 M20.23 7.25 l-2.7 -0.3 M20.23 7.25 l-0.3 2.7 M3.77 16.75 l2.7 0.3 M3.77 16.75 l0.3 -2.7 M3.77 7.25 l2.7 -0.3 M3.77 7.25 l0.3 2.7 M20.23 16.75 l-2.7 0.3 M20.23 16.75 l-0.3 -2.7"/></g></svg>