<svg xmlns="http://www.w3.org/2000/svg" viewBox="0 0 592 298" width="592" height="298" font-family="sans-serif"><defs>
    <radialGradient id="flp5" cx="8%" cy="8%" r="62%">
      <stop offset="0%" stop-color="#e8451c" stop-opacity="0.20"/>
      <stop offset="62%" stop-color="#e8451c" stop-opacity="0"/>
    </radialGradient>
    <radialGradient id="inp5" cx="6%" cy="96%" r="70%">
      <stop offset="0%" stop-color="#16305e" stop-opacity="0.16"/>
      <stop offset="66%" stop-color="#16305e" stop-opacity="0"/>
    </radialGradient>
    <filter id="grp5" x="0" y="0" width="100%" height="100%">
      <feTurbulence type="fractalNoise" baseFrequency="0.9" numOctaves="2" stitchTiles="stitch" result="n"/>
      <feColorMatrix in="n" type="saturate" values="0"/>
    </filter>
    <pattern id="htp5" width="9" height="9" patternUnits="userSpaceOnUse">
      <circle cx="2" cy="2" r="1.9" fill="#e8451c"/>
    </pattern>
  </defs><rect x="0" y="0" width="592" height="298" fill="#f7e7c8"/><rect x="0" y="0" width="592" height="298" fill="url(#flp5)"/><rect x="0" y="0" width="592" height="298" fill="url(#inp5)"/><rect x="0" y="0" width="592" height="298" filter="url(#grp5)" opacity="0.2" style="mix-blend-mode:multiply"/><rect x="0.75" y="0.75" width="590.5" height="296.5" fill="none" stroke="#16305e" stroke-opacity="0.14" stroke-width="1.5"/><rect x="496" y="0" width="96" height="8" rx="0" fill="#16305e" opacity="0.9"/><g fill="#e8451c"><path d="M309 -16Q232 -16 174.5 15.0Q117 46 83.0 101.5Q49 157 43 231L151 238Q161 162 203.0 122.0Q245 82 313 82Q378 82 413.5 107.5Q449 133 449 181Q449 212 434.5 235.0Q420 258 380.5 278.0Q341 298 266 319Q193 339 147.5 364.5Q102 390 80.5 427.5Q59 465 59 520Q59 612 122.5 669.0Q186 726 298 726Q409 726 472.0 662.5Q535 599 545 496L437 490Q429 551 394.0 589.5Q359 628 295 628Q236 628 201.5 600.0Q167 572 167 525Q167 494 181.0 474.0Q195 454 230.0 438.0Q265 422 328 405Q413 382 463.0 352.0Q513 322 535.0 280.5Q557 239 557 181Q557 122 526.0 77.5Q495 33 439.5 8.5Q384 -16 309 -16Z" transform="translate(34.00 52.00) scale(0.01150 -0.01150)"/><path d="M67 0V710H288Q400 710 465.0 653.0Q530 596 530 498Q530 434 494.5 389.5Q459 345 410 330Q462 320 488.5 289.5Q515 259 520 202L538 0H433L417 182Q413 235 387.5 256.0Q362 277 296 277H172V0ZM172 375H286Q352 375 387.0 406.0Q422 437 422 493Q422 550 387.0 580.5Q352 611 286 611H172Z" transform="translate(42.70 52.00) scale(0.01150 -0.01150)"/><path d="M88 0V710H524V611H193V404H512V308H193V99H532V0Z" transform="translate(51.40 52.00) scale(0.01150 -0.01150)"/><path d="M260 86 149 548V0H48V710H188L300 251L412 710H552V0H451V548L340 86Z" transform="translate(68.80 52.00) scale(0.01150 -0.01150)"/><path d="M300 -16Q173 -16 104.5 80.0Q36 176 36 354Q36 533 104.5 629.5Q173 726 300 726Q427 726 495.5 629.5Q564 533 564 354Q564 176 495.5 80.0Q427 -16 300 -16ZM300 82Q375 82 415.0 150.5Q455 219 455 354Q455 489 415.0 558.5Q375 628 300 628Q225 628 185.0 558.5Q145 489 145 354Q145 219 185.0 150.5Q225 82 300 82Z" transform="translate(77.50 52.00) scale(0.01150 -0.01150)"/><path d="M68 0V710H196L429 149V710H532V0H404L171 561V0Z" transform="translate(86.20 52.00) scale(0.01150 -0.01150)"/><path d="M78 0V99H248V611H78V710H522V611H352V99H522V0Z" transform="translate(94.90 52.00) scale(0.01150 -0.01150)"/><path d="M248 0V611H40V710H560V611H352V0Z" transform="translate(103.60 52.00) scale(0.01150 -0.01150)"/><path d="M300 -16Q173 -16 104.5 80.0Q36 176 36 354Q36 533 104.5 629.5Q173 726 300 726Q427 726 495.5 629.5Q564 533 564 354Q564 176 495.5 80.0Q427 -16 300 -16ZM300 82Q375 82 415.0 150.5Q455 219 455 354Q455 489 415.0 558.5Q375 628 300 628Q225 628 185.0 558.5Q145 489 145 354Q145 219 185.0 150.5Q225 82 300 82Z" transform="translate(112.30 52.00) scale(0.01150 -0.01150)"/><path d="M67 0V710H288Q400 710 465.0 653.0Q530 596 530 498Q530 434 494.5 389.5Q459 345 410 330Q462 320 488.5 289.5Q515 259 520 202L538 0H433L417 182Q413 235 387.5 256.0Q362 277 296 277H172V0ZM172 375H286Q352 375 387.0 406.0Q422 437 422 493Q422 550 387.0 580.5Q352 611 286 611H172Z" transform="translate(121.00 52.00) scale(0.01150 -0.01150)"/><path d="M78 0V99H248V611H78V710H522V611H352V99H522V0Z" transform="translate(129.70 52.00) scale(0.01150 -0.01150)"/><path d="M68 0V710H196L429 149V710H532V0H404L171 561V0Z" transform="translate(138.40 52.00) scale(0.01150 -0.01150)"/><path d="M299 -16Q222 -16 163.0 26.5Q104 69 70.0 151.0Q36 233 36 354Q36 469 68.0 552.5Q100 636 159.5 681.0Q219 726 302 726Q402 726 467.0 662.0Q532 598 555 491L446 484Q431 549 395.5 588.0Q360 627 303 627Q227 627 186.0 556.0Q145 485 145 354Q145 223 187.5 153.0Q230 83 308 83Q377 83 416.5 134.5Q456 186 459 271H303V362H556V0H471L468 91Q445 43 403.5 13.5Q362 -16 299 -16Z" transform="translate(147.10 52.00) scale(0.01150 -0.01150)"/></g><g fill="#8794b4"><path d="M50 0Q50 75 73.5 135.5Q97 196 156.5 251.0Q216 306 322 362Q371 388 401.0 410.0Q431 432 445.0 457.0Q459 482 459 518Q459 573 423.5 607.5Q388 642 317 642Q242 642 198.5 603.0Q155 564 144 492L54 498Q66 602 134.0 664.0Q202 726 317 726Q427 726 488.0 669.0Q549 612 549 520Q549 466 531.0 426.5Q513 387 470.5 353.0Q428 319 354 280Q258 229 208.5 177.0Q159 125 156 84H550V0Z" transform="translate(529.20 52.00) scale(0.01200 -0.01200)"/><path d="M300 -16Q223 -16 166.5 29.0Q110 74 80.0 157.0Q50 240 50 354Q50 469 80.0 552.0Q110 635 166.5 680.5Q223 726 300 726Q378 726 434.0 680.5Q490 635 520.0 552.0Q550 469 550 354Q550 240 520.0 157.0Q490 74 434.0 29.0Q378 -16 300 -16ZM140 354Q140 254 165 184L393 599Q354 642 300 642Q226 642 183.0 564.5Q140 487 140 354ZM300 68Q374 68 417.0 145.5Q460 223 460 354Q460 455 435 525L207 111Q246 68 300 68Z" transform="translate(536.40 52.00) scale(0.01200 -0.01200)"/><path d="M50 0Q50 75 73.5 135.5Q97 196 156.5 251.0Q216 306 322 362Q371 388 401.0 410.0Q431 432 445.0 457.0Q459 482 459 518Q459 573 423.5 607.5Q388 642 317 642Q242 642 198.5 603.0Q155 564 144 492L54 498Q66 602 134.0 664.0Q202 726 317 726Q427 726 488.0 669.0Q549 612 549 520Q549 466 531.0 426.5Q513 387 470.5 353.0Q428 319 354 280Q258 229 208.5 177.0Q159 125 156 84H550V0Z" transform="translate(543.60 52.00) scale(0.01200 -0.01200)"/><path d="M298 -16Q229 -16 177.5 9.0Q126 34 95.5 79.0Q65 124 60 183L150 189Q158 129 197.5 98.5Q237 68 298 68Q367 68 408.5 110.5Q450 153 450 228Q450 303 410.5 346.5Q371 390 300 390Q258 390 219.5 369.5Q181 349 164 311H72L119 710H497V626H198L172 412Q198 442 236.0 457.0Q274 472 312 472Q380 472 431.5 440.5Q483 409 511.5 354.0Q540 299 540 228Q540 157 509.0 101.5Q478 46 423.5 15.0Q369 -16 298 -16Z" transform="translate(550.80 52.00) scale(0.01200 -0.01200)"/></g><g fill="#0d2148"><path d="M506 0V660H649V0ZM73 0V660H217V0ZM158 275V393H563V275Z" transform="translate(34.00 96.00) scale(0.03400 -0.03400)"/><path d="M310 -14Q245 -14 194.5 4.0Q144 22 109.0 56.0Q74 90 55.5 140.0Q37 190 37 253Q37 315 54.5 367.5Q72 420 106.0 458.5Q140 497 189.0 518.0Q238 539 300 539Q360 539 407.0 519.5Q454 500 485.5 461.0Q517 422 531.5 365.5Q546 309 542 236L130 232V311L459 314L408 274Q415 327 401.0 361.0Q387 395 360.5 411.0Q334 427 302 427Q264 427 235.0 407.0Q206 387 190.0 348.5Q174 310 174 256Q174 171 211.5 131.0Q249 91 310 91Q338 91 357.5 98.5Q377 106 389.5 118.0Q402 130 409.5 145.0Q417 160 422 175L547 148Q538 111 520.5 81.5Q503 52 474.0 30.5Q445 9 404.5 -2.5Q364 -14 310 -14Z" transform="translate(57.98 96.00) scale(0.03400 -0.03400)"/><path d="M189 -14Q145 -14 111.0 3.5Q77 21 58.0 54.0Q39 87 39 136Q39 179 55.5 208.0Q72 237 104.0 255.0Q136 273 183.0 285.0Q230 297 290 306Q322 311 342.5 315.5Q363 320 373.0 330.5Q383 341 383 361Q383 389 363.0 409.0Q343 429 300 429Q271 429 246.5 419.0Q222 409 204.5 389.0Q187 369 179 338L52 377Q64 418 86.5 448.0Q109 478 141.0 498.5Q173 519 214.0 529.0Q255 539 303 539Q380 539 428.5 514.5Q477 490 501.0 438.5Q525 387 525 306V216Q525 181 526.5 145.0Q528 109 530.5 72.5Q533 36 536 0H409Q405 25 401.5 57.5Q398 90 396 123H378Q364 85 338.0 54.0Q312 23 274.5 4.5Q237 -14 189 -14ZM250 90Q269 90 288.5 97.0Q308 104 326.5 116.5Q345 129 360.5 148.0Q376 167 386 191L384 275L407 270Q389 257 365.0 249.5Q341 242 315.5 238.0Q290 234 265.0 229.0Q240 224 220.5 216.0Q201 208 189.5 194.5Q178 181 178 157Q178 126 198.0 108.0Q218 90 250 90Z" transform="translate(77.14 96.00) scale(0.03400 -0.03400)"/><path d="M66 0V715H208V0Z" transform="translate(96.43 96.00) scale(0.03400 -0.03400)"/><path d="M261 -12Q173 -12 131.5 34.5Q90 81 90 183V412H14L16 525H69Q100 525 115.0 534.0Q130 543 133 567L146 642H228V525H361V408H228V189Q228 153 245.0 137.0Q262 121 297 121Q316 121 333.5 125.0Q351 129 364 138V4Q333 -6 307.0 -9.0Q281 -12 261 -12Z" transform="translate(105.14 96.00) scale(0.03400 -0.03400)"/><path d="M66 0V330V715H211V551Q211 531 209.5 509.0Q208 487 204.5 464.5Q201 442 197.5 419.0Q194 396 190 373H212Q226 424 247.5 461.0Q269 498 303.0 518.5Q337 539 389 539Q481 539 527.0 474.5Q573 410 573 277V0H428V255Q428 339 403.5 379.5Q379 420 330 420Q290 420 264.0 396.0Q238 372 225.0 331.5Q212 291 210 241V0Z" transform="translate(118.04 96.00) scale(0.03400 -0.03400)"/><path d="M213 0V660H357V0ZM18 539V660H552V539Z" transform="translate(138.89 96.00) scale(0.03400 -0.03400)"/><path d="M66 0V254V525H185L186 346H205Q213 413 232.5 455.0Q252 497 287.0 517.0Q322 537 374 537Q383 537 393.5 536.5Q404 536 418 533L412 380Q397 387 379.0 390.0Q361 393 347 393Q308 393 280.0 375.0Q252 357 234.5 323.5Q217 290 211 242V0Z" transform="translate(157.71 96.00) scale(0.03400 -0.03400)"/><path d="M189 -14Q145 -14 111.0 3.5Q77 21 58.0 54.0Q39 87 39 136Q39 179 55.5 208.0Q72 237 104.0 255.0Q136 273 183.0 285.0Q230 297 290 306Q322 311 342.5 315.5Q363 320 373.0 330.5Q383 341 383 361Q383 389 363.0 409.0Q343 429 300 429Q271 429 246.5 419.0Q222 409 204.5 389.0Q187 369 179 338L52 377Q64 418 86.5 448.0Q109 478 141.0 498.5Q173 519 214.0 529.0Q255 539 303 539Q380 539 428.5 514.5Q477 490 501.0 438.5Q525 387 525 306V216Q525 181 526.5 145.0Q528 109 530.5 72.5Q533 36 536 0H409Q405 25 401.5 57.5Q398 90 396 123H378Q364 85 338.0 54.0Q312 23 274.5 4.5Q237 -14 189 -14ZM250 90Q269 90 288.5 97.0Q308 104 326.5 116.5Q345 129 360.5 148.0Q376 167 386 191L384 275L407 270Q389 257 365.0 249.5Q341 242 315.5 238.0Q290 234 265.0 229.0Q240 224 220.5 216.0Q201 208 189.5 194.5Q178 181 178 157Q178 126 198.0 108.0Q218 90 250 90Z" transform="translate(171.86 96.00) scale(0.03400 -0.03400)"/><path d="M309 -14Q241 -14 190.0 6.0Q139 26 105.0 62.0Q71 98 54.0 147.5Q37 197 37 256Q37 318 54.5 369.5Q72 421 106.0 459.0Q140 497 190.0 518.0Q240 539 304 539Q368 539 415.5 518.0Q463 497 492.5 459.5Q522 422 533 371L400 328Q397 359 383.5 381.5Q370 404 347.5 415.5Q325 427 297 427Q268 427 247.0 415.5Q226 404 211.5 382.5Q197 361 189.5 330.5Q182 300 182 262Q182 208 196.5 170.5Q211 133 239.5 113.5Q268 94 310 94Q350 94 374.0 109.5Q398 125 409.5 149.5Q421 174 424 200L550 172Q545 133 528.5 99.0Q512 65 482.0 40.0Q452 15 409.5 0.5Q367 -14 309 -14Z" transform="translate(191.15 96.00) scale(0.03400 -0.03400)"/><path d="M66 0V715H208V318Q239 339 267.5 363.5Q296 388 319.5 415.0Q343 442 361.5 470.0Q380 498 393 525H558Q543 487 518.5 448.5Q494 410 460.5 377.5Q427 345 383.0 322.0Q339 299 286 291V274Q353 286 397.0 272.0Q441 258 469.5 227.5Q498 197 515.0 157.5Q532 118 546 78L569 0H412L399 49Q385 98 368.0 135.0Q351 172 323.5 192.5Q296 213 248 213H208V0Z" transform="translate(209.80 96.00) scale(0.03400 -0.03400)"/></g><g fill="#45568a"><path d="M20 0 276 710H392L648 0H554L483 202H185L114 0ZM214 286H454L334 635Z" transform="translate(34.00 128.00) scale(0.01550 -0.01550)"/><path d="M273 -12Q164 -12 107.0 38.5Q50 89 44 167L132 173Q140 125 171.5 96.5Q203 68 273 68Q327 68 356.5 85.5Q386 103 386 142Q386 163 376.5 177.0Q367 191 339.0 201.5Q311 212 257 222Q183 236 141.0 257.0Q99 278 82.0 308.0Q65 338 65 380Q65 451 117.5 496.5Q170 542 266 542Q336 542 380.5 517.5Q425 493 448.0 454.0Q471 415 476 372L388 366Q384 404 356.5 433.0Q329 462 264 462Q207 462 180.0 440.0Q153 418 153 384Q153 345 178.0 326.5Q203 308 273 296Q351 283 395.0 263.0Q439 243 456.5 213.5Q474 184 474 142Q474 69 417.5 28.5Q361 -12 273 -12Z" transform="translate(48.23 128.00) scale(0.01550 -0.01550)"/><path d="M80 0V530H164V0ZM78 613V711H166V613Z" transform="translate(56.29 128.00) scale(0.01550 -0.01550)"/><path d="M80 0V530H157L159 435Q180 490 223.5 516.0Q267 542 322 542Q383 542 422.5 515.0Q462 488 481.5 442.5Q501 397 501 341V0H417V317Q417 391 390.5 429.5Q364 468 304 468Q243 468 203.5 429.5Q164 391 164 317V0Z" transform="translate(60.07 128.00) scale(0.01550 -0.01550)"/><path d="M281 -162Q196 -162 136.0 -120.0Q76 -78 59 -8L147 -2Q159 -39 189.5 -60.5Q220 -82 281 -82Q353 -82 391.5 -53.0Q430 -24 430 34V120Q411 78 369.0 53.0Q327 28 275 28Q208 28 155.5 61.0Q103 94 73.5 152.0Q44 210 44 285Q44 361 73.0 418.5Q102 476 153.5 509.0Q205 542 271 542Q327 542 371.5 516.0Q416 490 434 446V530H514V36Q514 -57 452.5 -109.5Q391 -162 281 -162ZM279 108Q347 108 388.0 155.5Q429 203 430 285Q432 367 390.0 414.5Q348 462 279 462Q209 462 170.5 414.5Q132 367 132 285Q132 203 171.5 155.5Q211 108 279 108Z" transform="translate(69.08 128.00) scale(0.01550 -0.01550)"/><path d="M184 0Q138 0 109.0 24.0Q80 48 80 100V710H164V107Q164 74 197 74H243V0Z" transform="translate(78.28 128.00) scale(0.01550 -0.01550)"/><path d="M287 -12Q212 -12 157.5 22.0Q103 56 73.5 118.5Q44 181 44 265Q44 349 73.5 411.0Q103 473 156.5 507.5Q210 542 283 542Q352 542 405.0 509.5Q458 477 487.5 415.0Q517 353 517 264V239H132Q137 154 177.5 111.0Q218 68 287 68Q339 68 372.5 92.5Q406 117 419 157L509 150Q488 79 429.5 33.5Q371 -12 287 -12ZM132 313H425Q419 390 380.5 426.0Q342 462 283 462Q222 462 182.5 424.5Q143 387 132 313Z" transform="translate(82.42 128.00) scale(0.01550 -0.01550)"/><path d="M80 -150V530H158L159 449Q183 495 225.5 518.5Q268 542 322 542Q401 542 451.5 503.0Q502 464 526.5 401.0Q551 338 551 265Q551 192 526.5 129.0Q502 66 451.5 27.0Q401 -12 322 -12Q270 -12 227.5 10.0Q185 32 164 70V-150ZM314 68Q383 68 423.0 120.0Q463 172 463 265Q463 358 423.0 410.0Q383 462 314 462Q245 462 204.5 412.5Q164 363 164 265Q164 168 204.0 118.0Q244 68 314 68Z" transform="translate(94.99 128.00) scale(0.01550 -0.01550)"/><path d="M223 -12Q141 -12 92.5 26.0Q44 64 44 132Q44 200 84.0 239.0Q124 278 211 294L399 329Q399 462 273 462Q218 462 186.0 437.5Q154 413 142 367L53 374Q68 449 125.5 495.5Q183 542 273 542Q375 542 429.0 484.5Q483 427 483 326V107Q483 74 511 74H532V0Q520 -2 500 -2Q454 -2 430.5 16.5Q407 35 401 77L400 82Q380 41 331.0 14.5Q282 -12 223 -12ZM231 62Q311 62 355.0 107.0Q399 152 399 218V256L227 224Q173 214 152.5 193.5Q132 173 132 140Q132 103 158.5 82.5Q185 62 231 62Z" transform="translate(104.21 128.00) scale(0.01550 -0.01550)"/><path d="M80 0V530H157L159 435Q180 490 223.5 516.0Q267 542 322 542Q383 542 422.5 515.0Q462 488 481.5 442.5Q501 397 501 341V0H417V317Q417 391 390.5 429.5Q364 468 304 468Q243 468 203.5 429.5Q164 391 164 317V0Z" transform="translate(112.76 128.00) scale(0.01550 -0.01550)"/><path d="M287 -12Q212 -12 157.5 22.0Q103 56 73.5 118.5Q44 181 44 265Q44 349 73.5 411.0Q103 473 156.5 507.5Q210 542 283 542Q352 542 405.0 509.5Q458 477 487.5 415.0Q517 353 517 264V239H132Q137 154 177.5 111.0Q218 68 287 68Q339 68 372.5 92.5Q406 117 419 157L509 150Q488 79 429.5 33.5Q371 -12 287 -12ZM132 313H425Q419 390 380.5 426.0Q342 462 283 462Q222 462 182.5 424.5Q143 387 132 313Z" transform="translate(121.76 128.00) scale(0.01550 -0.01550)"/><path d="M287 -12Q214 -12 159.0 22.0Q104 56 74.0 118.5Q44 181 44 265Q44 350 74.0 412.0Q104 474 159.0 508.0Q214 542 287 542Q360 542 414.5 508.0Q469 474 499.0 412.0Q529 350 529 265Q529 181 499.0 118.5Q469 56 414.5 22.0Q360 -12 287 -12ZM287 68Q360 68 400.5 120.5Q441 173 441 265Q441 357 400.5 409.5Q360 462 287 462Q214 462 173.0 409.5Q132 357 132 265Q132 173 173.0 120.5Q214 68 287 68Z" transform="translate(134.33 128.00) scale(0.01550 -0.01550)"/><path d="M132 0V456H60V530H132V578Q132 637 166.0 673.5Q200 710 272 710H356V636H278Q247 636 231.5 619.0Q216 602 216 572V530H349V456H216V0Z" transform="translate(143.21 128.00) scale(0.01550 -0.01550)"/><path d="M281 -162Q196 -162 136.0 -120.0Q76 -78 59 -8L147 -2Q159 -39 189.5 -60.5Q220 -82 281 -82Q353 -82 391.5 -53.0Q430 -24 430 34V120Q411 78 369.0 53.0Q327 28 275 28Q208 28 155.5 61.0Q103 94 73.5 152.0Q44 210 44 285Q44 361 73.0 418.5Q102 476 153.5 509.0Q205 542 271 542Q327 542 371.5 516.0Q416 490 434 446V530H514V36Q514 -57 452.5 -109.5Q391 -162 281 -162ZM279 108Q347 108 388.0 155.5Q429 203 430 285Q432 367 390.0 414.5Q348 462 279 462Q209 462 170.5 414.5Q132 367 132 285Q132 203 171.5 155.5Q211 108 279 108Z" transform="translate(153.21 128.00) scale(0.01550 -0.01550)"/><path d="M184 0Q138 0 109.0 24.0Q80 48 80 100V710H164V107Q164 74 197 74H243V0Z" transform="translate(162.42 128.00) scale(0.01550 -0.01550)"/><path d="M223 -12Q141 -12 92.5 26.0Q44 64 44 132Q44 200 84.0 239.0Q124 278 211 294L399 329Q399 462 273 462Q218 462 186.0 437.5Q154 413 142 367L53 374Q68 449 125.5 495.5Q183 542 273 542Q375 542 429.0 484.5Q483 427 483 326V107Q483 74 511 74H532V0Q520 -2 500 -2Q454 -2 430.5 16.5Q407 35 401 77L400 82Q380 41 331.0 14.5Q282 -12 223 -12ZM231 62Q311 62 355.0 107.0Q399 152 399 218V256L227 224Q173 214 152.5 193.5Q132 173 132 140Q132 103 158.5 82.5Q185 62 231 62Z" transform="translate(166.56 128.00) scale(0.01550 -0.01550)"/><path d="M273 -12Q164 -12 107.0 38.5Q50 89 44 167L132 173Q140 125 171.5 96.5Q203 68 273 68Q327 68 356.5 85.5Q386 103 386 142Q386 163 376.5 177.0Q367 191 339.0 201.5Q311 212 257 222Q183 236 141.0 257.0Q99 278 82.0 308.0Q65 338 65 380Q65 451 117.5 496.5Q170 542 266 542Q336 542 380.5 517.5Q425 493 448.0 454.0Q471 415 476 372L388 366Q384 404 356.5 433.0Q329 462 264 462Q207 462 180.0 440.0Q153 418 153 384Q153 345 178.0 326.5Q203 308 273 296Q351 283 395.0 263.0Q439 243 456.5 213.5Q474 184 474 142Q474 69 417.5 28.5Q361 -12 273 -12Z" transform="translate(175.10 128.00) scale(0.01550 -0.01550)"/><path d="M273 -12Q164 -12 107.0 38.5Q50 89 44 167L132 173Q140 125 171.5 96.5Q203 68 273 68Q327 68 356.5 85.5Q386 103 386 142Q386 163 376.5 177.0Q367 191 339.0 201.5Q311 212 257 222Q183 236 141.0 257.0Q99 278 82.0 308.0Q65 338 65 380Q65 451 117.5 496.5Q170 542 266 542Q336 542 380.5 517.5Q425 493 448.0 454.0Q471 415 476 372L388 366Q384 404 356.5 433.0Q329 462 264 462Q207 462 180.0 440.0Q153 418 153 384Q153 345 178.0 326.5Q203 308 273 296Q351 283 395.0 263.0Q439 243 456.5 213.5Q474 184 474 142Q474 69 417.5 28.5Q361 -12 273 -12Z" transform="translate(183.16 128.00) scale(0.01550 -0.01550)"/><path d="M132 0V456H60V530H132V578Q132 637 166.0 673.5Q200 710 272 710H356V636H278Q247 636 231.5 619.0Q216 602 216 572V530H349V456H216V0Z" transform="translate(195.09 128.00) scale(0.01550 -0.01550)"/><path d="M287 -12Q214 -12 159.0 22.0Q104 56 74.0 118.5Q44 181 44 265Q44 350 74.0 412.0Q104 474 159.0 508.0Q214 542 287 542Q360 542 414.5 508.0Q469 474 499.0 412.0Q529 350 529 265Q529 181 499.0 118.5Q469 56 414.5 22.0Q360 -12 287 -12ZM287 68Q360 68 400.5 120.5Q441 173 441 265Q441 357 400.5 409.5Q360 462 287 462Q214 462 173.0 409.5Q132 357 132 265Q132 173 173.0 120.5Q214 68 287 68Z" transform="translate(201.21 128.00) scale(0.01550 -0.01550)"/><path d="M80 0V530H154L157 432Q184 530 283 530H335V450H284Q164 450 164 320V0Z" transform="translate(210.10 128.00) scale(0.01550 -0.01550)"/><path d="M273 -12Q164 -12 107.0 38.5Q50 89 44 167L132 173Q140 125 171.5 96.5Q203 68 273 68Q327 68 356.5 85.5Q386 103 386 142Q386 163 376.5 177.0Q367 191 339.0 201.5Q311 212 257 222Q183 236 141.0 257.0Q99 278 82.0 308.0Q65 338 65 380Q65 451 117.5 496.5Q170 542 266 542Q336 542 380.5 517.5Q425 493 448.0 454.0Q471 415 476 372L388 366Q384 404 356.5 433.0Q329 462 264 462Q207 462 180.0 440.0Q153 418 153 384Q153 345 178.0 326.5Q203 308 273 296Q351 283 395.0 263.0Q439 243 456.5 213.5Q474 184 474 142Q474 69 417.5 28.5Q361 -12 273 -12Z" transform="translate(219.84 128.00) scale(0.01550 -0.01550)"/><path d="M287 -12Q212 -12 157.5 22.0Q103 56 73.5 118.5Q44 181 44 265Q44 349 73.5 411.0Q103 473 156.5 507.5Q210 542 283 542Q352 542 405.0 509.5Q458 477 487.5 415.0Q517 353 517 264V239H132Q137 154 177.5 111.0Q218 68 287 68Q339 68 372.5 92.5Q406 117 419 157L509 150Q488 79 429.5 33.5Q371 -12 287 -12ZM132 313H425Q419 390 380.5 426.0Q342 462 283 462Q222 462 182.5 424.5Q143 387 132 313Z" transform="translate(227.90 128.00) scale(0.01550 -0.01550)"/><path d="M80 0V530H154L157 432Q184 530 283 530H335V450H284Q164 450 164 320V0Z" transform="translate(236.60 128.00) scale(0.01550 -0.01550)"/><path d="M215 0 22 530H114L268 86L422 530H514L321 0Z" transform="translate(242.47 128.00) scale(0.01550 -0.01550)"/><path d="M80 0V530H164V0ZM78 613V711H166V613Z" transform="translate(250.78 128.00) scale(0.01550 -0.01550)"/><path d="M287 -12Q213 -12 158.5 22.0Q104 56 74.0 118.5Q44 181 44 265Q44 349 74.0 411.0Q104 473 158.5 507.5Q213 542 287 542Q379 542 439.0 494.5Q499 447 512 358L424 352Q415 405 378.0 433.5Q341 462 287 462Q214 462 173.0 409.5Q132 357 132 265Q132 173 173.0 120.5Q214 68 287 68Q341 68 378.0 98.0Q415 128 424 188L512 182Q499 94 439.0 41.0Q379 -12 287 -12Z" transform="translate(254.56 128.00) scale(0.01550 -0.01550)"/><path d="M287 -12Q212 -12 157.5 22.0Q103 56 73.5 118.5Q44 181 44 265Q44 349 73.5 411.0Q103 473 156.5 507.5Q210 542 283 542Q352 542 405.0 509.5Q458 477 487.5 415.0Q517 353 517 264V239H132Q137 154 177.5 111.0Q218 68 287 68Q339 68 372.5 92.5Q406 117 419 157L509 150Q488 79 429.5 33.5Q371 -12 287 -12ZM132 313H425Q419 390 380.5 426.0Q342 462 283 462Q222 462 182.5 424.5Q143 387 132 313Z" transform="translate(263.03 128.00) scale(0.01550 -0.01550)"/><path d="M80 0V710H164V447Q185 496 227.0 519.0Q269 542 324 542Q410 542 455.5 486.0Q501 430 501 341V0H417V317Q417 468 306 468Q242 468 203.0 429.0Q164 390 164 316V0Z" transform="translate(275.60 128.00) scale(0.01550 -0.01550)"/><path d="M287 -12Q212 -12 157.5 22.0Q103 56 73.5 118.5Q44 181 44 265Q44 349 73.5 411.0Q103 473 156.5 507.5Q210 542 283 542Q352 542 405.0 509.5Q458 477 487.5 415.0Q517 353 517 264V239H132Q137 154 177.5 111.0Q218 68 287 68Q339 68 372.5 92.5Q406 117 419 157L509 150Q488 79 429.5 33.5Q371 -12 287 -12ZM132 313H425Q419 390 380.5 426.0Q342 462 283 462Q222 462 182.5 424.5Q143 387 132 313Z" transform="translate(284.60 128.00) scale(0.01550 -0.01550)"/><path d="M223 -12Q141 -12 92.5 26.0Q44 64 44 132Q44 200 84.0 239.0Q124 278 211 294L399 329Q399 462 273 462Q218 462 186.0 437.5Q154 413 142 367L53 374Q68 449 125.5 495.5Q183 542 273 542Q375 542 429.0 484.5Q483 427 483 326V107Q483 74 511 74H532V0Q520 -2 500 -2Q454 -2 430.5 16.5Q407 35 401 77L400 82Q380 41 331.0 14.5Q282 -12 223 -12ZM231 62Q311 62 355.0 107.0Q399 152 399 218V256L227 224Q173 214 152.5 193.5Q132 173 132 140Q132 103 158.5 82.5Q185 62 231 62Z" transform="translate(293.30 128.00) scale(0.01550 -0.01550)"/><path d="M184 0Q138 0 109.0 24.0Q80 48 80 100V710H164V107Q164 74 197 74H243V0Z" transform="translate(301.84 128.00) scale(0.01550 -0.01550)"/><path d="M274 0Q202 0 167.5 33.0Q133 66 133 136V456H55V530H133V654H217V530H358V456H217V138Q217 102 233.0 88.0Q249 74 282 74H358V0Z" transform="translate(305.98 128.00) scale(0.01550 -0.01550)"/><path d="M80 0V710H164V447Q185 496 227.0 519.0Q269 542 324 542Q410 542 455.5 486.0Q501 430 501 341V0H417V317Q417 468 306 468Q242 468 203.0 429.0Q164 390 164 316V0Z" transform="translate(312.05 128.00) scale(0.01550 -0.01550)"/><path d="M47 -156 95 0H44V113H157V14L97 -156Z" transform="translate(321.06 128.00) scale(0.01550 -0.01550)"/><path d="M186 0 22 530H114L238 88L364 530H454L580 88L705 530H797L633 0H527L409 403L291 0Z" transform="translate(328.05 128.00) scale(0.01550 -0.01550)"/><path d="M80 0V530H164V0ZM78 613V711H166V613Z" transform="translate(340.75 128.00) scale(0.01550 -0.01550)"/><path d="M274 0Q202 0 167.5 33.0Q133 66 133 136V456H55V530H133V654H217V530H358V456H217V138Q217 102 233.0 88.0Q249 74 282 74H358V0Z" transform="translate(344.53 128.00) scale(0.01550 -0.01550)"/><path d="M80 0V710H164V447Q185 496 227.0 519.0Q269 542 324 542Q410 542 455.5 486.0Q501 430 501 341V0H417V317Q417 468 306 468Q242 468 203.0 429.0Q164 390 164 316V0Z" transform="translate(350.60 128.00) scale(0.01550 -0.01550)"/><path d="M274 0Q202 0 167.5 33.0Q133 66 133 136V456H55V530H133V654H217V530H358V456H217V138Q217 102 233.0 88.0Q249 74 282 74H358V0Z" transform="translate(363.48 128.00) scale(0.01550 -0.01550)"/><path d="M80 0V710H164V447Q185 496 227.0 519.0Q269 542 324 542Q410 542 455.5 486.0Q501 430 501 341V0H417V317Q417 468 306 468Q242 468 203.0 429.0Q164 390 164 316V0Z" transform="translate(369.56 128.00) scale(0.01550 -0.01550)"/><path d="M287 -12Q212 -12 157.5 22.0Q103 56 73.5 118.5Q44 181 44 265Q44 349 73.5 411.0Q103 473 156.5 507.5Q210 542 283 542Q352 542 405.0 509.5Q458 477 487.5 415.0Q517 353 517 264V239H132Q137 154 177.5 111.0Q218 68 287 68Q339 68 372.5 92.5Q406 117 419 157L509 150Q488 79 429.5 33.5Q371 -12 287 -12ZM132 313H425Q419 390 380.5 426.0Q342 462 283 462Q222 462 182.5 424.5Q143 387 132 313Z" transform="translate(378.56 128.00) scale(0.01550 -0.01550)"/><path d="M336 -16Q254 -16 193.0 15.0Q132 46 96.5 100.5Q61 155 55 227L145 233Q156 154 204.5 111.0Q253 68 338 68Q412 68 453.5 96.5Q495 125 495 180Q495 213 479.5 238.5Q464 264 420.5 285.5Q377 307 292 328Q210 349 161.5 374.0Q113 399 91.5 435.0Q70 471 70 524Q70 584 98.5 629.5Q127 675 180.0 700.5Q233 726 306 726Q384 726 440.0 696.5Q496 667 529.0 616.0Q562 565 570 500L480 494Q471 559 427.5 600.5Q384 642 304 642Q238 642 199.0 610.5Q160 579 160 528Q160 495 175.5 473.5Q191 452 231.0 435.5Q271 419 346 400Q435 378 487.5 347.5Q540 317 562.5 277.0Q585 237 585 186Q585 124 553.0 78.5Q521 33 465.0 8.5Q409 -16 336 -16Z" transform="translate(391.14 128.00) scale(0.01550 -0.01550)"/><path d="M92 0V710H361Q473 710 538.0 652.0Q603 594 603 495Q603 454 586.0 420.5Q569 387 542.0 364.0Q515 341 483 332Q530 324 557.5 294.0Q585 264 590 209L610 0H523L505 200Q501 244 473.5 265.0Q446 286 384 286H178V0ZM178 370H372Q437 370 475.0 403.0Q513 436 513 497Q513 559 474.0 592.5Q435 626 361 626H178Z" transform="translate(401.06 128.00) scale(0.01550 -0.01550)"/><path d="M92 0V710H538V626H178V397H526V315H178V84H546V0Z" transform="translate(411.47 128.00) scale(0.01550 -0.01550)"/><path d="M80 0V530H157L159 437Q179 486 218.0 514.0Q257 542 308 542Q368 542 409.0 513.0Q450 484 467 431Q484 484 524.0 513.0Q564 542 622 542Q707 542 752.0 489.5Q797 437 797 341V0H713V323Q713 468 602 468Q547 468 513.5 428.0Q480 388 480 317V0H396V317Q396 388 371.0 428.0Q346 468 287 468Q232 468 198.0 428.0Q164 388 164 317V0Z" transform="translate(424.69 128.00) scale(0.01550 -0.01550)"/><path d="M223 -12Q141 -12 92.5 26.0Q44 64 44 132Q44 200 84.0 239.0Q124 278 211 294L399 329Q399 462 273 462Q218 462 186.0 437.5Q154 413 142 367L53 374Q68 449 125.5 495.5Q183 542 273 542Q375 542 429.0 484.5Q483 427 483 326V107Q483 74 511 74H532V0Q520 -2 500 -2Q454 -2 430.5 16.5Q407 35 401 77L400 82Q380 41 331.0 14.5Q282 -12 223 -12ZM231 62Q311 62 355.0 107.0Q399 152 399 218V256L227 224Q173 214 152.5 193.5Q132 173 132 140Q132 103 158.5 82.5Q185 62 231 62Z" transform="translate(438.29 128.00) scale(0.01550 -0.01550)"/><path d="M274 0Q202 0 167.5 33.0Q133 66 133 136V456H55V530H133V654H217V530H358V456H217V138Q217 102 233.0 88.0Q249 74 282 74H358V0Z" transform="translate(446.83 128.00) scale(0.01550 -0.01550)"/><path d="M80 0V710H164V447Q185 496 227.0 519.0Q269 542 324 542Q410 542 455.5 486.0Q501 430 501 341V0H417V317Q417 468 306 468Q242 468 203.0 429.0Q164 390 164 316V0Z" transform="translate(452.90 128.00) scale(0.01550 -0.01550)"/><path d="M268 -12Q199 -12 148.5 22.0Q98 56 71.0 118.0Q44 180 44 265Q44 350 71.0 412.0Q98 474 148.5 508.0Q199 542 268 542Q321 542 365.0 519.5Q409 497 431 456V710H515V0H439L436 80Q414 37 369.0 12.5Q324 -12 268 -12ZM285 68Q356 68 393.5 121.0Q431 174 431 265Q431 357 393.5 409.5Q356 462 285 462Q215 462 173.5 409.5Q132 357 132 265Q132 174 173.5 121.0Q215 68 285 68Z" transform="translate(465.78 128.00) scale(0.01550 -0.01550)"/><path d="M287 -12Q214 -12 159.0 22.0Q104 56 74.0 118.5Q44 181 44 265Q44 350 74.0 412.0Q104 474 159.0 508.0Q214 542 287 542Q360 542 414.5 508.0Q469 474 499.0 412.0Q529 350 529 265Q529 181 499.0 118.5Q469 56 414.5 22.0Q360 -12 287 -12ZM287 68Q360 68 400.5 120.5Q441 173 441 265Q441 357 400.5 409.5Q360 462 287 462Q214 462 173.0 409.5Q132 357 132 265Q132 173 173.0 120.5Q214 68 287 68Z" transform="translate(475.01 128.00) scale(0.01550 -0.01550)"/><path d="M80 0V530H157L159 435Q180 490 223.5 516.0Q267 542 322 542Q383 542 422.5 515.0Q462 488 481.5 442.5Q501 397 501 341V0H417V317Q417 391 390.5 429.5Q364 468 304 468Q243 468 203.5 429.5Q164 391 164 317V0Z" transform="translate(483.89 128.00) scale(0.01550 -0.01550)"/><path d="M287 -12Q212 -12 157.5 22.0Q103 56 73.5 118.5Q44 181 44 265Q44 349 73.5 411.0Q103 473 156.5 507.5Q210 542 283 542Q352 542 405.0 509.5Q458 477 487.5 415.0Q517 353 517 264V239H132Q137 154 177.5 111.0Q218 68 287 68Q339 68 372.5 92.5Q406 117 419 157L509 150Q488 79 429.5 33.5Q371 -12 287 -12ZM132 313H425Q419 390 380.5 426.0Q342 462 283 462Q222 462 182.5 424.5Q143 387 132 313Z" transform="translate(492.89 128.00) scale(0.01550 -0.01550)"/><path d="M132 0V456H60V530H132V578Q132 637 166.0 673.5Q200 710 272 710H356V636H278Q247 636 231.5 619.0Q216 602 216 572V530H349V456H216V0Z" transform="translate(505.46 128.00) scale(0.01550 -0.01550)"/><path d="M287 -12Q214 -12 159.0 22.0Q104 56 74.0 118.5Q44 181 44 265Q44 350 74.0 412.0Q104 474 159.0 508.0Q214 542 287 542Q360 542 414.5 508.0Q469 474 499.0 412.0Q529 350 529 265Q529 181 499.0 118.5Q469 56 414.5 22.0Q360 -12 287 -12ZM287 68Q360 68 400.5 120.5Q441 173 441 265Q441 357 400.5 409.5Q360 462 287 462Q214 462 173.0 409.5Q132 357 132 265Q132 173 173.0 120.5Q214 68 287 68Z" transform="translate(511.59 128.00) scale(0.01550 -0.01550)"/><path d="M80 0V530H154L157 432Q184 530 283 530H335V450H284Q164 450 164 320V0Z" transform="translate(520.47 128.00) scale(0.01550 -0.01550)"/></g><g fill="#45568a"><path d="M103 -150V-76H164Q192 -76 205.5 -67.5Q219 -59 226 -40L245 10H216L22 530H114L272 88L423 530H515L300 -67Q285 -110 255.0 -130.0Q225 -150 172 -150Z" transform="translate(34.00 151.00) scale(0.01550 -0.01550)"/><path d="M287 -12Q214 -12 159.0 22.0Q104 56 74.0 118.5Q44 181 44 265Q44 350 74.0 412.0Q104 474 159.0 508.0Q214 542 287 542Q360 542 414.5 508.0Q469 474 499.0 412.0Q529 350 529 265Q529 181 499.0 118.5Q469 56 414.5 22.0Q360 -12 287 -12ZM287 68Q360 68 400.5 120.5Q441 173 441 265Q441 357 400.5 409.5Q360 462 287 462Q214 462 173.0 409.5Q132 357 132 265Q132 173 173.0 120.5Q214 68 287 68Z" transform="translate(42.32 151.00) scale(0.01550 -0.01550)"/><path d="M254 -12Q175 -12 127.5 41.5Q80 95 80 189V530H164V212Q164 135 191.5 98.5Q219 62 276 62Q339 62 375.0 102.5Q411 143 411 214V530H495V0H415V86Q371 -12 254 -12Z" transform="translate(51.20 151.00) scale(0.01550 -0.01550)"/><path d="M223 -12Q141 -12 92.5 26.0Q44 64 44 132Q44 200 84.0 239.0Q124 278 211 294L399 329Q399 462 273 462Q218 462 186.0 437.5Q154 413 142 367L53 374Q68 449 125.5 495.5Q183 542 273 542Q375 542 429.0 484.5Q483 427 483 326V107Q483 74 511 74H532V0Q520 -2 500 -2Q454 -2 430.5 16.5Q407 35 401 77L400 82Q380 41 331.0 14.5Q282 -12 223 -12ZM231 62Q311 62 355.0 107.0Q399 152 399 218V256L227 224Q173 214 152.5 193.5Q132 173 132 140Q132 103 158.5 82.5Q185 62 231 62Z" transform="translate(63.99 151.00) scale(0.01550 -0.01550)"/><path d="M80 0V530H157L159 435Q180 490 223.5 516.0Q267 542 322 542Q383 542 422.5 515.0Q462 488 481.5 442.5Q501 397 501 341V0H417V317Q417 391 390.5 429.5Q364 468 304 468Q243 468 203.5 429.5Q164 391 164 317V0Z" transform="translate(72.53 151.00) scale(0.01550 -0.01550)"/><path d="M268 -12Q199 -12 148.5 22.0Q98 56 71.0 118.0Q44 180 44 265Q44 350 71.0 412.0Q98 474 148.5 508.0Q199 542 268 542Q321 542 365.0 519.5Q409 497 431 456V710H515V0H439L436 80Q414 37 369.0 12.5Q324 -12 268 -12ZM285 68Q356 68 393.5 121.0Q431 174 431 265Q431 357 393.5 409.5Q356 462 285 462Q215 462 173.5 409.5Q132 357 132 265Q132 174 173.5 121.0Q215 68 285 68Z" transform="translate(81.54 151.00) scale(0.01550 -0.01550)"/><path d="M273 -12Q164 -12 107.0 38.5Q50 89 44 167L132 173Q140 125 171.5 96.5Q203 68 273 68Q327 68 356.5 85.5Q386 103 386 142Q386 163 376.5 177.0Q367 191 339.0 201.5Q311 212 257 222Q183 236 141.0 257.0Q99 278 82.0 308.0Q65 338 65 380Q65 451 117.5 496.5Q170 542 266 542Q336 542 380.5 517.5Q425 493 448.0 454.0Q471 415 476 372L388 366Q384 404 356.5 433.0Q329 462 264 462Q207 462 180.0 440.0Q153 418 153 384Q153 345 178.0 326.5Q203 308 273 296Q351 283 395.0 263.0Q439 243 456.5 213.5Q474 184 474 142Q474 69 417.5 28.5Q361 -12 273 -12Z" transform="translate(94.64 151.00) scale(0.01550 -0.01550)"/><path d="M274 0Q202 0 167.5 33.0Q133 66 133 136V456H55V530H133V654H217V530H358V456H217V138Q217 102 233.0 88.0Q249 74 282 74H358V0Z" transform="translate(102.70 151.00) scale(0.01550 -0.01550)"/><path d="M80 0V530H154L157 432Q184 530 283 530H335V450H284Q164 450 164 320V0Z" transform="translate(108.77 151.00) scale(0.01550 -0.01550)"/><path d="M287 -12Q212 -12 157.5 22.0Q103 56 73.5 118.5Q44 181 44 265Q44 349 73.5 411.0Q103 473 156.5 507.5Q210 542 283 542Q352 542 405.0 509.5Q458 477 487.5 415.0Q517 353 517 264V239H132Q137 154 177.5 111.0Q218 68 287 68Q339 68 372.5 92.5Q406 117 419 157L509 150Q488 79 429.5 33.5Q371 -12 287 -12ZM132 313H425Q419 390 380.5 426.0Q342 462 283 462Q222 462 182.5 424.5Q143 387 132 313Z" transform="translate(114.65 151.00) scale(0.01550 -0.01550)"/><path d="M223 -12Q141 -12 92.5 26.0Q44 64 44 132Q44 200 84.0 239.0Q124 278 211 294L399 329Q399 462 273 462Q218 462 186.0 437.5Q154 413 142 367L53 374Q68 449 125.5 495.5Q183 542 273 542Q375 542 429.0 484.5Q483 427 483 326V107Q483 74 511 74H532V0Q520 -2 500 -2Q454 -2 430.5 16.5Q407 35 401 77L400 82Q380 41 331.0 14.5Q282 -12 223 -12ZM231 62Q311 62 355.0 107.0Q399 152 399 218V256L227 224Q173 214 152.5 193.5Q132 173 132 140Q132 103 158.5 82.5Q185 62 231 62Z" transform="translate(123.34 151.00) scale(0.01550 -0.01550)"/><path d="M80 0V530H157L159 437Q179 486 218.0 514.0Q257 542 308 542Q368 542 409.0 513.0Q450 484 467 431Q484 484 524.0 513.0Q564 542 622 542Q707 542 752.0 489.5Q797 437 797 341V0H713V323Q713 468 602 468Q547 468 513.5 428.0Q480 388 480 317V0H396V317Q396 388 371.0 428.0Q346 468 287 468Q232 468 198.0 428.0Q164 388 164 317V0Z" transform="translate(131.88 151.00) scale(0.01550 -0.01550)"/><path d="M287 -12Q212 -12 157.5 22.0Q103 56 73.5 118.5Q44 181 44 265Q44 349 73.5 411.0Q103 473 156.5 507.5Q210 542 283 542Q352 542 405.0 509.5Q458 477 487.5 415.0Q517 353 517 264V239H132Q137 154 177.5 111.0Q218 68 287 68Q339 68 372.5 92.5Q406 117 419 157L509 150Q488 79 429.5 33.5Q371 -12 287 -12ZM132 313H425Q419 390 380.5 426.0Q342 462 283 462Q222 462 182.5 424.5Q143 387 132 313Z" transform="translate(145.48 151.00) scale(0.01550 -0.01550)"/><path d="M268 -12Q199 -12 148.5 22.0Q98 56 71.0 118.0Q44 180 44 265Q44 350 71.0 412.0Q98 474 148.5 508.0Q199 542 268 542Q321 542 365.0 519.5Q409 497 431 456V710H515V0H439L436 80Q414 37 369.0 12.5Q324 -12 268 -12ZM285 68Q356 68 393.5 121.0Q431 174 431 265Q431 357 393.5 409.5Q356 462 285 462Q215 462 173.5 409.5Q132 357 132 265Q132 174 173.5 121.0Q215 68 285 68Z" transform="translate(154.17 151.00) scale(0.01550 -0.01550)"/><path d="M184 0Q138 0 109.0 24.0Q80 48 80 100V710H164V107Q164 74 197 74H243V0Z" transform="translate(167.27 151.00) scale(0.01550 -0.01550)"/><path d="M80 0V530H164V0ZM78 613V711H166V613Z" transform="translate(171.41 151.00) scale(0.01550 -0.01550)"/><path d="M215 0 22 530H114L268 86L422 530H514L321 0Z" transform="translate(175.19 151.00) scale(0.01550 -0.01550)"/><path d="M287 -12Q212 -12 157.5 22.0Q103 56 73.5 118.5Q44 181 44 265Q44 349 73.5 411.0Q103 473 156.5 507.5Q210 542 283 542Q352 542 405.0 509.5Q458 477 487.5 415.0Q517 353 517 264V239H132Q137 154 177.5 111.0Q218 68 287 68Q339 68 372.5 92.5Q406 117 419 157L509 150Q488 79 429.5 33.5Q371 -12 287 -12ZM132 313H425Q419 390 380.5 426.0Q342 462 283 462Q222 462 182.5 424.5Q143 387 132 313Z" transform="translate(183.50 151.00) scale(0.01550 -0.01550)"/><path d="M44 0V113H157V0Z" transform="translate(192.19 151.00) scale(0.01550 -0.01550)"/></g><rect x="34.0" y="202.0" width="87.0" height="22.5" rx="11.2" fill="#f0d6a4" stroke="#e6c78f" stroke-width="1.2"/><g fill="#16305e"><path d="M257 0V626H40V710H560V626H343V0Z" transform="translate(43.00 217.16) scale(0.01150 -0.01150)"/><path d="M136 -150V-76H197Q225 -76 238.5 -67.5Q252 -59 259 -40L278 10H249L52 530H144L305 88L456 530H548L333 -67Q318 -110 288.0 -130.0Q258 -150 205 -150Z" transform="translate(49.90 217.16) scale(0.01150 -0.01150)"/><path d="M80 -150V530H158L159 445Q183 492 225.5 517.0Q268 542 322 542Q401 542 451.5 503.0Q502 464 526.0 401.0Q550 338 550 265Q550 192 526.0 129.0Q502 66 451.5 27.0Q401 -12 322 -12Q270 -12 227.5 10.0Q185 32 164 70V-150ZM314 68Q383 68 422.5 120.0Q462 172 462 265Q462 358 422.5 410.0Q383 462 314 462Q245 462 204.5 412.5Q164 363 164 265Q164 168 204.0 118.0Q244 68 314 68Z" transform="translate(56.80 217.16) scale(0.01150 -0.01150)"/><path d="M306 -12Q231 -12 176.5 22.0Q122 56 92.5 118.5Q63 181 63 265Q63 349 92.5 411.0Q122 473 175.5 507.5Q229 542 302 542Q371 542 424.0 509.5Q477 477 507.0 415.0Q537 353 537 264V239H151Q156 154 196.5 111.0Q237 68 306 68Q358 68 391.5 92.5Q425 117 438 157L528 150Q507 79 448.5 33.5Q390 -12 306 -12ZM151 313H445Q439 390 400.0 426.0Q361 462 302 462Q241 462 201.5 424.5Q162 387 151 313Z" transform="translate(63.70 217.16) scale(0.01150 -0.01150)"/><path d="M311 -16Q236 -16 178.0 15.0Q120 46 85.0 100.5Q50 155 44 227L134 233Q145 154 191.5 111.0Q238 68 313 68Q387 68 426.5 96.5Q466 125 466 177Q466 211 450.5 235.5Q435 260 392.5 281.5Q350 303 267 326Q193 347 147.5 372.5Q102 398 81.5 434.5Q61 471 61 524Q61 584 89.5 629.5Q118 675 171.0 700.5Q224 726 297 726Q370 726 422.0 696.5Q474 667 504.5 616.0Q535 565 543 500L453 494Q444 559 405.5 600.5Q367 642 295 642Q229 642 190.0 610.5Q151 579 151 528Q151 495 165.5 473.5Q180 452 217.0 435.5Q254 419 321 400Q408 376 459.5 346.0Q511 316 533.5 275.0Q556 234 556 175Q556 119 525.0 75.5Q494 32 439.0 8.0Q384 -16 311 -16Z" transform="translate(70.60 217.16) scale(0.01150 -0.01150)"/><path d="M314 -12Q240 -12 185.0 22.0Q130 56 100.0 118.5Q70 181 70 265Q70 349 100.0 411.0Q130 473 185.0 507.5Q240 542 314 542Q403 542 461.5 494.5Q520 447 536 358L448 352Q436 405 400.5 433.5Q365 462 314 462Q241 462 199.5 409.5Q158 357 158 265Q158 173 199.5 120.5Q241 68 314 68Q365 68 402.5 98.0Q440 128 452 188L540 182Q524 94 463.5 41.0Q403 -12 314 -12Z" transform="translate(77.50 217.16) scale(0.01150 -0.01150)"/><path d="M90 0V74H228V456H90V530H298L304 427Q329 530 431 530H540V454H432Q374 454 343.0 419.5Q312 385 312 320V74H480V0Z" transform="translate(84.40 217.16) scale(0.01150 -0.01150)"/><path d="M80 0V74H293V456H90V530H377V74H560V0ZM285 613V711H373V613Z" transform="translate(91.30 217.16) scale(0.01150 -0.01150)"/><path d="M80 -150V530H158L159 445Q183 492 225.5 517.0Q268 542 322 542Q401 542 451.5 503.0Q502 464 526.0 401.0Q550 338 550 265Q550 192 526.0 129.0Q502 66 451.5 27.0Q401 -12 322 -12Q270 -12 227.5 10.0Q185 32 164 70V-150ZM314 68Q383 68 422.5 120.0Q462 172 462 265Q462 358 422.5 410.0Q383 462 314 462Q245 462 204.5 412.5Q164 363 164 265Q164 168 204.0 118.0Q244 68 314 68Z" transform="translate(98.20 217.16) scale(0.01150 -0.01150)"/><path d="M378 0Q225 0 225 146V456H50V530H225V654H309V530H520V456H309V146Q309 74 378 74H520V0Z" transform="translate(105.10 217.16) scale(0.01150 -0.01150)"/></g><rect x="127.0" y="202.0" width="87.0" height="22.5" rx="11.2" fill="#f0d6a4" stroke="#e6c78f" stroke-width="1.2"/><g fill="#16305e"><path d="M90 0V710H306Q417 710 483.5 652.5Q550 595 550 493Q550 391 483.5 333.5Q417 276 306 276H176V0ZM176 360H296Q380 360 420.0 394.5Q460 429 460 493Q460 558 420.0 592.0Q380 626 296 626H176Z" transform="translate(136.00 217.16) scale(0.01150 -0.01150)"/><path d="M90 0V74H228V456H90V530H298L304 427Q329 530 431 530H540V454H432Q374 454 343.0 419.5Q312 385 312 320V74H480V0Z" transform="translate(142.90 217.16) scale(0.01150 -0.01150)"/><path d="M300 -12Q227 -12 172.5 22.0Q118 56 88.0 118.5Q58 181 58 265Q58 350 88.0 412.0Q118 474 172.5 508.0Q227 542 300 542Q373 542 427.5 508.0Q482 474 512.0 412.0Q542 350 542 265Q542 181 512.0 118.5Q482 56 427.5 22.0Q373 -12 300 -12ZM300 68Q373 68 413.5 120.5Q454 173 454 265Q454 357 413.5 409.5Q373 462 300 462Q227 462 186.5 409.5Q146 357 146 265Q146 173 186.5 120.5Q227 68 300 68Z" transform="translate(149.80 217.16) scale(0.01150 -0.01150)"/><path d="M40 0V530H117L119 452Q133 494 159.5 518.0Q186 542 224 542Q303 542 323 443L324 437Q337 486 366.5 514.0Q396 542 438 542Q502 542 531.0 498.0Q560 454 560 352V0H476V340Q476 411 461.0 439.5Q446 468 414 468Q383 468 362.5 437.0Q342 406 342 338V0H258V340Q258 408 243.5 438.0Q229 468 196 468Q165 468 144.5 437.0Q124 406 124 338V0Z" transform="translate(156.70 217.16) scale(0.01150 -0.01150)"/><path d="M306 -12Q231 -12 176.5 22.0Q122 56 92.5 118.5Q63 181 63 265Q63 349 92.5 411.0Q122 473 175.5 507.5Q229 542 302 542Q371 542 424.0 509.5Q477 477 507.0 415.0Q537 353 537 264V239H151Q156 154 196.5 111.0Q237 68 306 68Q358 68 391.5 92.5Q425 117 438 157L528 150Q507 79 448.5 33.5Q390 -12 306 -12ZM151 313H445Q439 390 400.0 426.0Q361 462 302 462Q241 462 201.5 424.5Q162 387 151 313Z" transform="translate(163.60 217.16) scale(0.01150 -0.01150)"/><path d="M378 0Q225 0 225 146V456H50V530H225V654H309V530H520V456H309V146Q309 74 378 74H520V0Z" transform="translate(170.50 217.16) scale(0.01150 -0.01150)"/><path d="M100 0V710H184V447Q205 496 247.0 519.0Q289 542 343 542Q429 542 474.5 486.0Q520 430 520 341V0H436V317Q436 468 325 468Q261 468 222.5 429.0Q184 390 184 316V0Z" transform="translate(177.40 217.16) scale(0.01150 -0.01150)"/><path d="M306 -12Q231 -12 176.5 22.0Q122 56 92.5 118.5Q63 181 63 265Q63 349 92.5 411.0Q122 473 175.5 507.5Q229 542 302 542Q371 542 424.0 509.5Q477 477 507.0 415.0Q537 353 537 264V239H151Q156 154 196.5 111.0Q237 68 306 68Q358 68 391.5 92.5Q425 117 438 157L528 150Q507 79 448.5 33.5Q390 -12 306 -12ZM151 313H445Q439 390 400.0 426.0Q361 462 302 462Q241 462 201.5 424.5Q162 387 151 313Z" transform="translate(184.30 217.16) scale(0.01150 -0.01150)"/><path d="M263 -12Q184 -12 137.0 41.5Q90 95 90 189V530H174V212Q174 135 201.5 98.5Q229 62 286 62Q348 62 384.0 102.5Q420 143 420 214V530H504V0H424V86Q380 -12 263 -12Z" transform="translate(191.20 217.16) scale(0.01150 -0.01150)"/><path d="M310 -12Q241 -12 191.0 12.0Q141 36 112.5 76.5Q84 117 80 167L168 173Q176 124 211.5 96.0Q247 68 310 68Q369 68 401.5 85.0Q434 102 434 138Q434 161 423.0 176.0Q412 191 382.0 201.5Q352 212 294 222Q217 236 173.5 256.5Q130 277 112.0 308.0Q94 339 94 382Q94 451 146.0 496.5Q198 542 295 542Q361 542 405.5 518.5Q450 495 476.0 456.5Q502 418 510 372L422 366Q413 408 380.5 435.0Q348 462 294 462Q236 462 208.0 439.0Q180 416 180 382Q180 342 210.0 325.0Q240 308 312 296Q394 283 439.0 262.5Q484 242 502.0 212.0Q520 182 520 138Q520 91 492.5 57.5Q465 24 417.5 6.0Q370 -12 310 -12Z" transform="translate(198.10 217.16) scale(0.01150 -0.01150)"/></g><rect x="220.0" y="202.0" width="66.3" height="22.5" rx="11.2" fill="#f0d6a4" stroke="#e6c78f" stroke-width="1.2"/><g fill="#16305e"><path d="M298 -16Q223 -16 164.5 25.5Q106 67 72.0 149.5Q38 232 38 354Q38 469 69.5 552.0Q101 635 160.0 680.5Q219 726 302 726Q367 726 417.5 697.0Q468 668 502.0 616.5Q536 565 551 498L461 492Q444 558 404.5 600.0Q365 642 302 642Q219 642 173.5 567.0Q128 492 128 354Q128 217 174.5 142.5Q221 68 306 68Q382 68 426.5 126.5Q471 185 474 277H304V359H554V0H474L472 98Q447 46 405.5 15.0Q364 -16 298 -16Z" transform="translate(229.00 217.16) scale(0.01150 -0.01150)"/><path d="M90 0V74H228V456H90V530H298L304 427Q329 530 431 530H540V454H432Q374 454 343.0 419.5Q312 385 312 320V74H480V0Z" transform="translate(235.90 217.16) scale(0.01150 -0.01150)"/><path d="M230 -12Q180 -12 140.0 6.0Q100 24 77.0 56.5Q54 89 54 132Q54 200 94.5 237.5Q135 275 222 292L400 328Q400 396 369.5 429.0Q339 462 282 462Q227 462 196.0 437.5Q165 413 153 367L64 374Q79 449 135.5 495.5Q192 542 282 542Q378 542 431.0 484.5Q484 427 484 326V106Q484 88 492.0 81.0Q500 74 516 74H550V0Q534 -2 506 -2Q464 -2 438.5 15.0Q413 32 404 70L403 75Q382 36 334.5 12.0Q287 -12 230 -12ZM238 62Q319 62 359.5 103.0Q400 144 400 210V256L238 224Q184 214 163.0 193.5Q142 173 142 140Q142 103 167.5 82.5Q193 62 238 62Z" transform="translate(242.80 217.16) scale(0.01150 -0.01150)"/><path d="M212 0V456H70V530H212V564Q212 635 248.5 672.5Q285 710 360 710H530V636H360Q329 636 312.5 616.5Q296 597 296 564V530H520V456H296V0Z" transform="translate(249.70 217.16) scale(0.01150 -0.01150)"/><path d="M230 -12Q180 -12 140.0 6.0Q100 24 77.0 56.5Q54 89 54 132Q54 200 94.5 237.5Q135 275 222 292L400 328Q400 396 369.5 429.0Q339 462 282 462Q227 462 196.0 437.5Q165 413 153 367L64 374Q79 449 135.5 495.5Q192 542 282 542Q378 542 431.0 484.5Q484 427 484 326V106Q484 88 492.0 81.0Q500 74 516 74H550V0Q534 -2 506 -2Q464 -2 438.5 15.0Q413 32 404 70L403 75Q382 36 334.5 12.0Q287 -12 230 -12ZM238 62Q319 62 359.5 103.0Q400 144 400 210V256L238 224Q184 214 163.0 193.5Q142 173 142 140Q142 103 167.5 82.5Q193 62 238 62Z" transform="translate(256.60 217.16) scale(0.01150 -0.01150)"/><path d="M84 0V530H161L163 435Q184 489 230.5 515.5Q277 542 332 542Q393 542 433.5 515.0Q474 488 495.0 442.5Q516 397 516 341V0H432V317Q432 391 403.0 429.5Q374 468 314 468Q253 468 210.5 429.5Q168 391 168 317V0Z" transform="translate(263.50 217.16) scale(0.01150 -0.01150)"/><path d="M230 -12Q180 -12 140.0 6.0Q100 24 77.0 56.5Q54 89 54 132Q54 200 94.5 237.5Q135 275 222 292L400 328Q400 396 369.5 429.0Q339 462 282 462Q227 462 196.0 437.5Q165 413 153 367L64 374Q79 449 135.5 495.5Q192 542 282 542Q378 542 431.0 484.5Q484 427 484 326V106Q484 88 492.0 81.0Q500 74 516 74H550V0Q534 -2 506 -2Q464 -2 438.5 15.0Q413 32 404 70L403 75Q382 36 334.5 12.0Q287 -12 230 -12ZM238 62Q319 62 359.5 103.0Q400 144 400 210V256L238 224Q184 214 163.0 193.5Q142 173 142 140Q142 103 167.5 82.5Q193 62 238 62Z" transform="translate(270.40 217.16) scale(0.01150 -0.01150)"/></g><rect x="292.3" y="202.0" width="52.5" height="22.5" rx="11.2" fill="#f0d6a4" stroke="#e6c78f" stroke-width="1.2"/><g fill="#16305e"><path d="M60 0V710H146V354L444 710H550L283 398L560 0H454L226 331L146 238V0Z" transform="translate(301.30 217.16) scale(0.01150 -0.01150)"/><path d="M230 -12Q180 -12 140.0 6.0Q100 24 77.0 56.5Q54 89 54 132Q54 200 94.5 237.5Q135 275 222 292L400 328Q400 396 369.5 429.0Q339 462 282 462Q227 462 196.0 437.5Q165 413 153 367L64 374Q79 449 135.5 495.5Q192 542 282 542Q378 542 431.0 484.5Q484 427 484 326V106Q484 88 492.0 81.0Q500 74 516 74H550V0Q534 -2 506 -2Q464 -2 438.5 15.0Q413 32 404 70L403 75Q382 36 334.5 12.0Q287 -12 230 -12ZM238 62Q319 62 359.5 103.0Q400 144 400 210V256L238 224Q184 214 163.0 193.5Q142 173 142 140Q142 103 167.5 82.5Q193 62 238 62Z" transform="translate(308.20 217.16) scale(0.01150 -0.01150)"/><path d="M212 0V456H70V530H212V564Q212 635 248.5 672.5Q285 710 360 710H530V636H360Q329 636 312.5 616.5Q296 597 296 564V530H520V456H296V0Z" transform="translate(315.10 217.16) scale(0.01150 -0.01150)"/><path d="M90 0V710H174V245L432 530H544L335 305L554 0H452L278 248L174 138V0Z" transform="translate(322.00 217.16) scale(0.01150 -0.01150)"/><path d="M230 -12Q180 -12 140.0 6.0Q100 24 77.0 56.5Q54 89 54 132Q54 200 94.5 237.5Q135 275 222 292L400 328Q400 396 369.5 429.0Q339 462 282 462Q227 462 196.0 437.5Q165 413 153 367L64 374Q79 449 135.5 495.5Q192 542 282 542Q378 542 431.0 484.5Q484 427 484 326V106Q484 88 492.0 81.0Q500 74 516 74H550V0Q534 -2 506 -2Q464 -2 438.5 15.0Q413 32 404 70L403 75Q382 36 334.5 12.0Q287 -12 230 -12ZM238 62Q319 62 359.5 103.0Q400 144 400 210V256L238 224Q184 214 163.0 193.5Q142 173 142 140Q142 103 167.5 82.5Q193 62 238 62Z" transform="translate(328.90 217.16) scale(0.01150 -0.01150)"/></g><rect x="350.8" y="202.0" width="52.5" height="22.5" rx="11.2" fill="#f0d6a4" stroke="#e6c78f" stroke-width="1.2"/><g fill="#16305e"><path d="M70 0V710H286Q398 710 463.0 653.5Q528 597 528 498Q528 435 491.5 390.5Q455 346 408 331Q459 321 485.0 291.0Q511 261 516 204L534 0H448L431 193Q427 243 400.0 264.5Q373 286 304 286H156V0ZM156 370H286Q360 370 399.0 403.5Q438 437 438 498Q438 560 399.0 593.0Q360 626 286 626H156Z" transform="translate(359.80 217.16) scale(0.01150 -0.01150)"/><path d="M306 -12Q231 -12 176.5 22.0Q122 56 92.5 118.5Q63 181 63 265Q63 349 92.5 411.0Q122 473 175.5 507.5Q229 542 302 542Q371 542 424.0 509.5Q477 477 507.0 415.0Q537 353 537 264V239H151Q156 154 196.5 111.0Q237 68 306 68Q358 68 391.5 92.5Q425 117 438 157L528 150Q507 79 448.5 33.5Q390 -12 306 -12ZM151 313H445Q439 390 400.0 426.0Q361 462 302 462Q241 462 201.5 424.5Q162 387 151 313Z" transform="translate(366.70 217.16) scale(0.01150 -0.01150)"/><path d="M267 -12Q197 -12 146.0 22.0Q95 56 67.5 118.0Q40 180 40 265Q40 350 67.5 412.0Q95 474 146.0 508.0Q197 542 267 542Q323 542 365.0 515.5Q407 489 426 456V710H510V0H434L431 79Q408 36 365.0 12.0Q322 -12 267 -12ZM272 68Q344 68 385.0 121.0Q426 174 426 265Q426 357 385.0 409.5Q344 462 270 462Q205 462 166.5 409.5Q128 357 128 265Q128 174 166.5 121.0Q205 68 272 68Z" transform="translate(373.60 217.16) scale(0.01150 -0.01150)"/><path d="M80 0V74H293V456H90V530H377V74H560V0ZM285 613V711H373V613Z" transform="translate(380.50 217.16) scale(0.01150 -0.01150)"/><path d="M310 -12Q241 -12 191.0 12.0Q141 36 112.5 76.5Q84 117 80 167L168 173Q176 124 211.5 96.0Q247 68 310 68Q369 68 401.5 85.0Q434 102 434 138Q434 161 423.0 176.0Q412 191 382.0 201.5Q352 212 294 222Q217 236 173.5 256.5Q130 277 112.0 308.0Q94 339 94 382Q94 451 146.0 496.5Q198 542 295 542Q361 542 405.5 518.5Q450 495 476.0 456.5Q502 418 510 372L422 366Q413 408 380.5 435.0Q348 462 294 462Q236 462 208.0 439.0Q180 416 180 382Q180 342 210.0 325.0Q240 308 312 296Q394 283 439.0 262.5Q484 242 502.0 212.0Q520 182 520 138Q520 91 492.5 57.5Q465 24 417.5 6.0Q370 -12 310 -12Z" transform="translate(387.40 217.16) scale(0.01150 -0.01150)"/></g><g fill="#16305e"><path d="M276 0 20 710H135L344 120L553 710H668L411 0Z" transform="translate(34.00 274.00) scale(0.01400 -0.01400)"/><path d="M75 0V532H181V0ZM73 609V715H183V609Z" transform="translate(43.63 274.00) scale(0.01400 -0.01400)"/><path d="M294 -12Q216 -12 159.5 22.5Q103 57 72.5 119.5Q42 182 42 266Q42 350 72.5 412.5Q103 475 159.0 509.5Q215 544 291 544Q363 544 418.0 510.5Q473 477 503.5 414.0Q534 351 534 262V235H152Q156 157 193.5 118.0Q231 79 295 79Q342 79 372.5 100.5Q403 122 416 160L526 153Q505 78 443.5 33.0Q382 -12 294 -12ZM152 315H422Q417 386 381.0 420.0Q345 454 291 454Q234 454 197.5 418.5Q161 383 152 315Z" transform="translate(47.22 274.00) scale(0.01400 -0.01400)"/><path d="M184 0 22 532H133L247 116L364 532H464L581 116L696 532H807L645 0H526L414 380L302 0Z" transform="translate(55.28 274.00) scale(0.01400 -0.01400)"/><path d="M75 0V532H172L175 431Q190 483 221.5 507.5Q253 532 302 532H353V437H302Q241 437 211.0 407.0Q181 377 181 314V0Z" transform="translate(70.29 274.00) scale(0.01400 -0.01400)"/><path d="M294 -12Q216 -12 159.5 22.5Q103 57 72.5 119.5Q42 182 42 266Q42 350 72.5 412.5Q103 475 159.0 509.5Q215 544 291 544Q363 544 418.0 510.5Q473 477 503.5 414.0Q534 351 534 262V235H152Q156 157 193.5 118.0Q231 79 295 79Q342 79 372.5 100.5Q403 122 416 160L526 153Q505 78 443.5 33.0Q382 -12 294 -12ZM152 315H422Q417 386 381.0 420.0Q345 454 291 454Q234 454 197.5 418.5Q161 383 152 315Z" transform="translate(75.80 274.00) scale(0.01400 -0.01400)"/><path d="M75 -150V532H175L177 451Q200 497 242.5 520.5Q285 544 338 544Q416 544 466.5 505.5Q517 467 541.5 404.0Q566 341 566 266Q566 191 541.5 128.0Q517 65 466.5 26.5Q416 -12 338 -12Q287 -12 245.0 10.5Q203 33 181 72V-150ZM319 80Q383 80 419.5 129.0Q456 178 456 266Q456 354 419.5 403.0Q383 452 319 452Q255 452 218.0 405.0Q181 358 181 266Q181 174 218.0 127.0Q255 80 319 80Z" transform="translate(83.87 274.00) scale(0.01400 -0.01400)"/><path d="M294 -12Q218 -12 161.0 22.5Q104 57 73.0 119.0Q42 181 42 266Q42 351 73.0 413.0Q104 475 161.0 509.5Q218 544 294 544Q370 544 427.0 509.5Q484 475 515.0 413.0Q546 351 546 266Q546 181 515.0 119.0Q484 57 427.0 22.5Q370 -12 294 -12ZM294 80Q362 80 399.0 129.0Q436 178 436 266Q436 353 399.0 402.5Q362 452 294 452Q227 452 189.5 402.5Q152 353 152 266Q152 178 189.5 129.0Q227 80 294 80Z" transform="translate(92.38 274.00) scale(0.01400 -0.01400)"/><path d="M280 -12Q164 -12 106.0 38.5Q48 89 42 168L151 173Q158 129 187.0 103.0Q216 77 280 77Q330 77 356.5 93.0Q383 109 383 144Q383 164 374.0 177.0Q365 190 339.0 199.5Q313 209 262 218Q184 233 140.5 253.5Q97 274 79.0 304.5Q61 335 61 379Q61 451 116.0 497.5Q171 544 275 544Q348 544 395.0 519.5Q442 495 466.0 455.0Q490 415 495 369L386 363Q383 401 357.5 428.0Q332 455 273 455Q221 455 196.0 435.0Q171 415 171 383Q171 348 194.5 330.5Q218 313 283 303Q364 290 409.5 269.5Q455 249 474.0 218.5Q493 188 493 145Q493 70 434.0 29.0Q375 -12 280 -12Z" transform="translate(100.61 274.00) scale(0.01400 -0.01400)"/><path d="M75 0V532H181V0ZM73 609V715H183V609Z" transform="translate(108.13 274.00) scale(0.01400 -0.01400)"/><path d="M279 0Q203 0 167.0 34.5Q131 69 131 144V445H50V532H131V657H237V532H378V445H237V152Q237 115 253.0 101.0Q269 87 302 87H378V0Z" transform="translate(111.71 274.00) scale(0.01400 -0.01400)"/><path d="M294 -12Q218 -12 161.0 22.5Q104 57 73.0 119.0Q42 181 42 266Q42 351 73.0 413.0Q104 475 161.0 509.5Q218 544 294 544Q370 544 427.0 509.5Q484 475 515.0 413.0Q546 351 546 266Q546 181 515.0 119.0Q484 57 427.0 22.5Q370 -12 294 -12ZM294 80Q362 80 399.0 129.0Q436 178 436 266Q436 353 399.0 402.5Q362 452 294 452Q227 452 189.5 402.5Q152 353 152 266Q152 178 189.5 129.0Q227 80 294 80Z" transform="translate(117.45 274.00) scale(0.01400 -0.01400)"/><path d="M75 0V532H172L175 431Q190 483 221.5 507.5Q253 532 302 532H353V437H302Q241 437 211.0 407.0Q181 377 181 314V0Z" transform="translate(125.69 274.00) scale(0.01400 -0.01400)"/><path d="M105 -150V-63H170Q197 -63 210.0 -55.0Q223 -47 230 -28L247 16H214L22 532H134L280 114L419 532H532L320 -62Q304 -108 272.5 -129.0Q241 -150 185 -150Z" transform="translate(131.20 274.00) scale(0.01400 -0.01400)"/></g><g transform="translate(147.94 261.50) scale(0.9375)" fill="none" stroke="#16305e" stroke-width="2.03" stroke-linecap="round" stroke-linejoin="round"><path d="M3 8h9M8 4l4 4-4 4"/></g></svg>