<svg xmlns="http://www.w3.org/2000/svg" viewBox="0 0 592 298" width="592" height="298" font-family="sans-serif"><defs>
    <radialGradient id="flp0" cx="88%" cy="6%" r="62%">
      <stop offset="0%" stop-color="#e8451c" stop-opacity="0.20"/>
      <stop offset="62%" stop-color="#e8451c" stop-opacity="0"/>
    </radialGradient>
    <radialGradient id="inp0" cx="6%" cy="96%" r="70%">
      <stop offset="0%" stop-color="#16305e" stop-opacity="0.16"/>
      <stop offset="66%" stop-color="#16305e" stop-opacity="0"/>
    </radialGradient>
    <filter id="grp0" x="0" y="0" width="100%" height="100%">
      <feTurbulence type="fractalNoise" baseFrequency="0.9" numOctaves="2" stitchTiles="stitch" result="n"/>
      <feColorMatrix in="n" type="saturate" values="0"/>
    </filter>
    <pattern id="htp0" width="9" height="9" patternUnits="userSpaceOnUse">
      <circle cx="2" cy="2" r="1.9" fill="#e8451c"/>
    </pattern>
  </defs><rect x="0" y="0" width="592" height="298" fill="#f7e7c8"/><rect x="0" y="0" width="592" height="298" fill="url(#flp0)"/><rect x="0" y="0" width="592" height="298" fill="url(#inp0)"/><rect x="0" y="0" width="592" height="298" filter="url(#grp0)" opacity="0.2" style="mix-blend-mode:multiply"/><rect x="0.75" y="0.75" width="590.5" height="296.5" fill="none" stroke="#16305e" stroke-opacity="0.14" stroke-width="1.5"/><rect x="496" y="0" width="96" height="8" rx="0" fill="#e8451c" opacity="0.9"/><g fill="#e8451c"><path d="M83 0V710H256Q350 710 419.5 668.5Q489 627 526.5 547.5Q564 468 564 354Q564 240 526.5 161.0Q489 82 419.5 41.0Q350 0 256 0ZM188 99H253Q349 99 402.0 162.5Q455 226 455 354Q455 482 402.0 546.5Q349 611 253 611H188Z" transform="translate(34.00 52.00) scale(0.01150 -0.01150)"/><path d="M88 0V710H524V611H193V404H512V308H193V99H532V0Z" transform="translate(42.70 52.00) scale(0.01150 -0.01150)"/><path d="M86 0V710H306Q380 710 435.5 683.0Q491 656 521.5 606.5Q552 557 552 489Q552 421 521.5 371.5Q491 322 435.5 295.5Q380 269 306 269H191V0ZM191 368H295Q371 368 407.0 399.0Q443 430 443 489Q443 549 407.0 580.0Q371 611 295 611H191Z" transform="translate(51.40 52.00) scale(0.01150 -0.01150)"/><path d="M98 0V710H203V99H542V0Z" transform="translate(60.10 52.00) scale(0.01150 -0.01150)"/><path d="M300 -16Q173 -16 104.5 80.0Q36 176 36 354Q36 533 104.5 629.5Q173 726 300 726Q427 726 495.5 629.5Q564 533 564 354Q564 176 495.5 80.0Q427 -16 300 -16ZM300 82Q375 82 415.0 150.5Q455 219 455 354Q455 489 415.0 558.5Q375 628 300 628Q225 628 185.0 558.5Q145 489 145 354Q145 219 185.0 150.5Q225 82 300 82Z" transform="translate(68.80 52.00) scale(0.01150 -0.01150)"/><path d="M248 0V292L37 710H153L300 400L447 710H563L353 292V0Z" transform="translate(77.50 52.00) scale(0.01150 -0.01150)"/><path d="M260 86 149 548V0H48V710H188L300 251L412 710H552V0H451V548L340 86Z" transform="translate(86.20 52.00) scale(0.01150 -0.01150)"/><path d="M88 0V710H524V611H193V404H512V308H193V99H532V0Z" transform="translate(94.90 52.00) scale(0.01150 -0.01150)"/><path d="M68 0V710H196L429 149V710H532V0H404L171 561V0Z" transform="translate(103.60 52.00) scale(0.01150 -0.01150)"/><path d="M248 0V611H40V710H560V611H352V0Z" transform="translate(112.30 52.00) scale(0.01150 -0.01150)"/><path d="M86 0V710H306Q380 710 435.5 683.0Q491 656 521.5 606.5Q552 557 552 489Q552 421 521.5 371.5Q491 322 435.5 295.5Q380 269 306 269H191V0ZM191 368H295Q371 368 407.0 399.0Q443 430 443 489Q443 549 407.0 580.0Q371 611 295 611H191Z" transform="translate(129.70 52.00) scale(0.01150 -0.01150)"/><path d="M98 0V710H203V99H542V0Z" transform="translate(138.40 52.00) scale(0.01150 -0.01150)"/><path d="M24 0 232 710H368L576 0H467L416 185H184L133 0ZM300 601 211 282H389Z" transform="translate(147.10 52.00) scale(0.01150 -0.01150)"/><path d="M248 0V611H40V710H560V611H352V0Z" transform="translate(155.80 52.00) scale(0.01150 -0.01150)"/><path d="M98 0V710H542V613H203V395H524V299H203V0Z" transform="translate(164.50 52.00) scale(0.01150 -0.01150)"/><path d="M300 -16Q173 -16 104.5 80.0Q36 176 36 354Q36 533 104.5 629.5Q173 726 300 726Q427 726 495.5 629.5Q564 533 564 354Q564 176 495.5 80.0Q427 -16 300 -16ZM300 82Q375 82 415.0 150.5Q455 219 455 354Q455 489 415.0 558.5Q375 628 300 628Q225 628 185.0 558.5Q145 489 145 354Q145 219 185.0 150.5Q225 82 300 82Z" transform="translate(173.20 52.00) scale(0.01150 -0.01150)"/><path d="M67 0V710H288Q400 710 465.0 653.0Q530 596 530 498Q530 434 494.5 389.5Q459 345 410 330Q462 320 488.5 289.5Q515 259 520 202L538 0H433L417 182Q413 235 387.5 256.0Q362 277 296 277H172V0ZM172 375H286Q352 375 387.0 406.0Q422 437 422 493Q422 550 387.0 580.5Q352 611 286 611H172Z" transform="translate(181.90 52.00) scale(0.01150 -0.01150)"/><path d="M260 86 149 548V0H48V710H188L300 251L412 710H552V0H451V548L340 86Z" transform="translate(190.60 52.00) scale(0.01150 -0.01150)"/></g><g fill="#8794b4"><path d="M50 0Q50 75 73.5 135.5Q97 196 156.5 251.0Q216 306 322 362Q371 388 401.0 410.0Q431 432 445.0 457.0Q459 482 459 518Q459 573 423.5 607.5Q388 642 317 642Q242 642 198.5 603.0Q155 564 144 492L54 498Q66 602 134.0 664.0Q202 726 317 726Q427 726 488.0 669.0Q549 612 549 520Q549 466 531.0 426.5Q513 387 470.5 353.0Q428 319 354 280Q258 229 208.5 177.0Q159 125 156 84H550V0Z" transform="translate(529.20 52.00) scale(0.01200 -0.01200)"/><path d="M300 -16Q223 -16 166.5 29.0Q110 74 80.0 157.0Q50 240 50 354Q50 469 80.0 552.0Q110 635 166.5 680.5Q223 726 300 726Q378 726 434.0 680.5Q490 635 520.0 552.0Q550 469 550 354Q550 240 520.0 157.0Q490 74 434.0 29.0Q378 -16 300 -16ZM140 354Q140 254 165 184L393 599Q354 642 300 642Q226 642 183.0 564.5Q140 487 140 354ZM300 68Q374 68 417.0 145.5Q460 223 460 354Q460 455 435 525L207 111Q246 68 300 68Z" transform="translate(536.40 52.00) scale(0.01200 -0.01200)"/><path d="M50 0Q50 75 73.5 135.5Q97 196 156.5 251.0Q216 306 322 362Q371 388 401.0 410.0Q431 432 445.0 457.0Q459 482 459 518Q459 573 423.5 607.5Q388 642 317 642Q242 642 198.5 603.0Q155 564 144 492L54 498Q66 602 134.0 664.0Q202 726 317 726Q427 726 488.0 669.0Q549 612 549 520Q549 466 531.0 426.5Q513 387 470.5 353.0Q428 319 354 280Q258 229 208.5 177.0Q159 125 156 84H550V0Z" transform="translate(543.60 52.00) scale(0.01200 -0.01200)"/><path d="M302 -16Q182 -16 116.0 66.0Q50 148 50 300Q50 388 64.5 465.0Q79 542 111.5 600.5Q144 659 197.5 692.5Q251 726 330 726Q425 726 477.0 679.5Q529 633 550 558L460 550Q448 592 418.5 617.0Q389 642 330 642Q250 642 201.0 580.0Q152 518 141 394L140 387Q166 426 211.5 452.0Q257 478 318 478Q388 478 440.0 448.0Q492 418 521.0 363.5Q550 309 550 236Q550 158 518.5 101.5Q487 45 431.5 14.5Q376 -16 302 -16ZM304 68Q374 68 417.0 112.5Q460 157 460 236Q460 310 419.5 353.0Q379 396 312 396Q264 396 226.0 376.5Q188 357 166.0 321.0Q144 285 144 236Q144 163 187.5 115.5Q231 68 304 68Z" transform="translate(550.80 52.00) scale(0.01200 -0.01200)"/></g><g fill="#0d2148"><path d="M33 0V136L367 527V539H44V660H525V512L201 132V121H538V0Z" transform="translate(34.00 96.00) scale(0.03400 -0.03400)"/><path d="M265 -182Q225 -182 183.5 -174.5Q142 -167 105.5 -151.5Q69 -136 43 -112L84 11Q116 -22 164.0 -38.5Q212 -55 259 -55Q312 -55 347.5 -33.5Q383 -12 401.5 32.5Q420 77 423 144L429 235H407Q397 169 374.5 127.0Q352 85 317.5 65.5Q283 46 236 46Q179 46 140.0 75.0Q101 104 81.5 162.0Q62 220 62 305V525H206V340Q206 247 227.0 206.0Q248 165 291 165Q314 165 333.0 177.5Q352 190 365.5 214.0Q379 238 386.5 272.5Q394 307 394 351V525H538V139Q538 76 527.0 24.5Q516 -27 494.5 -65.5Q473 -104 440.0 -130.0Q407 -156 363.5 -169.0Q320 -182 265 -182Z" transform="translate(52.81 96.00) scale(0.03400 -0.03400)"/><path d="M66 -168V258V525H185L186 379L204 378Q213 431 235.5 467.0Q258 503 294.0 521.0Q330 539 377 539Q447 539 497.0 504.5Q547 470 573.5 407.5Q600 345 600 260Q600 181 576.0 119.5Q552 58 504.5 22.0Q457 -14 386 -14Q336 -14 301.5 5.0Q267 24 244.5 58.5Q222 93 207 141H188Q194 114 199.0 86.0Q204 58 207.0 31.5Q210 5 210 -20V-168ZM336 101Q372 101 397.0 121.0Q422 141 435.5 177.0Q449 213 449 259Q449 309 435.0 344.5Q421 380 395.0 400.0Q369 420 333 420Q301 420 278.0 406.0Q255 392 239.5 369.0Q224 346 217.0 319.5Q210 293 210 269V250Q210 231 215.0 210.5Q220 190 231.0 170.5Q242 151 257.0 135.5Q272 120 292.0 110.5Q312 101 336 101Z" transform="translate(72.68 96.00) scale(0.03400 -0.03400)"/><path d="M66 0V330V715H211V551Q211 531 209.5 509.0Q208 487 204.5 464.5Q201 442 197.5 419.0Q194 396 190 373H212Q226 424 247.5 461.0Q269 498 303.0 518.5Q337 539 389 539Q481 539 527.0 474.5Q573 410 573 277V0H428V255Q428 339 403.5 379.5Q379 420 330 420Q290 420 264.0 396.0Q238 372 225.0 331.5Q212 291 210 241V0Z" transform="translate(93.77 96.00) scale(0.03400 -0.03400)"/><path d="M66 0V254V525H185L186 346H205Q213 413 232.5 455.0Q252 497 287.0 517.0Q322 537 374 537Q383 537 393.5 536.5Q404 536 418 533L412 380Q397 387 379.0 390.0Q361 393 347 393Q308 393 280.0 375.0Q252 357 234.5 323.5Q217 290 211 242V0Z" transform="translate(114.63 96.00) scale(0.03400 -0.03400)"/><path d="M304 -14Q225 -14 165.0 17.5Q105 49 71.0 110.5Q37 172 37 264Q37 356 71.5 417.0Q106 478 166.5 508.5Q227 539 304 539Q383 539 443.5 508.0Q504 477 538.5 415.5Q573 354 573 262Q573 169 537.5 107.5Q502 46 441.5 16.0Q381 -14 304 -14ZM309 93Q348 93 374.5 111.0Q401 129 414.5 165.5Q428 202 428 254Q428 309 413.5 347.5Q399 386 371.0 406.5Q343 427 300 427Q263 427 236.0 409.5Q209 392 195.0 355.5Q181 319 181 266Q181 181 215.0 137.0Q249 93 309 93Z" transform="translate(128.78 96.00) scale(0.03400 -0.03400)"/><path d="M66 0V318V525H184L183 368H203Q216 425 240.0 463.0Q264 501 300.5 520.0Q337 539 387 539Q478 539 525.5 475.0Q573 411 573 274V0H428V258Q428 342 403.5 380.5Q379 419 332 419Q292 419 265.0 394.0Q238 369 224.5 328.5Q211 288 210 238V0Z" transform="translate(148.89 96.00) scale(0.03400 -0.03400)"/></g><g fill="#45568a"><path d="M92 0V710H347Q466 710 532.0 653.0Q598 596 598 495Q598 392 532.0 334.0Q466 276 347 276H178V0ZM178 360H347Q508 360 508 495Q508 626 347 626H178Z" transform="translate(34.00 128.00) scale(0.01550 -0.01550)"/><path d="M254 -12Q175 -12 127.5 41.5Q80 95 80 189V530H164V212Q164 135 191.5 98.5Q219 62 276 62Q339 62 375.0 102.5Q411 143 411 214V530H495V0H415V86Q371 -12 254 -12Z" transform="translate(44.08 128.00) scale(0.01550 -0.01550)"/><path d="M273 -12Q164 -12 107.0 38.5Q50 89 44 167L132 173Q140 125 171.5 96.5Q203 68 273 68Q327 68 356.5 85.5Q386 103 386 142Q386 163 376.5 177.0Q367 191 339.0 201.5Q311 212 257 222Q183 236 141.0 257.0Q99 278 82.0 308.0Q65 338 65 380Q65 451 117.5 496.5Q170 542 266 542Q336 542 380.5 517.5Q425 493 448.0 454.0Q471 415 476 372L388 366Q384 404 356.5 433.0Q329 462 264 462Q207 462 180.0 440.0Q153 418 153 384Q153 345 178.0 326.5Q203 308 273 296Q351 283 395.0 263.0Q439 243 456.5 213.5Q474 184 474 142Q474 69 417.5 28.5Q361 -12 273 -12Z" transform="translate(52.99 128.00) scale(0.01550 -0.01550)"/><path d="M80 0V710H164V447Q185 496 227.0 519.0Q269 542 324 542Q410 542 455.5 486.0Q501 430 501 341V0H417V317Q417 468 306 468Q242 468 203.0 429.0Q164 390 164 316V0Z" transform="translate(61.05 128.00) scale(0.01550 -0.01550)"/><path d="M223 -12Q141 -12 92.5 26.0Q44 64 44 132Q44 200 84.0 239.0Q124 278 211 294L399 329Q399 462 273 462Q218 462 186.0 437.5Q154 413 142 367L53 374Q68 449 125.5 495.5Q183 542 273 542Q375 542 429.0 484.5Q483 427 483 326V107Q483 74 511 74H532V0Q520 -2 500 -2Q454 -2 430.5 16.5Q407 35 401 77L400 82Q380 41 331.0 14.5Q282 -12 223 -12ZM231 62Q311 62 355.0 107.0Q399 152 399 218V256L227 224Q173 214 152.5 193.5Q132 173 132 140Q132 103 158.5 82.5Q185 62 231 62Z" transform="translate(73.93 128.00) scale(0.01550 -0.01550)"/><path d="M80 0V530H154L157 432Q184 530 283 530H335V450H284Q164 450 164 320V0Z" transform="translate(86.34 128.00) scale(0.01550 -0.01550)"/><path d="M287 -12Q212 -12 157.5 22.0Q103 56 73.5 118.5Q44 181 44 265Q44 349 73.5 411.0Q103 473 156.5 507.5Q210 542 283 542Q352 542 405.0 509.5Q458 477 487.5 415.0Q517 353 517 264V239H132Q137 154 177.5 111.0Q218 68 287 68Q339 68 372.5 92.5Q406 117 419 157L509 150Q488 79 429.5 33.5Q371 -12 287 -12ZM132 313H425Q419 390 380.5 426.0Q342 462 283 462Q222 462 182.5 424.5Q143 387 132 313Z" transform="translate(92.22 128.00) scale(0.01550 -0.01550)"/><path d="M80 -150V530H158L159 449Q183 495 225.5 518.5Q268 542 322 542Q401 542 451.5 503.0Q502 464 526.5 401.0Q551 338 551 265Q551 192 526.5 129.0Q502 66 451.5 27.0Q401 -12 322 -12Q270 -12 227.5 10.0Q185 32 164 70V-150ZM314 68Q383 68 423.0 120.0Q463 172 463 265Q463 358 423.0 410.0Q383 462 314 462Q245 462 204.5 412.5Q164 363 164 265Q164 168 204.0 118.0Q244 68 314 68Z" transform="translate(100.91 128.00) scale(0.01550 -0.01550)"/><path d="M287 -12Q214 -12 159.0 22.0Q104 56 74.0 118.5Q44 181 44 265Q44 350 74.0 412.0Q104 474 159.0 508.0Q214 542 287 542Q360 542 414.5 508.0Q469 474 499.0 412.0Q529 350 529 265Q529 181 499.0 118.5Q469 56 414.5 22.0Q360 -12 287 -12ZM287 68Q360 68 400.5 120.5Q441 173 441 265Q441 357 400.5 409.5Q360 462 287 462Q214 462 173.0 409.5Q132 357 132 265Q132 173 173.0 120.5Q214 68 287 68Z" transform="translate(110.14 128.00) scale(0.01550 -0.01550)"/><path d="M47 -156 95 0H44V113H157V14L97 -156Z" transform="translate(119.02 128.00) scale(0.01550 -0.01550)"/><path d="M281 -162Q196 -162 136.0 -120.0Q76 -78 59 -8L147 -2Q159 -39 189.5 -60.5Q220 -82 281 -82Q353 -82 391.5 -53.0Q430 -24 430 34V120Q411 78 369.0 53.0Q327 28 275 28Q208 28 155.5 61.0Q103 94 73.5 152.0Q44 210 44 285Q44 361 73.0 418.5Q102 476 153.5 509.0Q205 542 271 542Q327 542 371.5 516.0Q416 490 434 446V530H514V36Q514 -57 452.5 -109.5Q391 -162 281 -162ZM279 108Q347 108 388.0 155.5Q429 203 430 285Q432 367 390.0 414.5Q348 462 279 462Q209 462 170.5 414.5Q132 367 132 285Q132 203 171.5 155.5Q211 108 279 108Z" transform="translate(126.01 128.00) scale(0.01550 -0.01550)"/><path d="M287 -12Q212 -12 157.5 22.0Q103 56 73.5 118.5Q44 181 44 265Q44 349 73.5 411.0Q103 473 156.5 507.5Q210 542 283 542Q352 542 405.0 509.5Q458 477 487.5 415.0Q517 353 517 264V239H132Q137 154 177.5 111.0Q218 68 287 68Q339 68 372.5 92.5Q406 117 419 157L509 150Q488 79 429.5 33.5Q371 -12 287 -12ZM132 313H425Q419 390 380.5 426.0Q342 462 283 462Q222 462 182.5 424.5Q143 387 132 313Z" transform="translate(135.22 128.00) scale(0.01550 -0.01550)"/><path d="M274 0Q202 0 167.5 33.0Q133 66 133 136V456H55V530H133V654H217V530H358V456H217V138Q217 102 233.0 88.0Q249 74 282 74H358V0Z" transform="translate(143.91 128.00) scale(0.01550 -0.01550)"/><path d="M223 -12Q141 -12 92.5 26.0Q44 64 44 132Q44 200 84.0 239.0Q124 278 211 294L399 329Q399 462 273 462Q218 462 186.0 437.5Q154 413 142 367L53 374Q68 449 125.5 495.5Q183 542 273 542Q375 542 429.0 484.5Q483 427 483 326V107Q483 74 511 74H532V0Q520 -2 500 -2Q454 -2 430.5 16.5Q407 35 401 77L400 82Q380 41 331.0 14.5Q282 -12 223 -12ZM231 62Q311 62 355.0 107.0Q399 152 399 218V256L227 224Q173 214 152.5 193.5Q132 173 132 140Q132 103 158.5 82.5Q185 62 231 62Z" transform="translate(153.86 128.00) scale(0.01550 -0.01550)"/><path d="M80 0V530H154L157 432Q184 530 283 530H335V450H284Q164 450 164 320V0Z" transform="translate(166.28 128.00) scale(0.01550 -0.01550)"/><path d="M254 -12Q175 -12 127.5 41.5Q80 95 80 189V530H164V212Q164 135 191.5 98.5Q219 62 276 62Q339 62 375.0 102.5Q411 143 411 214V530H495V0H415V86Q371 -12 254 -12Z" transform="translate(172.15 128.00) scale(0.01550 -0.01550)"/><path d="M80 0V530H157L159 435Q180 490 223.5 516.0Q267 542 322 542Q383 542 422.5 515.0Q462 488 481.5 442.5Q501 397 501 341V0H417V317Q417 391 390.5 429.5Q364 468 304 468Q243 468 203.5 429.5Q164 391 164 317V0Z" transform="translate(181.06 128.00) scale(0.01550 -0.01550)"/><path d="M80 0V530H157L159 435Q180 490 223.5 516.0Q267 542 322 542Q383 542 422.5 515.0Q462 488 481.5 442.5Q501 397 501 341V0H417V317Q417 391 390.5 429.5Q364 468 304 468Q243 468 203.5 429.5Q164 391 164 317V0Z" transform="translate(190.07 128.00) scale(0.01550 -0.01550)"/><path d="M80 0V530H164V0ZM78 613V711H166V613Z" transform="translate(199.08 128.00) scale(0.01550 -0.01550)"/><path d="M80 0V530H157L159 435Q180 490 223.5 516.0Q267 542 322 542Q383 542 422.5 515.0Q462 488 481.5 442.5Q501 397 501 341V0H417V317Q417 391 390.5 429.5Q364 468 304 468Q243 468 203.5 429.5Q164 391 164 317V0Z" transform="translate(202.86 128.00) scale(0.01550 -0.01550)"/><path d="M281 -162Q196 -162 136.0 -120.0Q76 -78 59 -8L147 -2Q159 -39 189.5 -60.5Q220 -82 281 -82Q353 -82 391.5 -53.0Q430 -24 430 34V120Q411 78 369.0 53.0Q327 28 275 28Q208 28 155.5 61.0Q103 94 73.5 152.0Q44 210 44 285Q44 361 73.0 418.5Q102 476 153.5 509.0Q205 542 271 542Q327 542 371.5 516.0Q416 490 434 446V530H514V36Q514 -57 452.5 -109.5Q391 -162 281 -162ZM279 108Q347 108 388.0 155.5Q429 203 430 285Q432 367 390.0 414.5Q348 462 279 462Q209 462 170.5 414.5Q132 367 132 285Q132 203 171.5 155.5Q211 108 279 108Z" transform="translate(211.86 128.00) scale(0.01550 -0.01550)"/><path d="M268 -12Q199 -12 148.5 22.0Q98 56 71.0 118.0Q44 180 44 265Q44 350 71.0 412.0Q98 474 148.5 508.0Q199 542 268 542Q321 542 365.0 519.5Q409 497 431 456V710H515V0H439L436 80Q414 37 369.0 12.5Q324 -12 268 -12ZM285 68Q356 68 393.5 121.0Q431 174 431 265Q431 357 393.5 409.5Q356 462 285 462Q215 462 173.5 409.5Q132 357 132 265Q132 174 173.5 121.0Q215 68 285 68Z" transform="translate(224.94 128.00) scale(0.01550 -0.01550)"/><path d="M80 0V530H164V0ZM78 613V711H166V613Z" transform="translate(234.17 128.00) scale(0.01550 -0.01550)"/><path d="M273 -12Q164 -12 107.0 38.5Q50 89 44 167L132 173Q140 125 171.5 96.5Q203 68 273 68Q327 68 356.5 85.5Q386 103 386 142Q386 163 376.5 177.0Q367 191 339.0 201.5Q311 212 257 222Q183 236 141.0 257.0Q99 278 82.0 308.0Q65 338 65 380Q65 451 117.5 496.5Q170 542 266 542Q336 542 380.5 517.5Q425 493 448.0 454.0Q471 415 476 372L388 366Q384 404 356.5 433.0Q329 462 264 462Q207 462 180.0 440.0Q153 418 153 384Q153 345 178.0 326.5Q203 308 273 296Q351 283 395.0 263.0Q439 243 456.5 213.5Q474 184 474 142Q474 69 417.5 28.5Q361 -12 273 -12Z" transform="translate(237.95 128.00) scale(0.01550 -0.01550)"/><path d="M274 0Q202 0 167.5 33.0Q133 66 133 136V456H55V530H133V654H217V530H358V456H217V138Q217 102 233.0 88.0Q249 74 282 74H358V0Z" transform="translate(246.01 128.00) scale(0.01550 -0.01550)"/><path d="M80 0V530H154L157 432Q184 530 283 530H335V450H284Q164 450 164 320V0Z" transform="translate(252.09 128.00) scale(0.01550 -0.01550)"/><path d="M80 0V530H164V0ZM78 613V711H166V613Z" transform="translate(257.96 128.00) scale(0.01550 -0.01550)"/><path d="M323 -12Q268 -12 225.0 12.5Q182 37 159 80L156 0H80V710H164V456Q184 489 226.0 515.5Q268 542 323 542Q393 542 444.0 508.0Q495 474 523.0 412.0Q551 350 551 265Q551 180 523.0 118.0Q495 56 444.0 22.0Q393 -12 323 -12ZM318 68Q385 68 424.0 121.0Q463 174 463 265Q463 357 424.0 409.5Q385 462 320 462Q247 462 205.5 409.5Q164 357 164 265Q164 174 205.0 121.0Q246 68 318 68Z" transform="translate(261.74 128.00) scale(0.01550 -0.01550)"/><path d="M254 -12Q175 -12 127.5 41.5Q80 95 80 189V530H164V212Q164 135 191.5 98.5Q219 62 276 62Q339 62 375.0 102.5Q411 143 411 214V530H495V0H415V86Q371 -12 254 -12Z" transform="translate(270.96 128.00) scale(0.01550 -0.01550)"/><path d="M274 0Q202 0 167.5 33.0Q133 66 133 136V456H55V530H133V654H217V530H358V456H217V138Q217 102 233.0 88.0Q249 74 282 74H358V0Z" transform="translate(279.88 128.00) scale(0.01550 -0.01550)"/><path d="M287 -12Q212 -12 157.5 22.0Q103 56 73.5 118.5Q44 181 44 265Q44 349 73.5 411.0Q103 473 156.5 507.5Q210 542 283 542Q352 542 405.0 509.5Q458 477 487.5 415.0Q517 353 517 264V239H132Q137 154 177.5 111.0Q218 68 287 68Q339 68 372.5 92.5Q406 117 419 157L509 150Q488 79 429.5 33.5Q371 -12 287 -12ZM132 313H425Q419 390 380.5 426.0Q342 462 283 462Q222 462 182.5 424.5Q143 387 132 313Z" transform="translate(285.95 128.00) scale(0.01550 -0.01550)"/><path d="M268 -12Q199 -12 148.5 22.0Q98 56 71.0 118.0Q44 180 44 265Q44 350 71.0 412.0Q98 474 148.5 508.0Q199 542 268 542Q321 542 365.0 519.5Q409 497 431 456V710H515V0H439L436 80Q414 37 369.0 12.5Q324 -12 268 -12ZM285 68Q356 68 393.5 121.0Q431 174 431 265Q431 357 393.5 409.5Q356 462 285 462Q215 462 173.5 409.5Q132 357 132 265Q132 174 173.5 121.0Q215 68 285 68Z" transform="translate(294.65 128.00) scale(0.01550 -0.01550)"/><path d="M273 -12Q164 -12 107.0 38.5Q50 89 44 167L132 173Q140 125 171.5 96.5Q203 68 273 68Q327 68 356.5 85.5Q386 103 386 142Q386 163 376.5 177.0Q367 191 339.0 201.5Q311 212 257 222Q183 236 141.0 257.0Q99 278 82.0 308.0Q65 338 65 380Q65 451 117.5 496.5Q170 542 266 542Q336 542 380.5 517.5Q425 493 448.0 454.0Q471 415 476 372L388 366Q384 404 356.5 433.0Q329 462 264 462Q207 462 180.0 440.0Q153 418 153 384Q153 345 178.0 326.5Q203 308 273 296Q351 283 395.0 263.0Q439 243 456.5 213.5Q474 184 474 142Q474 69 417.5 28.5Q361 -12 273 -12Z" transform="translate(307.75 128.00) scale(0.01550 -0.01550)"/><path d="M103 -150V-76H164Q192 -76 205.5 -67.5Q219 -59 226 -40L245 10H216L22 530H114L272 88L423 530H515L300 -67Q285 -110 255.0 -130.0Q225 -150 172 -150Z" transform="translate(315.81 128.00) scale(0.01550 -0.01550)"/><path d="M273 -12Q164 -12 107.0 38.5Q50 89 44 167L132 173Q140 125 171.5 96.5Q203 68 273 68Q327 68 356.5 85.5Q386 103 386 142Q386 163 376.5 177.0Q367 191 339.0 201.5Q311 212 257 222Q183 236 141.0 257.0Q99 278 82.0 308.0Q65 338 65 380Q65 451 117.5 496.5Q170 542 266 542Q336 542 380.5 517.5Q425 493 448.0 454.0Q471 415 476 372L388 366Q384 404 356.5 433.0Q329 462 264 462Q207 462 180.0 440.0Q153 418 153 384Q153 345 178.0 326.5Q203 308 273 296Q351 283 395.0 263.0Q439 243 456.5 213.5Q474 184 474 142Q474 69 417.5 28.5Q361 -12 273 -12Z" transform="translate(324.13 128.00) scale(0.01550 -0.01550)"/><path d="M274 0Q202 0 167.5 33.0Q133 66 133 136V456H55V530H133V654H217V530H358V456H217V138Q217 102 233.0 88.0Q249 74 282 74H358V0Z" transform="translate(332.19 128.00) scale(0.01550 -0.01550)"/><path d="M287 -12Q212 -12 157.5 22.0Q103 56 73.5 118.5Q44 181 44 265Q44 349 73.5 411.0Q103 473 156.5 507.5Q210 542 283 542Q352 542 405.0 509.5Q458 477 487.5 415.0Q517 353 517 264V239H132Q137 154 177.5 111.0Q218 68 287 68Q339 68 372.5 92.5Q406 117 419 157L509 150Q488 79 429.5 33.5Q371 -12 287 -12ZM132 313H425Q419 390 380.5 426.0Q342 462 283 462Q222 462 182.5 424.5Q143 387 132 313Z" transform="translate(338.27 128.00) scale(0.01550 -0.01550)"/><path d="M80 0V530H157L159 437Q179 486 218.0 514.0Q257 542 308 542Q368 542 409.0 513.0Q450 484 467 431Q484 484 524.0 513.0Q564 542 622 542Q707 542 752.0 489.5Q797 437 797 341V0H713V323Q713 468 602 468Q547 468 513.5 428.0Q480 388 480 317V0H396V317Q396 388 371.0 428.0Q346 468 287 468Q232 468 198.0 428.0Q164 388 164 317V0Z" transform="translate(346.96 128.00) scale(0.01550 -0.01550)"/><path d="M44 253V331H863V253Z" transform="translate(364.43 128.00) scale(0.01550 -0.01550)"/><path d="M80 0V530H157L159 435Q180 490 223.5 516.0Q267 542 322 542Q383 542 422.5 515.0Q462 488 481.5 442.5Q501 397 501 341V0H417V317Q417 391 390.5 429.5Q364 468 304 468Q243 468 203.5 429.5Q164 391 164 317V0Z" transform="translate(382.36 128.00) scale(0.01550 -0.01550)"/><path d="M287 -12Q214 -12 159.0 22.0Q104 56 74.0 118.5Q44 181 44 265Q44 350 74.0 412.0Q104 474 159.0 508.0Q214 542 287 542Q360 542 414.5 508.0Q469 474 499.0 412.0Q529 350 529 265Q529 181 499.0 118.5Q469 56 414.5 22.0Q360 -12 287 -12ZM287 68Q360 68 400.5 120.5Q441 173 441 265Q441 357 400.5 409.5Q360 462 287 462Q214 462 173.0 409.5Q132 357 132 265Q132 173 173.0 120.5Q214 68 287 68Z" transform="translate(391.37 128.00) scale(0.01550 -0.01550)"/><path d="M92 0V710H312Q476 710 564.5 617.5Q653 525 653 354Q653 184 566.0 92.0Q479 0 318 0ZM178 84H312Q563 84 563 354Q563 626 312 626H178Z" transform="translate(404.12 128.00) scale(0.01550 -0.01550)"/><path d="M287 -12Q214 -12 159.0 22.0Q104 56 74.0 118.5Q44 181 44 265Q44 350 74.0 412.0Q104 474 159.0 508.0Q214 542 287 542Q360 542 414.5 508.0Q469 474 499.0 412.0Q529 350 529 265Q529 181 499.0 118.5Q469 56 414.5 22.0Q360 -12 287 -12ZM287 68Q360 68 400.5 120.5Q441 173 441 265Q441 357 400.5 409.5Q360 462 287 462Q214 462 173.0 409.5Q132 357 132 265Q132 173 173.0 120.5Q214 68 287 68Z" transform="translate(414.88 128.00) scale(0.01550 -0.01550)"/><path d="M287 -12Q213 -12 158.5 22.0Q104 56 74.0 118.5Q44 181 44 265Q44 349 74.0 411.0Q104 473 158.5 507.5Q213 542 287 542Q379 542 439.0 494.5Q499 447 512 358L424 352Q415 405 378.0 433.5Q341 462 287 462Q214 462 173.0 409.5Q132 357 132 265Q132 173 173.0 120.5Q214 68 287 68Q341 68 378.0 98.0Q415 128 424 188L512 182Q499 94 439.0 41.0Q379 -12 287 -12Z" transform="translate(423.76 128.00) scale(0.01550 -0.01550)"/><path d="M80 0V710H164V245L422 530H534L325 305L543 0H441L268 248L164 138V0Z" transform="translate(432.23 128.00) scale(0.01550 -0.01550)"/><path d="M287 -12Q212 -12 157.5 22.0Q103 56 73.5 118.5Q44 181 44 265Q44 349 73.5 411.0Q103 473 156.5 507.5Q210 542 283 542Q352 542 405.0 509.5Q458 477 487.5 415.0Q517 353 517 264V239H132Q137 154 177.5 111.0Q218 68 287 68Q339 68 372.5 92.5Q406 117 419 157L509 150Q488 79 429.5 33.5Q371 -12 287 -12ZM132 313H425Q419 390 380.5 426.0Q342 462 283 462Q222 462 182.5 424.5Q143 387 132 313Z" transform="translate(441.37 128.00) scale(0.01550 -0.01550)"/><path d="M80 0V530H154L157 432Q184 530 283 530H335V450H284Q164 450 164 320V0Z" transform="translate(450.07 128.00) scale(0.01550 -0.01550)"/><path d="M132 0V456H60V530H132V578Q132 637 166.0 673.5Q200 710 272 710H356V636H278Q247 636 231.5 619.0Q216 602 216 572V530H349V456H216V0Z" transform="translate(455.94 128.00) scale(0.01550 -0.01550)"/><path d="M80 0V530H164V0ZM78 613V711H166V613Z" transform="translate(462.06 128.00) scale(0.01550 -0.01550)"/><path d="M184 0Q138 0 109.0 24.0Q80 48 80 100V710H164V107Q164 74 197 74H243V0Z" transform="translate(465.85 128.00) scale(0.01550 -0.01550)"/><path d="M287 -12Q212 -12 157.5 22.0Q103 56 73.5 118.5Q44 181 44 265Q44 349 73.5 411.0Q103 473 156.5 507.5Q210 542 283 542Q352 542 405.0 509.5Q458 477 487.5 415.0Q517 353 517 264V239H132Q137 154 177.5 111.0Q218 68 287 68Q339 68 372.5 92.5Q406 117 419 157L509 150Q488 79 429.5 33.5Q371 -12 287 -12ZM132 313H425Q419 390 380.5 426.0Q342 462 283 462Q222 462 182.5 424.5Q143 387 132 313Z" transform="translate(469.98 128.00) scale(0.01550 -0.01550)"/><path d="M47 -156 95 0H44V113H157V14L97 -156Z" transform="translate(478.68 128.00) scale(0.01550 -0.01550)"/><path d="M80 0V530H157L159 435Q180 490 223.5 516.0Q267 542 322 542Q383 542 422.5 515.0Q462 488 481.5 442.5Q501 397 501 341V0H417V317Q417 391 390.5 429.5Q364 468 304 468Q243 468 203.5 429.5Q164 391 164 317V0Z" transform="translate(485.67 128.00) scale(0.01550 -0.01550)"/><path d="M287 -12Q214 -12 159.0 22.0Q104 56 74.0 118.5Q44 181 44 265Q44 350 74.0 412.0Q104 474 159.0 508.0Q214 542 287 542Q360 542 414.5 508.0Q469 474 499.0 412.0Q529 350 529 265Q529 181 499.0 118.5Q469 56 414.5 22.0Q360 -12 287 -12ZM287 68Q360 68 400.5 120.5Q441 173 441 265Q441 357 400.5 409.5Q360 462 287 462Q214 462 173.0 409.5Q132 357 132 265Q132 173 173.0 120.5Q214 68 287 68Z" transform="translate(494.68 128.00) scale(0.01550 -0.01550)"/></g><g fill="#45568a"><path d="M80 0V530H157L159 437Q179 486 218.0 514.0Q257 542 308 542Q368 542 409.0 513.0Q450 484 467 431Q484 484 524.0 513.0Q564 542 622 542Q707 542 752.0 489.5Q797 437 797 341V0H713V323Q713 468 602 468Q547 468 513.5 428.0Q480 388 480 317V0H396V317Q396 388 371.0 428.0Q346 468 287 468Q232 468 198.0 428.0Q164 388 164 317V0Z" transform="translate(34.00 151.00) scale(0.01550 -0.01550)"/><path d="M223 -12Q141 -12 92.5 26.0Q44 64 44 132Q44 200 84.0 239.0Q124 278 211 294L399 329Q399 462 273 462Q218 462 186.0 437.5Q154 413 142 367L53 374Q68 449 125.5 495.5Q183 542 273 542Q375 542 429.0 484.5Q483 427 483 326V107Q483 74 511 74H532V0Q520 -2 500 -2Q454 -2 430.5 16.5Q407 35 401 77L400 82Q380 41 331.0 14.5Q282 -12 223 -12ZM231 62Q311 62 355.0 107.0Q399 152 399 218V256L227 224Q173 214 152.5 193.5Q132 173 132 140Q132 103 158.5 82.5Q185 62 231 62Z" transform="translate(47.59 151.00) scale(0.01550 -0.01550)"/><path d="M80 0V530H157L159 435Q180 490 223.5 516.0Q267 542 322 542Q383 542 422.5 515.0Q462 488 481.5 442.5Q501 397 501 341V0H417V317Q417 391 390.5 429.5Q364 468 304 468Q243 468 203.5 429.5Q164 391 164 317V0Z" transform="translate(56.13 151.00) scale(0.01550 -0.01550)"/><path d="M80 0V530H164V0ZM78 613V711H166V613Z" transform="translate(65.14 151.00) scale(0.01550 -0.01550)"/><path d="M132 0V456H60V530H132V578Q132 637 166.0 673.5Q200 710 272 710H356V636H278Q247 636 231.5 619.0Q216 602 216 572V530H349V456H216V0Z" transform="translate(68.92 151.00) scale(0.01550 -0.01550)"/><path d="M287 -12Q212 -12 157.5 22.0Q103 56 73.5 118.5Q44 181 44 265Q44 349 73.5 411.0Q103 473 156.5 507.5Q210 542 283 542Q352 542 405.0 509.5Q458 477 487.5 415.0Q517 353 517 264V239H132Q137 154 177.5 111.0Q218 68 287 68Q339 68 372.5 92.5Q406 117 419 157L509 150Q488 79 429.5 33.5Q371 -12 287 -12ZM132 313H425Q419 390 380.5 426.0Q342 462 283 462Q222 462 182.5 424.5Q143 387 132 313Z" transform="translate(75.04 151.00) scale(0.01550 -0.01550)"/><path d="M273 -12Q164 -12 107.0 38.5Q50 89 44 167L132 173Q140 125 171.5 96.5Q203 68 273 68Q327 68 356.5 85.5Q386 103 386 142Q386 163 376.5 177.0Q367 191 339.0 201.5Q311 212 257 222Q183 236 141.0 257.0Q99 278 82.0 308.0Q65 338 65 380Q65 451 117.5 496.5Q170 542 266 542Q336 542 380.5 517.5Q425 493 448.0 454.0Q471 415 476 372L388 366Q384 404 356.5 433.0Q329 462 264 462Q207 462 180.0 440.0Q153 418 153 384Q153 345 178.0 326.5Q203 308 273 296Q351 283 395.0 263.0Q439 243 456.5 213.5Q474 184 474 142Q474 69 417.5 28.5Q361 -12 273 -12Z" transform="translate(83.74 151.00) scale(0.01550 -0.01550)"/><path d="M274 0Q202 0 167.5 33.0Q133 66 133 136V456H55V530H133V654H217V530H358V456H217V138Q217 102 233.0 88.0Q249 74 282 74H358V0Z" transform="translate(91.80 151.00) scale(0.01550 -0.01550)"/><path d="M273 -12Q164 -12 107.0 38.5Q50 89 44 167L132 173Q140 125 171.5 96.5Q203 68 273 68Q327 68 356.5 85.5Q386 103 386 142Q386 163 376.5 177.0Q367 191 339.0 201.5Q311 212 257 222Q183 236 141.0 257.0Q99 278 82.0 308.0Q65 338 65 380Q65 451 117.5 496.5Q170 542 266 542Q336 542 380.5 517.5Q425 493 448.0 454.0Q471 415 476 372L388 366Q384 404 356.5 433.0Q329 462 264 462Q207 462 180.0 440.0Q153 418 153 384Q153 345 178.0 326.5Q203 308 273 296Q351 283 395.0 263.0Q439 243 456.5 213.5Q474 184 474 142Q474 69 417.5 28.5Q361 -12 273 -12Z" transform="translate(97.88 151.00) scale(0.01550 -0.01550)"/><path d="M47 -156 95 0H44V113H157V14L97 -156Z" transform="translate(105.94 151.00) scale(0.01550 -0.01550)"/><path d="M80 0V530H157L159 435Q180 490 223.5 516.0Q267 542 322 542Q383 542 422.5 515.0Q462 488 481.5 442.5Q501 397 501 341V0H417V317Q417 391 390.5 429.5Q364 468 304 468Q243 468 203.5 429.5Q164 391 164 317V0Z" transform="translate(112.93 151.00) scale(0.01550 -0.01550)"/><path d="M287 -12Q214 -12 159.0 22.0Q104 56 74.0 118.5Q44 181 44 265Q44 350 74.0 412.0Q104 474 159.0 508.0Q214 542 287 542Q360 542 414.5 508.0Q469 474 499.0 412.0Q529 350 529 265Q529 181 499.0 118.5Q469 56 414.5 22.0Q360 -12 287 -12ZM287 68Q360 68 400.5 120.5Q441 173 441 265Q441 357 400.5 409.5Q360 462 287 462Q214 462 173.0 409.5Q132 357 132 265Q132 173 173.0 120.5Q214 68 287 68Z" transform="translate(121.93 151.00) scale(0.01550 -0.01550)"/><path d="M80 0V530H164V0ZM78 613V711H166V613Z" transform="translate(134.69 151.00) scale(0.01550 -0.01550)"/><path d="M80 0V530H157L159 435Q180 490 223.5 516.0Q267 542 322 542Q383 542 422.5 515.0Q462 488 481.5 442.5Q501 397 501 341V0H417V317Q417 391 390.5 429.5Q364 468 304 468Q243 468 203.5 429.5Q164 391 164 317V0Z" transform="translate(138.47 151.00) scale(0.01550 -0.01550)"/><path d="M132 0V456H60V530H132V578Q132 637 166.0 673.5Q200 710 272 710H356V636H278Q247 636 231.5 619.0Q216 602 216 572V530H349V456H216V0Z" transform="translate(147.48 151.00) scale(0.01550 -0.01550)"/><path d="M80 0V530H154L157 432Q184 530 283 530H335V450H284Q164 450 164 320V0Z" transform="translate(153.60 151.00) scale(0.01550 -0.01550)"/><path d="M223 -12Q141 -12 92.5 26.0Q44 64 44 132Q44 200 84.0 239.0Q124 278 211 294L399 329Q399 462 273 462Q218 462 186.0 437.5Q154 413 142 367L53 374Q68 449 125.5 495.5Q183 542 273 542Q375 542 429.0 484.5Q483 427 483 326V107Q483 74 511 74H532V0Q520 -2 500 -2Q454 -2 430.5 16.5Q407 35 401 77L400 82Q380 41 331.0 14.5Q282 -12 223 -12ZM231 62Q311 62 355.0 107.0Q399 152 399 218V256L227 224Q173 214 152.5 193.5Q132 173 132 140Q132 103 158.5 82.5Q185 62 231 62Z" transform="translate(159.47 151.00) scale(0.01550 -0.01550)"/><path d="M273 -12Q164 -12 107.0 38.5Q50 89 44 167L132 173Q140 125 171.5 96.5Q203 68 273 68Q327 68 356.5 85.5Q386 103 386 142Q386 163 376.5 177.0Q367 191 339.0 201.5Q311 212 257 222Q183 236 141.0 257.0Q99 278 82.0 308.0Q65 338 65 380Q65 451 117.5 496.5Q170 542 266 542Q336 542 380.5 517.5Q425 493 448.0 454.0Q471 415 476 372L388 366Q384 404 356.5 433.0Q329 462 264 462Q207 462 180.0 440.0Q153 418 153 384Q153 345 178.0 326.5Q203 308 273 296Q351 283 395.0 263.0Q439 243 456.5 213.5Q474 184 474 142Q474 69 417.5 28.5Q361 -12 273 -12Z" transform="translate(168.01 151.00) scale(0.01550 -0.01550)"/><path d="M274 0Q202 0 167.5 33.0Q133 66 133 136V456H55V530H133V654H217V530H358V456H217V138Q217 102 233.0 88.0Q249 74 282 74H358V0Z" transform="translate(176.07 151.00) scale(0.01550 -0.01550)"/><path d="M80 0V530H154L157 432Q184 530 283 530H335V450H284Q164 450 164 320V0Z" transform="translate(182.15 151.00) scale(0.01550 -0.01550)"/><path d="M254 -12Q175 -12 127.5 41.5Q80 95 80 189V530H164V212Q164 135 191.5 98.5Q219 62 276 62Q339 62 375.0 102.5Q411 143 411 214V530H495V0H415V86Q371 -12 254 -12Z" transform="translate(188.02 151.00) scale(0.01550 -0.01550)"/><path d="M287 -12Q213 -12 158.5 22.0Q104 56 74.0 118.5Q44 181 44 265Q44 349 74.0 411.0Q104 473 158.5 507.5Q213 542 287 542Q379 542 439.0 494.5Q499 447 512 358L424 352Q415 405 378.0 433.5Q341 462 287 462Q214 462 173.0 409.5Q132 357 132 265Q132 173 173.0 120.5Q214 68 287 68Q341 68 378.0 98.0Q415 128 424 188L512 182Q499 94 439.0 41.0Q379 -12 287 -12Z" transform="translate(196.94 151.00) scale(0.01550 -0.01550)"/><path d="M274 0Q202 0 167.5 33.0Q133 66 133 136V456H55V530H133V654H217V530H358V456H217V138Q217 102 233.0 88.0Q249 74 282 74H358V0Z" transform="translate(205.40 151.00) scale(0.01550 -0.01550)"/><path d="M254 -12Q175 -12 127.5 41.5Q80 95 80 189V530H164V212Q164 135 191.5 98.5Q219 62 276 62Q339 62 375.0 102.5Q411 143 411 214V530H495V0H415V86Q371 -12 254 -12Z" transform="translate(211.48 151.00) scale(0.01550 -0.01550)"/><path d="M80 0V530H154L157 432Q184 530 283 530H335V450H284Q164 450 164 320V0Z" transform="translate(220.39 151.00) scale(0.01550 -0.01550)"/><path d="M287 -12Q212 -12 157.5 22.0Q103 56 73.5 118.5Q44 181 44 265Q44 349 73.5 411.0Q103 473 156.5 507.5Q210 542 283 542Q352 542 405.0 509.5Q458 477 487.5 415.0Q517 353 517 264V239H132Q137 154 177.5 111.0Q218 68 287 68Q339 68 372.5 92.5Q406 117 419 157L509 150Q488 79 429.5 33.5Q371 -12 287 -12ZM132 313H425Q419 390 380.5 426.0Q342 462 283 462Q222 462 182.5 424.5Q143 387 132 313Z" transform="translate(226.26 151.00) scale(0.01550 -0.01550)"/><path d="M274 0Q202 0 167.5 33.0Q133 66 133 136V456H55V530H133V654H217V530H358V456H217V138Q217 102 233.0 88.0Q249 74 282 74H358V0Z" transform="translate(238.83 151.00) scale(0.01550 -0.01550)"/><path d="M287 -12Q214 -12 159.0 22.0Q104 56 74.0 118.5Q44 181 44 265Q44 350 74.0 412.0Q104 474 159.0 508.0Q214 542 287 542Q360 542 414.5 508.0Q469 474 499.0 412.0Q529 350 529 265Q529 181 499.0 118.5Q469 56 414.5 22.0Q360 -12 287 -12ZM287 68Q360 68 400.5 120.5Q441 173 441 265Q441 357 400.5 409.5Q360 462 287 462Q214 462 173.0 409.5Q132 357 132 265Q132 173 173.0 120.5Q214 68 287 68Z" transform="translate(244.91 151.00) scale(0.01550 -0.01550)"/><path d="M80 0V710H164V447Q185 496 227.0 519.0Q269 542 324 542Q410 542 455.5 486.0Q501 430 501 341V0H417V317Q417 468 306 468Q242 468 203.0 429.0Q164 390 164 316V0Z" transform="translate(257.67 151.00) scale(0.01550 -0.01550)"/><path d="M223 -12Q141 -12 92.5 26.0Q44 64 44 132Q44 200 84.0 239.0Q124 278 211 294L399 329Q399 462 273 462Q218 462 186.0 437.5Q154 413 142 367L53 374Q68 449 125.5 495.5Q183 542 273 542Q375 542 429.0 484.5Q483 427 483 326V107Q483 74 511 74H532V0Q520 -2 500 -2Q454 -2 430.5 16.5Q407 35 401 77L400 82Q380 41 331.0 14.5Q282 -12 223 -12ZM231 62Q311 62 355.0 107.0Q399 152 399 218V256L227 224Q173 214 152.5 193.5Q132 173 132 140Q132 103 158.5 82.5Q185 62 231 62Z" transform="translate(266.67 151.00) scale(0.01550 -0.01550)"/><path d="M80 0V530H157L159 435Q180 490 223.5 516.0Q267 542 322 542Q383 542 422.5 515.0Q462 488 481.5 442.5Q501 397 501 341V0H417V317Q417 391 390.5 429.5Q364 468 304 468Q243 468 203.5 429.5Q164 391 164 317V0Z" transform="translate(275.21 151.00) scale(0.01550 -0.01550)"/><path d="M268 -12Q199 -12 148.5 22.0Q98 56 71.0 118.0Q44 180 44 265Q44 350 71.0 412.0Q98 474 148.5 508.0Q199 542 268 542Q321 542 365.0 519.5Q409 497 431 456V710H515V0H439L436 80Q414 37 369.0 12.5Q324 -12 268 -12ZM285 68Q356 68 393.5 121.0Q431 174 431 265Q431 357 393.5 409.5Q356 462 285 462Q215 462 173.5 409.5Q132 357 132 265Q132 174 173.5 121.0Q215 68 285 68Z" transform="translate(284.22 151.00) scale(0.01550 -0.01550)"/><path d="M44 252V331H375V252Z" transform="translate(293.44 151.00) scale(0.01550 -0.01550)"/><path d="M186 0 22 530H114L238 88L364 530H454L580 88L705 530H797L633 0H527L409 403L291 0Z" transform="translate(299.93 151.00) scale(0.01550 -0.01550)"/><path d="M80 0V530H154L157 432Q184 530 283 530H335V450H284Q164 450 164 320V0Z" transform="translate(312.63 151.00) scale(0.01550 -0.01550)"/><path d="M80 0V530H164V0ZM78 613V711H166V613Z" transform="translate(318.50 151.00) scale(0.01550 -0.01550)"/><path d="M274 0Q202 0 167.5 33.0Q133 66 133 136V456H55V530H133V654H217V530H358V456H217V138Q217 102 233.0 88.0Q249 74 282 74H358V0Z" transform="translate(322.28 151.00) scale(0.01550 -0.01550)"/><path d="M287 -12Q212 -12 157.5 22.0Q103 56 73.5 118.5Q44 181 44 265Q44 349 73.5 411.0Q103 473 156.5 507.5Q210 542 283 542Q352 542 405.0 509.5Q458 477 487.5 415.0Q517 353 517 264V239H132Q137 154 177.5 111.0Q218 68 287 68Q339 68 372.5 92.5Q406 117 419 157L509 150Q488 79 429.5 33.5Q371 -12 287 -12ZM132 313H425Q419 390 380.5 426.0Q342 462 283 462Q222 462 182.5 424.5Q143 387 132 313Z" transform="translate(328.36 151.00) scale(0.01550 -0.01550)"/><path d="M44 0V113H157V0Z" transform="translate(337.06 151.00) scale(0.01550 -0.01550)"/></g><rect x="34.0" y="202.0" width="66.3" height="22.5" rx="11.2" fill="#f0d6a4" stroke="#e6c78f" stroke-width="1.2"/><g fill="#16305e"><path d="M100 0V710H540V628H186V388H522V306H186V0Z" transform="translate(43.00 217.16) scale(0.01150 -0.01150)"/><path d="M230 -12Q180 -12 140.0 6.0Q100 24 77.0 56.5Q54 89 54 132Q54 200 94.5 237.5Q135 275 222 292L400 328Q400 396 369.5 429.0Q339 462 282 462Q227 462 196.0 437.5Q165 413 153 367L64 374Q79 449 135.5 495.5Q192 542 282 542Q378 542 431.0 484.5Q484 427 484 326V106Q484 88 492.0 81.0Q500 74 516 74H550V0Q534 -2 506 -2Q464 -2 438.5 15.0Q413 32 404 70L403 75Q382 36 334.5 12.0Q287 -12 230 -12ZM238 62Q319 62 359.5 103.0Q400 144 400 210V256L238 224Q184 214 163.0 193.5Q142 173 142 140Q142 103 167.5 82.5Q193 62 238 62Z" transform="translate(49.90 217.16) scale(0.01150 -0.01150)"/><path d="M310 -12Q241 -12 191.0 12.0Q141 36 112.5 76.5Q84 117 80 167L168 173Q176 124 211.5 96.0Q247 68 310 68Q369 68 401.5 85.0Q434 102 434 138Q434 161 423.0 176.0Q412 191 382.0 201.5Q352 212 294 222Q217 236 173.5 256.5Q130 277 112.0 308.0Q94 339 94 382Q94 451 146.0 496.5Q198 542 295 542Q361 542 405.5 518.5Q450 495 476.0 456.5Q502 418 510 372L422 366Q413 408 380.5 435.0Q348 462 294 462Q236 462 208.0 439.0Q180 416 180 382Q180 342 210.0 325.0Q240 308 312 296Q394 283 439.0 262.5Q484 242 502.0 212.0Q520 182 520 138Q520 91 492.5 57.5Q465 24 417.5 6.0Q370 -12 310 -12Z" transform="translate(56.80 217.16) scale(0.01150 -0.01150)"/><path d="M378 0Q225 0 225 146V456H50V530H225V654H309V530H520V456H309V146Q309 74 378 74H520V0Z" transform="translate(63.70 217.16) scale(0.01150 -0.01150)"/><path d="M80 0V74H293V456H90V530H377V74H560V0ZM285 613V711H373V613Z" transform="translate(70.60 217.16) scale(0.01150 -0.01150)"/><path d="M212 0V456H70V530H212V564Q212 635 248.5 672.5Q285 710 360 710H530V636H360Q329 636 312.5 616.5Q296 597 296 564V530H520V456H296V0Z" transform="translate(77.50 217.16) scale(0.01150 -0.01150)"/><path d="M136 -150V-76H197Q225 -76 238.5 -67.5Q252 -59 259 -40L278 10H249L52 530H144L305 88L456 530H548L333 -67Q318 -110 288.0 -130.0Q258 -150 205 -150Z" transform="translate(84.40 217.16) scale(0.01150 -0.01150)"/></g><rect x="106.3" y="202.0" width="73.2" height="22.5" rx="11.2" fill="#f0d6a4" stroke="#e6c78f" stroke-width="1.2"/><g fill="#16305e"><path d="M90 0V710H306Q417 710 483.5 652.5Q550 595 550 493Q550 391 483.5 333.5Q417 276 306 276H176V0ZM176 360H296Q380 360 420.0 394.5Q460 429 460 493Q460 558 420.0 592.0Q380 626 296 626H176Z" transform="translate(115.30 217.16) scale(0.01150 -0.01150)"/><path d="M300 -12Q227 -12 172.5 22.0Q118 56 88.0 118.5Q58 181 58 265Q58 350 88.0 412.0Q118 474 172.5 508.0Q227 542 300 542Q373 542 427.5 508.0Q482 474 512.0 412.0Q542 350 542 265Q542 181 512.0 118.5Q482 56 427.5 22.0Q373 -12 300 -12ZM300 68Q373 68 413.5 120.5Q454 173 454 265Q454 357 413.5 409.5Q373 462 300 462Q227 462 186.5 409.5Q146 357 146 265Q146 173 186.5 120.5Q227 68 300 68Z" transform="translate(122.20 217.16) scale(0.01150 -0.01150)"/><path d="M310 -12Q241 -12 191.0 12.0Q141 36 112.5 76.5Q84 117 80 167L168 173Q176 124 211.5 96.0Q247 68 310 68Q369 68 401.5 85.0Q434 102 434 138Q434 161 423.0 176.0Q412 191 382.0 201.5Q352 212 294 222Q217 236 173.5 256.5Q130 277 112.0 308.0Q94 339 94 382Q94 451 146.0 496.5Q198 542 295 542Q361 542 405.5 518.5Q450 495 476.0 456.5Q502 418 510 372L422 366Q413 408 380.5 435.0Q348 462 294 462Q236 462 208.0 439.0Q180 416 180 382Q180 342 210.0 325.0Q240 308 312 296Q394 283 439.0 262.5Q484 242 502.0 212.0Q520 182 520 138Q520 91 492.5 57.5Q465 24 417.5 6.0Q370 -12 310 -12Z" transform="translate(129.10 217.16) scale(0.01150 -0.01150)"/><path d="M378 0Q225 0 225 146V456H50V530H225V654H309V530H520V456H309V146Q309 74 378 74H520V0Z" transform="translate(136.00 217.16) scale(0.01150 -0.01150)"/><path d="M297 -162Q212 -162 152.0 -120.0Q92 -78 75 -8L163 -2Q175 -39 205.5 -60.5Q236 -82 297 -82Q369 -82 407.5 -53.0Q446 -24 446 34V120Q427 78 385.0 53.0Q343 28 291 28Q224 28 171.5 61.0Q119 94 89.5 152.0Q60 210 60 285Q60 361 89.0 418.5Q118 476 169.5 509.0Q221 542 287 542Q343 542 387.5 516.0Q432 490 450 446V530H530V36Q530 -57 468.5 -109.5Q407 -162 297 -162ZM295 108Q363 108 404.0 155.5Q445 203 446 285Q448 367 406.0 414.5Q364 462 295 462Q225 462 186.5 414.5Q148 367 148 285Q148 203 187.5 155.5Q227 108 295 108Z" transform="translate(142.90 217.16) scale(0.01150 -0.01150)"/><path d="M90 0V74H228V456H90V530H298L304 427Q329 530 431 530H540V454H432Q374 454 343.0 419.5Q312 385 312 320V74H480V0Z" transform="translate(149.80 217.16) scale(0.01150 -0.01150)"/><path d="M306 -12Q231 -12 176.5 22.0Q122 56 92.5 118.5Q63 181 63 265Q63 349 92.5 411.0Q122 473 175.5 507.5Q229 542 302 542Q371 542 424.0 509.5Q477 477 507.0 415.0Q537 353 537 264V239H151Q156 154 196.5 111.0Q237 68 306 68Q358 68 391.5 92.5Q425 117 438 157L528 150Q507 79 448.5 33.5Q390 -12 306 -12ZM151 313H445Q439 390 400.0 426.0Q361 462 302 462Q241 462 201.5 424.5Q162 387 151 313Z" transform="translate(156.70 217.16) scale(0.01150 -0.01150)"/><path d="M310 -12Q241 -12 191.0 12.0Q141 36 112.5 76.5Q84 117 80 167L168 173Q176 124 211.5 96.0Q247 68 310 68Q369 68 401.5 85.0Q434 102 434 138Q434 161 423.0 176.0Q412 191 382.0 201.5Q352 212 294 222Q217 236 173.5 256.5Q130 277 112.0 308.0Q94 339 94 382Q94 451 146.0 496.5Q198 542 295 542Q361 542 405.5 518.5Q450 495 476.0 456.5Q502 418 510 372L422 366Q413 408 380.5 435.0Q348 462 294 462Q236 462 208.0 439.0Q180 416 180 382Q180 342 210.0 325.0Q240 308 312 296Q394 283 439.0 262.5Q484 242 502.0 212.0Q520 182 520 138Q520 91 492.5 57.5Q465 24 417.5 6.0Q370 -12 310 -12Z" transform="translate(163.60 217.16) scale(0.01150 -0.01150)"/></g><rect x="185.5" y="202.0" width="52.5" height="22.5" rx="11.2" fill="#f0d6a4" stroke="#e6c78f" stroke-width="1.2"/><g fill="#16305e"><path d="M70 0V710H286Q398 710 463.0 653.5Q528 597 528 498Q528 435 491.5 390.5Q455 346 408 331Q459 321 485.0 291.0Q511 261 516 204L534 0H448L431 193Q427 243 400.0 264.5Q373 286 304 286H156V0ZM156 370H286Q360 370 399.0 403.5Q438 437 438 498Q438 560 399.0 593.0Q360 626 286 626H156Z" transform="translate(194.50 217.16) scale(0.01150 -0.01150)"/><path d="M306 -12Q231 -12 176.5 22.0Q122 56 92.5 118.5Q63 181 63 265Q63 349 92.5 411.0Q122 473 175.5 507.5Q229 542 302 542Q371 542 424.0 509.5Q477 477 507.0 415.0Q537 353 537 264V239H151Q156 154 196.5 111.0Q237 68 306 68Q358 68 391.5 92.5Q425 117 438 157L528 150Q507 79 448.5 33.5Q390 -12 306 -12ZM151 313H445Q439 390 400.0 426.0Q361 462 302 462Q241 462 201.5 424.5Q162 387 151 313Z" transform="translate(201.40 217.16) scale(0.01150 -0.01150)"/><path d="M267 -12Q197 -12 146.0 22.0Q95 56 67.5 118.0Q40 180 40 265Q40 350 67.5 412.0Q95 474 146.0 508.0Q197 542 267 542Q323 542 365.0 515.5Q407 489 426 456V710H510V0H434L431 79Q408 36 365.0 12.0Q322 -12 267 -12ZM272 68Q344 68 385.0 121.0Q426 174 426 265Q426 357 385.0 409.5Q344 462 270 462Q205 462 166.5 409.5Q128 357 128 265Q128 174 166.5 121.0Q205 68 272 68Z" transform="translate(208.30 217.16) scale(0.01150 -0.01150)"/><path d="M80 0V74H293V456H90V530H377V74H560V0ZM285 613V711H373V613Z" transform="translate(215.20 217.16) scale(0.01150 -0.01150)"/><path d="M310 -12Q241 -12 191.0 12.0Q141 36 112.5 76.5Q84 117 80 167L168 173Q176 124 211.5 96.0Q247 68 310 68Q369 68 401.5 85.0Q434 102 434 138Q434 161 423.0 176.0Q412 191 382.0 201.5Q352 212 294 222Q217 236 173.5 256.5Q130 277 112.0 308.0Q94 339 94 382Q94 451 146.0 496.5Q198 542 295 542Q361 542 405.5 518.5Q450 495 476.0 456.5Q502 418 510 372L422 366Q413 408 380.5 435.0Q348 462 294 462Q236 462 208.0 439.0Q180 416 180 382Q180 342 210.0 325.0Q240 308 312 296Q394 283 439.0 262.5Q484 242 502.0 212.0Q520 182 520 138Q520 91 492.5 57.5Q465 24 417.5 6.0Q370 -12 310 -12Z" transform="translate(222.10 217.16) scale(0.01150 -0.01150)"/></g><rect x="244.0" y="202.0" width="52.5" height="22.5" rx="11.2" fill="#f0d6a4" stroke="#e6c78f" stroke-width="1.2"/><g fill="#16305e"><path d="M60 0V710H146V354L444 710H550L283 398L560 0H454L226 331L146 238V0Z" transform="translate(253.00 217.16) scale(0.01150 -0.01150)"/><path d="M230 -12Q180 -12 140.0 6.0Q100 24 77.0 56.5Q54 89 54 132Q54 200 94.5 237.5Q135 275 222 292L400 328Q400 396 369.5 429.0Q339 462 282 462Q227 462 196.0 437.5Q165 413 153 367L64 374Q79 449 135.5 495.5Q192 542 282 542Q378 542 431.0 484.5Q484 427 484 326V106Q484 88 492.0 81.0Q500 74 516 74H550V0Q534 -2 506 -2Q464 -2 438.5 15.0Q413 32 404 70L403 75Q382 36 334.5 12.0Q287 -12 230 -12ZM238 62Q319 62 359.5 103.0Q400 144 400 210V256L238 224Q184 214 163.0 193.5Q142 173 142 140Q142 103 167.5 82.5Q193 62 238 62Z" transform="translate(259.90 217.16) scale(0.01150 -0.01150)"/><path d="M212 0V456H70V530H212V564Q212 635 248.5 672.5Q285 710 360 710H530V636H360Q329 636 312.5 616.5Q296 597 296 564V530H520V456H296V0Z" transform="translate(266.80 217.16) scale(0.01150 -0.01150)"/><path d="M90 0V710H174V245L432 530H544L335 305L554 0H452L278 248L174 138V0Z" transform="translate(273.70 217.16) scale(0.01150 -0.01150)"/><path d="M230 -12Q180 -12 140.0 6.0Q100 24 77.0 56.5Q54 89 54 132Q54 200 94.5 237.5Q135 275 222 292L400 328Q400 396 369.5 429.0Q339 462 282 462Q227 462 196.0 437.5Q165 413 153 367L64 374Q79 449 135.5 495.5Q192 542 282 542Q378 542 431.0 484.5Q484 427 484 326V106Q484 88 492.0 81.0Q500 74 516 74H550V0Q534 -2 506 -2Q464 -2 438.5 15.0Q413 32 404 70L403 75Q382 36 334.5 12.0Q287 -12 230 -12ZM238 62Q319 62 359.5 103.0Q400 144 400 210V256L238 224Q184 214 163.0 193.5Q142 173 142 140Q142 103 167.5 82.5Q193 62 238 62Z" transform="translate(280.60 217.16) scale(0.01150 -0.01150)"/></g><rect x="302.5" y="202.0" width="45.6" height="22.5" rx="11.2" fill="#f0d6a4" stroke="#e6c78f" stroke-width="1.2"/><g fill="#16305e"><path d="M60 0V710H146V399H454V710H540V0H454V315H146V0Z" transform="translate(311.50 217.16) scale(0.01150 -0.01150)"/><path d="M306 -12Q231 -12 176.5 22.0Q122 56 92.5 118.5Q63 181 63 265Q63 349 92.5 411.0Q122 473 175.5 507.5Q229 542 302 542Q371 542 424.0 509.5Q477 477 507.0 415.0Q537 353 537 264V239H151Q156 154 196.5 111.0Q237 68 306 68Q358 68 391.5 92.5Q425 117 438 157L528 150Q507 79 448.5 33.5Q390 -12 306 -12ZM151 313H445Q439 390 400.0 426.0Q361 462 302 462Q241 462 201.5 424.5Q162 387 151 313Z" transform="translate(318.40 217.16) scale(0.01150 -0.01150)"/><path d="M60 0V74H273V568Q273 600 255.0 618.0Q237 636 205 636H80V710H209Q357 710 357 562V74H540V0Z" transform="translate(325.30 217.16) scale(0.01150 -0.01150)"/><path d="M40 0V530H117L119 452Q133 494 159.5 518.0Q186 542 224 542Q303 542 323 443L324 437Q337 486 366.5 514.0Q396 542 438 542Q502 542 531.0 498.0Q560 454 560 352V0H476V340Q476 411 461.0 439.5Q446 468 414 468Q383 468 362.5 437.0Q342 406 342 338V0H258V340Q258 408 243.5 438.0Q229 468 196 468Q165 468 144.5 437.0Q124 406 124 338V0Z" transform="translate(332.20 217.16) scale(0.01150 -0.01150)"/></g><rect x="354.1" y="202.0" width="38.7" height="22.5" rx="11.2" fill="#f0d6a4" stroke="#e6c78f" stroke-width="1.2"/><g fill="#16305e"><path d="M60 0V710H146V354L444 710H550L283 398L560 0H454L226 331L146 238V0Z" transform="translate(363.10 217.16) scale(0.01150 -0.01150)"/><path d="M300 -16Q230 -16 173.0 8.0Q116 32 83.0 79.0Q50 126 50 195Q50 264 87.0 312.0Q124 360 187 382Q140 401 112.0 437.5Q84 474 84 531Q84 587 112.0 631.0Q140 675 188.5 700.5Q237 726 300 726Q363 726 412.0 700.5Q461 675 488.5 631.0Q516 587 516 531Q516 474 488.0 437.5Q460 401 413 382Q476 360 513.0 312.0Q550 264 550 195Q550 126 517.0 79.0Q484 32 427.5 8.0Q371 -16 300 -16ZM300 417Q357 417 391.5 445.5Q426 474 426 531Q426 582 392.5 612.0Q359 642 300 642Q242 642 208.0 612.0Q174 582 174 531Q174 474 208.5 445.5Q243 417 300 417ZM300 68Q370 68 415.0 100.5Q460 133 460 200Q460 262 420.0 299.5Q380 337 300 337Q221 337 180.5 299.5Q140 262 140 200Q140 133 185.0 100.5Q230 68 300 68Z" transform="translate(370.00 217.16) scale(0.01150 -0.01150)"/><path d="M310 -12Q241 -12 191.0 12.0Q141 36 112.5 76.5Q84 117 80 167L168 173Q176 124 211.5 96.0Q247 68 310 68Q369 68 401.5 85.0Q434 102 434 138Q434 161 423.0 176.0Q412 191 382.0 201.5Q352 212 294 222Q217 236 173.5 256.5Q130 277 112.0 308.0Q94 339 94 382Q94 451 146.0 496.5Q198 542 295 542Q361 542 405.5 518.5Q450 495 476.0 456.5Q502 418 510 372L422 366Q413 408 380.5 435.0Q348 462 294 462Q236 462 208.0 439.0Q180 416 180 382Q180 342 210.0 325.0Q240 308 312 296Q394 283 439.0 262.5Q484 242 502.0 212.0Q520 182 520 138Q520 91 492.5 57.5Q465 24 417.5 6.0Q370 -12 310 -12Z" transform="translate(376.90 217.16) scale(0.01150 -0.01150)"/></g><g fill="#16305e"><path d="M276 0 20 710H135L344 120L553 710H668L411 0Z" transform="translate(34.00 274.00) scale(0.01400 -0.01400)"/><path d="M75 0V532H181V0ZM73 609V715H183V609Z" transform="translate(43.63 274.00) scale(0.01400 -0.01400)"/><path d="M294 -12Q216 -12 159.5 22.5Q103 57 72.5 119.5Q42 182 42 266Q42 350 72.5 412.5Q103 475 159.0 509.5Q215 544 291 544Q363 544 418.0 510.5Q473 477 503.5 414.0Q534 351 534 262V235H152Q156 157 193.5 118.0Q231 79 295 79Q342 79 372.5 100.5Q403 122 416 160L526 153Q505 78 443.5 33.0Q382 -12 294 -12ZM152 315H422Q417 386 381.0 420.0Q345 454 291 454Q234 454 197.5 418.5Q161 383 152 315Z" transform="translate(47.22 274.00) scale(0.01400 -0.01400)"/><path d="M184 0 22 532H133L247 116L364 532H464L581 116L696 532H807L645 0H526L414 380L302 0Z" transform="translate(55.28 274.00) scale(0.01400 -0.01400)"/><path d="M75 0V532H172L175 431Q190 483 221.5 507.5Q253 532 302 532H353V437H302Q241 437 211.0 407.0Q181 377 181 314V0Z" transform="translate(70.29 274.00) scale(0.01400 -0.01400)"/><path d="M294 -12Q216 -12 159.5 22.5Q103 57 72.5 119.5Q42 182 42 266Q42 350 72.5 412.5Q103 475 159.0 509.5Q215 544 291 544Q363 544 418.0 510.5Q473 477 503.5 414.0Q534 351 534 262V235H152Q156 157 193.5 118.0Q231 79 295 79Q342 79 372.5 100.5Q403 122 416 160L526 153Q505 78 443.5 33.0Q382 -12 294 -12ZM152 315H422Q417 386 381.0 420.0Q345 454 291 454Q234 454 197.5 418.5Q161 383 152 315Z" transform="translate(75.80 274.00) scale(0.01400 -0.01400)"/><path d="M75 -150V532H175L177 451Q200 497 242.5 520.5Q285 544 338 544Q416 544 466.5 505.5Q517 467 541.5 404.0Q566 341 566 266Q566 191 541.5 128.0Q517 65 466.5 26.5Q416 -12 338 -12Q287 -12 245.0 10.5Q203 33 181 72V-150ZM319 80Q383 80 419.5 129.0Q456 178 456 266Q456 354 419.5 403.0Q383 452 319 452Q255 452 218.0 405.0Q181 358 181 266Q181 174 218.0 127.0Q255 80 319 80Z" transform="translate(83.87 274.00) scale(0.01400 -0.01400)"/><path d="M294 -12Q218 -12 161.0 22.5Q104 57 73.0 119.0Q42 181 42 266Q42 351 73.0 413.0Q104 475 161.0 509.5Q218 544 294 544Q370 544 427.0 509.5Q484 475 515.0 413.0Q546 351 546 266Q546 181 515.0 119.0Q484 57 427.0 22.5Q370 -12 294 -12ZM294 80Q362 80 399.0 129.0Q436 178 436 266Q436 353 399.0 402.5Q362 452 294 452Q227 452 189.5 402.5Q152 353 152 266Q152 178 189.5 129.0Q227 80 294 80Z" transform="translate(92.38 274.00) scale(0.01400 -0.01400)"/><path d="M280 -12Q164 -12 106.0 38.5Q48 89 42 168L151 173Q158 129 187.0 103.0Q216 77 280 77Q330 77 356.5 93.0Q383 109 383 144Q383 164 374.0 177.0Q365 190 339.0 199.5Q313 209 262 218Q184 233 140.5 253.5Q97 274 79.0 304.5Q61 335 61 379Q61 451 116.0 497.5Q171 544 275 544Q348 544 395.0 519.5Q442 495 466.0 455.0Q490 415 495 369L386 363Q383 401 357.5 428.0Q332 455 273 455Q221 455 196.0 435.0Q171 415 171 383Q171 348 194.5 330.5Q218 313 283 303Q364 290 409.5 269.5Q455 249 474.0 218.5Q493 188 493 145Q493 70 434.0 29.0Q375 -12 280 -12Z" transform="translate(100.61 274.00) scale(0.01400 -0.01400)"/><path d="M75 0V532H181V0ZM73 609V715H183V609Z" transform="translate(108.13 274.00) scale(0.01400 -0.01400)"/><path d="M279 0Q203 0 167.0 34.5Q131 69 131 144V445H50V532H131V657H237V532H378V445H237V152Q237 115 253.0 101.0Q269 87 302 87H378V0Z" transform="translate(111.71 274.00) scale(0.01400 -0.01400)"/><path d="M294 -12Q218 -12 161.0 22.5Q104 57 73.0 119.0Q42 181 42 266Q42 351 73.0 413.0Q104 475 161.0 509.5Q218 544 294 544Q370 544 427.0 509.5Q484 475 515.0 413.0Q546 351 546 266Q546 181 515.0 119.0Q484 57 427.0 22.5Q370 -12 294 -12ZM294 80Q362 80 399.0 129.0Q436 178 436 266Q436 353 399.0 402.5Q362 452 294 452Q227 452 189.5 402.5Q152 353 152 266Q152 178 189.5 129.0Q227 80 294 80Z" transform="translate(117.45 274.00) scale(0.01400 -0.01400)"/><path d="M75 0V532H172L175 431Q190 483 221.5 507.5Q253 532 302 532H353V437H302Q241 437 211.0 407.0Q181 377 181 314V0Z" transform="translate(125.69 274.00) scale(0.01400 -0.01400)"/><path d="M105 -150V-63H170Q197 -63 210.0 -55.0Q223 -47 230 -28L247 16H214L22 532H134L280 114L419 532H532L320 -62Q304 -108 272.5 -129.0Q241 -150 185 -150Z" transform="translate(131.20 274.00) scale(0.01400 -0.01400)"/></g><g transform="translate(147.94 261.50) scale(0.9375)" fill="none" stroke="#e8451c" stroke-width="2.03" stroke-linecap="round" stroke-linejoin="round"><path d="M3 8h9M8 4l4 4-4 4"/></g></svg>