<svg xmlns="http://www.w3.org/2000/svg" viewBox="0 0 1200 158" width="1200" height="158" font-family="sans-serif"><defs>
    <radialGradient id="flw" cx="88%" cy="6%" r="62%">
      <stop offset="0%" stop-color="#e8451c" stop-opacity="0.20"/>
      <stop offset="62%" stop-color="#e8451c" stop-opacity="0"/>
    </radialGradient>
    <radialGradient id="inw" cx="6%" cy="96%" r="70%">
      <stop offset="0%" stop-color="#16305e" stop-opacity="0.16"/>
      <stop offset="66%" stop-color="#16305e" stop-opacity="0"/>
    </radialGradient>
    <filter id="grw" x="0" y="0" width="100%" height="100%">
      <feTurbulence type="fractalNoise" baseFrequency="0.9" numOctaves="2" stitchTiles="stitch" result="n"/>
      <feColorMatrix in="n" type="saturate" values="0"/>
    </filter>
    <pattern id="htw" width="9" height="9" patternUnits="userSpaceOnUse">
      <circle cx="2" cy="2" r="1.9" fill="#e8451c"/>
    </pattern>
  </defs><rect x="0" y="0" width="1200" height="158" fill="#f7e7c8"/><rect x="0" y="0" width="1200" height="158" fill="url(#flw)"/><rect x="0" y="0" width="1200" height="158" fill="url(#inw)"/><rect x="0" y="0" width="1200" height="158" filter="url(#grw)" opacity="0.2" style="mix-blend-mode:multiply"/><g fill="#e8451c"><path d="M300 -16Q222 -16 165.5 29.0Q109 74 78.5 157.0Q48 240 48 354Q48 469 78.5 552.5Q109 636 165.5 681.0Q222 726 300 726Q378 726 434.5 681.0Q491 636 521.5 552.5Q552 469 552 354Q552 240 521.5 157.0Q491 74 434.5 29.0Q378 -16 300 -16ZM157 354Q157 265 176 202L384 587Q350 628 300 628Q233 628 195.0 556.0Q157 484 157 354ZM300 82Q367 82 405.0 154.0Q443 226 443 354Q443 444 424 507L215 123Q250 82 300 82Z" transform="translate(74.00 60.00) scale(0.01300 -0.01300)"/><path d="M48 0Q48 79 71.5 141.0Q95 203 153.0 257.5Q211 312 315 367Q359 390 387.5 410.5Q416 431 429.0 455.5Q442 480 442 514Q442 565 410.0 596.5Q378 628 316 628Q248 628 209.5 592.0Q171 556 161 489L52 496Q63 601 131.0 663.5Q199 726 316 726Q429 726 490.0 668.5Q551 611 551 518Q551 463 533.0 423.5Q515 384 473.0 349.5Q431 315 358 276Q266 227 221.0 181.0Q176 135 173 99H552V0Z" transform="translate(83.30 60.00) scale(0.01300 -0.01300)"/></g><g fill="#8794b4"><path d="M101 -110 403 750H499L197 -110Z" transform="translate(111.20 60.00) scale(0.01300 -0.01300)"/><path d="M309 -16Q232 -16 174.5 15.0Q117 46 83.0 101.5Q49 157 43 231L151 238Q161 162 203.0 122.0Q245 82 313 82Q378 82 413.5 107.5Q449 133 449 181Q449 212 434.5 235.0Q420 258 380.5 278.0Q341 298 266 319Q193 339 147.5 364.5Q102 390 80.5 427.5Q59 465 59 520Q59 612 122.5 669.0Q186 726 298 726Q409 726 472.0 662.5Q535 599 545 496L437 490Q429 551 394.0 589.5Q359 628 295 628Q236 628 201.5 600.0Q167 572 167 525Q167 494 181.0 474.0Q195 454 230.0 438.0Q265 422 328 405Q413 382 463.0 352.0Q513 322 535.0 280.5Q557 239 557 181Q557 122 526.0 77.5Q495 33 439.5 8.5Q384 -16 309 -16Z" transform="translate(139.10 60.00) scale(0.01300 -0.01300)"/><path d="M88 0V710H524V611H193V404H512V308H193V99H532V0Z" transform="translate(148.40 60.00) scale(0.01300 -0.01300)"/><path d="M98 0V710H203V99H542V0Z" transform="translate(157.70 60.00) scale(0.01300 -0.01300)"/><path d="M88 0V710H524V611H193V404H512V308H193V99H532V0Z" transform="translate(167.00 60.00) scale(0.01300 -0.01300)"/><path d="M303 -16Q217 -16 157.5 29.0Q98 74 67.0 157.0Q36 240 36 354Q36 469 67.0 552.5Q98 636 157.5 681.0Q217 726 303 726Q400 726 466.0 662.5Q532 599 554 483L444 477Q429 551 391.5 589.5Q354 628 303 628Q226 628 185.5 556.5Q145 485 145 354Q145 223 185.5 152.5Q226 82 303 82Q358 82 397.0 124.0Q436 166 449 247L558 242Q540 120 472.5 52.0Q405 -16 303 -16Z" transform="translate(176.30 60.00) scale(0.01300 -0.01300)"/><path d="M248 0V611H40V710H560V611H352V0Z" transform="translate(185.60 60.00) scale(0.01300 -0.01300)"/><path d="M88 0V710H524V611H193V404H512V308H193V99H532V0Z" transform="translate(194.90 60.00) scale(0.01300 -0.01300)"/><path d="M83 0V710H256Q350 710 419.5 668.5Q489 627 526.5 547.5Q564 468 564 354Q564 240 526.5 161.0Q489 82 419.5 41.0Q350 0 256 0ZM188 99H253Q349 99 402.0 162.5Q455 226 455 354Q455 482 402.0 546.5Q349 611 253 611H188Z" transform="translate(204.20 60.00) scale(0.01300 -0.01300)"/><path d="M104 0 28 710H133L187 135L254 630H346L413 135L467 710H572L496 0H359L300 432L241 0Z" transform="translate(222.80 60.00) scale(0.01300 -0.01300)"/><path d="M300 -16Q173 -16 104.5 80.0Q36 176 36 354Q36 533 104.5 629.5Q173 726 300 726Q427 726 495.5 629.5Q564 533 564 354Q564 176 495.5 80.0Q427 -16 300 -16ZM300 82Q375 82 415.0 150.5Q455 219 455 354Q455 489 415.0 558.5Q375 628 300 628Q225 628 185.0 558.5Q145 489 145 354Q145 219 185.0 150.5Q225 82 300 82Z" transform="translate(232.10 60.00) scale(0.01300 -0.01300)"/><path d="M67 0V710H288Q400 710 465.0 653.0Q530 596 530 498Q530 434 494.5 389.5Q459 345 410 330Q462 320 488.5 289.5Q515 259 520 202L538 0H433L417 182Q413 235 387.5 256.0Q362 277 296 277H172V0ZM172 375H286Q352 375 387.0 406.0Q422 437 422 493Q422 550 387.0 580.5Q352 611 286 611H172Z" transform="translate(241.40 60.00) scale(0.01300 -0.01300)"/><path d="M56 0V710H161V376L427 710H554L300 398L562 0H439L234 317L161 227V0Z" transform="translate(250.70 60.00) scale(0.01300 -0.01300)"/></g><g fill="#0d2148"><path d="M328 -14Q263 -14 211.5 -1.5Q160 11 123.5 36.5Q87 62 66.5 100.5Q46 139 43 189L169 230Q171 185 191.5 155.0Q212 125 250.0 111.0Q288 97 335 97Q380 97 411.0 108.0Q442 119 458.0 137.5Q474 156 474 178Q474 204 454.0 220.0Q434 236 399.5 247.0Q365 258 321 268Q272 279 224.5 293.0Q177 307 138.5 329.0Q100 351 77.5 386.0Q55 421 55 474Q55 535 85.5 579.5Q116 624 175.0 649.0Q234 674 317 674Q401 674 460.5 649.5Q520 625 553.0 580.5Q586 536 589 475L459 439Q459 470 449.0 493.0Q439 516 421.0 531.5Q403 547 376.5 555.0Q350 563 316 563Q277 563 248.5 553.0Q220 543 205.5 526.0Q191 509 191 486Q191 459 213.5 441.5Q236 424 273.5 413.0Q311 402 356 392Q399 383 443.5 369.5Q488 356 526.5 334.5Q565 313 588.5 276.5Q612 240 612 185Q612 125 580.0 80.0Q548 35 484.5 10.5Q421 -14 328 -14Z" transform="translate(74.00 112.00) scale(0.04400 -0.04400)"/><path d="M265 -182Q225 -182 183.5 -174.5Q142 -167 105.5 -151.5Q69 -136 43 -112L84 11Q116 -22 164.0 -38.5Q212 -55 259 -55Q312 -55 347.5 -33.5Q383 -12 401.5 32.5Q420 77 423 144L429 235H407Q397 169 374.5 127.0Q352 85 317.5 65.5Q283 46 236 46Q179 46 140.0 75.0Q101 104 81.5 162.0Q62 220 62 305V525H206V340Q206 247 227.0 206.0Q248 165 291 165Q314 165 333.0 177.5Q352 190 365.5 214.0Q379 238 386.5 272.5Q394 307 394 351V525H538V139Q538 76 527.0 24.5Q516 -27 494.5 -65.5Q473 -104 440.0 -130.0Q407 -156 363.5 -169.0Q320 -182 265 -182Z" transform="translate(101.69 112.00) scale(0.04400 -0.04400)"/><path d="M276 -14Q223 -14 180.0 -4.0Q137 6 106.0 25.0Q75 44 56.0 70.5Q37 97 31 130L141 175Q145 153 163.0 134.0Q181 115 211.5 103.5Q242 92 285 92Q331 92 356.0 105.5Q381 119 381 144Q381 163 367.0 174.0Q353 185 326.0 193.0Q299 201 261 208Q224 217 185.5 227.0Q147 237 114.5 255.0Q82 273 61.5 302.5Q41 332 41 378Q41 426 67.0 462.0Q93 498 143.0 518.5Q193 539 265 539Q330 539 379.0 521.5Q428 504 459.5 471.5Q491 439 502 394L385 355Q381 379 365.5 397.0Q350 415 324.5 424.0Q299 433 265 433Q222 433 198.5 419.0Q175 405 175 382Q175 363 190.5 351.0Q206 339 234.0 331.5Q262 324 300 316Q340 308 378.0 297.5Q416 287 446.5 270.0Q477 253 495.0 225.0Q513 197 513 153Q513 101 485.0 63.5Q457 26 404.0 6.0Q351 -14 276 -14Z" transform="translate(127.18 112.00) scale(0.04400 -0.04400)"/><path d="M261 -12Q173 -12 131.5 34.5Q90 81 90 183V412H14L16 525H69Q100 525 115.0 534.0Q130 543 133 567L146 642H228V525H361V408H228V189Q228 153 245.0 137.0Q262 121 297 121Q316 121 333.5 125.0Q351 129 364 138V4Q333 -6 307.0 -9.0Q281 -12 261 -12Z" transform="translate(150.11 112.00) scale(0.04400 -0.04400)"/><path d="M310 -14Q245 -14 194.5 4.0Q144 22 109.0 56.0Q74 90 55.5 140.0Q37 190 37 253Q37 315 54.5 367.5Q72 420 106.0 458.5Q140 497 189.0 518.0Q238 539 300 539Q360 539 407.0 519.5Q454 500 485.5 461.0Q517 422 531.5 365.5Q546 309 542 236L130 232V311L459 314L408 274Q415 327 401.0 361.0Q387 395 360.5 411.0Q334 427 302 427Q264 427 235.0 407.0Q206 387 190.0 348.5Q174 310 174 256Q174 171 211.5 131.0Q249 91 310 91Q338 91 357.5 98.5Q377 106 389.5 118.0Q402 130 409.5 145.0Q417 160 422 175L547 148Q538 111 520.5 81.5Q503 52 474.0 30.5Q445 9 404.5 -2.5Q364 -14 310 -14Z" transform="translate(166.58 112.00) scale(0.04400 -0.04400)"/><path d="M66 0V336V525H181V368H200Q214 426 237.0 463.5Q260 501 292.5 520.0Q325 539 369 539Q416 539 447.0 518.0Q478 497 495.0 459.5Q512 422 517 368H533Q548 427 573.5 465.0Q599 503 634.5 521.0Q670 539 713 539Q756 539 788.5 522.0Q821 505 843.0 471.5Q865 438 876.0 387.5Q887 337 887 271V0H743V253Q743 307 734.0 343.5Q725 380 706.0 398.0Q687 416 657 416Q624 416 600.0 393.5Q576 371 562.0 332.0Q548 293 547 243V0H406V249Q406 305 396.0 341.5Q386 378 367.0 397.0Q348 416 319 416Q285 416 261.0 393.5Q237 371 224.0 331.0Q211 291 210 242V0Z" transform="translate(191.14 112.00) scale(0.04400 -0.04400)"/><path d="M276 -14Q223 -14 180.0 -4.0Q137 6 106.0 25.0Q75 44 56.0 70.5Q37 97 31 130L141 175Q145 153 163.0 134.0Q181 115 211.5 103.5Q242 92 285 92Q331 92 356.0 105.5Q381 119 381 144Q381 163 367.0 174.0Q353 185 326.0 193.0Q299 201 261 208Q224 217 185.5 227.0Q147 237 114.5 255.0Q82 273 61.5 302.5Q41 332 41 378Q41 426 67.0 462.0Q93 498 143.0 518.5Q193 539 265 539Q330 539 379.0 521.5Q428 504 459.5 471.5Q491 439 502 394L385 355Q381 379 365.5 397.0Q350 415 324.5 424.0Q299 433 265 433Q222 433 198.5 419.0Q175 405 175 382Q175 363 190.5 351.0Q206 339 234.0 331.5Q262 324 300 316Q340 308 378.0 297.5Q416 287 446.5 270.0Q477 253 495.0 225.0Q513 197 513 153Q513 101 485.0 63.5Q457 26 404.0 6.0Q351 -14 276 -14Z" transform="translate(231.77 112.00) scale(0.04400 -0.04400)"/><path d="M73 0V660H220V0Z" transform="translate(263.82 112.00) scale(0.04400 -0.04400)"/><path d="M40 462 23 715H155L137 462Z" transform="translate(275.72 112.00) scale(0.04400 -0.04400)"/><path d="M186 0 11 524H170L281 114H297L408 524H561L385 0Z" transform="translate(282.50 112.00) scale(0.04400 -0.04400)"/><path d="M310 -14Q245 -14 194.5 4.0Q144 22 109.0 56.0Q74 90 55.5 140.0Q37 190 37 253Q37 315 54.5 367.5Q72 420 106.0 458.5Q140 497 189.0 518.0Q238 539 300 539Q360 539 407.0 519.5Q454 500 485.5 461.0Q517 422 531.5 365.5Q546 309 542 236L130 232V311L459 314L408 274Q415 327 401.0 361.0Q387 395 360.5 411.0Q334 427 302 427Q264 427 235.0 407.0Q206 387 190.0 348.5Q174 310 174 256Q174 171 211.5 131.0Q249 91 310 91Q338 91 357.5 98.5Q377 106 389.5 118.0Q402 130 409.5 145.0Q417 160 422 175L547 148Q538 111 520.5 81.5Q503 52 474.0 30.5Q445 9 404.5 -2.5Q364 -14 310 -14Z" transform="translate(306.67 112.00) scale(0.04400 -0.04400)"/><path d="M384 -14Q334 -14 297.0 5.5Q260 25 237.0 62.0Q214 99 205 152H186L185 0H66V258V715H210V543Q210 519 207.0 491.5Q204 464 198.5 435.0Q193 406 187 375H209Q222 425 244.5 461.5Q267 498 302.0 517.5Q337 537 385 537Q451 537 499.0 503.0Q547 469 573.5 407.0Q600 345 600 260Q600 177 574.0 115.5Q548 54 499.5 20.0Q451 -14 384 -14ZM333 104Q369 104 395.0 123.5Q421 143 435.0 179.0Q449 215 449 263Q449 311 435.5 346.0Q422 381 397.0 401.0Q372 421 336 421Q312 421 292.0 412.0Q272 403 257.0 387.5Q242 372 231.0 352.5Q220 333 215.0 312.0Q210 291 210 272V253Q210 230 217.0 203.5Q224 177 239.5 154.5Q255 132 278.0 118.0Q301 104 333 104Z" transform="translate(340.36 112.00) scale(0.04400 -0.04400)"/><path d="M244 -14Q152 -14 105.5 48.5Q59 111 59 239V525H203V257Q203 180 226.0 142.5Q249 105 296 105Q324 105 345.0 119.0Q366 133 381.0 158.0Q396 183 403.5 217.0Q411 251 412 290V525H556V214V0H440L439 164H421Q406 102 383.5 62.5Q361 23 326.5 4.5Q292 -14 244 -14Z" transform="translate(367.43 112.00) scale(0.04400 -0.04400)"/><path d="M66 0V525H210V0ZM139 604Q97 604 74.5 621.5Q52 639 52 673Q52 708 74.5 726.0Q97 744 139 744Q182 744 204.5 726.0Q227 708 227 673Q227 640 204.5 622.0Q182 604 139 604Z" transform="translate(393.80 112.00) scale(0.04400 -0.04400)"/><path d="M66 0V715H208V0Z" transform="translate(404.98 112.00) scale(0.04400 -0.04400)"/><path d="M261 -12Q173 -12 131.5 34.5Q90 81 90 183V412H14L16 525H69Q100 525 115.0 534.0Q130 543 133 567L146 642H228V525H361V408H228V189Q228 153 245.0 137.0Q262 121 297 121Q316 121 333.5 125.0Q351 129 364 138V4Q333 -6 307.0 -9.0Q281 -12 261 -12Z" transform="translate(416.04 112.00) scale(0.04400 -0.04400)"/><path d="M116 -13Q69 -13 45.5 7.0Q22 27 22 69Q22 112 45.5 132.0Q69 152 116 152Q164 152 187.5 132.0Q211 112 211 69Q211 -13 116 -13Z" transform="translate(432.51 112.00) scale(0.04400 -0.04400)"/></g><g fill="#45568a"><path d="M92 0V710H312Q476 710 564.5 617.5Q653 525 653 354Q653 184 566.0 92.0Q479 0 318 0ZM178 84H312Q563 84 563 354Q563 626 312 626H178Z" transform="translate(74.00 140.00) scale(0.01550 -0.01550)"/><path d="M287 -12Q212 -12 157.5 22.0Q103 56 73.5 118.5Q44 181 44 265Q44 349 73.5 411.0Q103 473 156.5 507.5Q210 542 283 542Q352 542 405.0 509.5Q458 477 487.5 415.0Q517 353 517 264V239H132Q137 154 177.5 111.0Q218 68 287 68Q339 68 372.5 92.5Q406 117 419 157L509 150Q488 79 429.5 33.5Q371 -12 287 -12ZM132 313H425Q419 390 380.5 426.0Q342 462 283 462Q222 462 182.5 424.5Q143 387 132 313Z" transform="translate(84.76 140.00) scale(0.01550 -0.01550)"/><path d="M80 -150V530H158L159 449Q183 495 225.5 518.5Q268 542 322 542Q401 542 451.5 503.0Q502 464 526.5 401.0Q551 338 551 265Q551 192 526.5 129.0Q502 66 451.5 27.0Q401 -12 322 -12Q270 -12 227.5 10.0Q185 32 164 70V-150ZM314 68Q383 68 423.0 120.0Q463 172 463 265Q463 358 423.0 410.0Q383 462 314 462Q245 462 204.5 412.5Q164 363 164 265Q164 168 204.0 118.0Q244 68 314 68Z" transform="translate(93.45 140.00) scale(0.01550 -0.01550)"/><path d="M184 0Q138 0 109.0 24.0Q80 48 80 100V710H164V107Q164 74 197 74H243V0Z" transform="translate(102.67 140.00) scale(0.01550 -0.01550)"/><path d="M287 -12Q214 -12 159.0 22.0Q104 56 74.0 118.5Q44 181 44 265Q44 350 74.0 412.0Q104 474 159.0 508.0Q214 542 287 542Q360 542 414.5 508.0Q469 474 499.0 412.0Q529 350 529 265Q529 181 499.0 118.5Q469 56 414.5 22.0Q360 -12 287 -12ZM287 68Q360 68 400.5 120.5Q441 173 441 265Q441 357 400.5 409.5Q360 462 287 462Q214 462 173.0 409.5Q132 357 132 265Q132 173 173.0 120.5Q214 68 287 68Z" transform="translate(106.81 140.00) scale(0.01550 -0.01550)"/><path d="M103 -150V-76H164Q192 -76 205.5 -67.5Q219 -59 226 -40L245 10H216L22 530H114L272 88L423 530H515L300 -67Q285 -110 255.0 -130.0Q225 -150 172 -150Z" transform="translate(115.69 140.00) scale(0.01550 -0.01550)"/><path d="M80 0V530H157L159 437Q179 486 218.0 514.0Q257 542 308 542Q368 542 409.0 513.0Q450 484 467 431Q484 484 524.0 513.0Q564 542 622 542Q707 542 752.0 489.5Q797 437 797 341V0H713V323Q713 468 602 468Q547 468 513.5 428.0Q480 388 480 317V0H396V317Q396 388 371.0 428.0Q346 468 287 468Q232 468 198.0 428.0Q164 388 164 317V0Z" transform="translate(124.02 140.00) scale(0.01550 -0.01550)"/><path d="M287 -12Q212 -12 157.5 22.0Q103 56 73.5 118.5Q44 181 44 265Q44 349 73.5 411.0Q103 473 156.5 507.5Q210 542 283 542Q352 542 405.0 509.5Q458 477 487.5 415.0Q517 353 517 264V239H132Q137 154 177.5 111.0Q218 68 287 68Q339 68 372.5 92.5Q406 117 419 157L509 150Q488 79 429.5 33.5Q371 -12 287 -12ZM132 313H425Q419 390 380.5 426.0Q342 462 283 462Q222 462 182.5 424.5Q143 387 132 313Z" transform="translate(137.61 140.00) scale(0.01550 -0.01550)"/><path d="M80 0V530H157L159 435Q180 490 223.5 516.0Q267 542 322 542Q383 542 422.5 515.0Q462 488 481.5 442.5Q501 397 501 341V0H417V317Q417 391 390.5 429.5Q364 468 304 468Q243 468 203.5 429.5Q164 391 164 317V0Z" transform="translate(146.31 140.00) scale(0.01550 -0.01550)"/><path d="M274 0Q202 0 167.5 33.0Q133 66 133 136V456H55V530H133V654H217V530H358V456H217V138Q217 102 233.0 88.0Q249 74 282 74H358V0Z" transform="translate(155.31 140.00) scale(0.01550 -0.01550)"/><path d="M80 -150V530H158L159 449Q183 495 225.5 518.5Q268 542 322 542Q401 542 451.5 503.0Q502 464 526.5 401.0Q551 338 551 265Q551 192 526.5 129.0Q502 66 451.5 27.0Q401 -12 322 -12Q270 -12 227.5 10.0Q185 32 164 70V-150ZM314 68Q383 68 423.0 120.0Q463 172 463 265Q463 358 423.0 410.0Q383 462 314 462Q245 462 204.5 412.5Q164 363 164 265Q164 168 204.0 118.0Q244 68 314 68Z" transform="translate(165.26 140.00) scale(0.01550 -0.01550)"/><path d="M184 0Q138 0 109.0 24.0Q80 48 80 100V710H164V107Q164 74 197 74H243V0Z" transform="translate(174.49 140.00) scale(0.01550 -0.01550)"/><path d="M223 -12Q141 -12 92.5 26.0Q44 64 44 132Q44 200 84.0 239.0Q124 278 211 294L399 329Q399 462 273 462Q218 462 186.0 437.5Q154 413 142 367L53 374Q68 449 125.5 495.5Q183 542 273 542Q375 542 429.0 484.5Q483 427 483 326V107Q483 74 511 74H532V0Q520 -2 500 -2Q454 -2 430.5 16.5Q407 35 401 77L400 82Q380 41 331.0 14.5Q282 -12 223 -12ZM231 62Q311 62 355.0 107.0Q399 152 399 218V256L227 224Q173 214 152.5 193.5Q132 173 132 140Q132 103 158.5 82.5Q185 62 231 62Z" transform="translate(178.62 140.00) scale(0.01550 -0.01550)"/><path d="M274 0Q202 0 167.5 33.0Q133 66 133 136V456H55V530H133V654H217V530H358V456H217V138Q217 102 233.0 88.0Q249 74 282 74H358V0Z" transform="translate(187.17 140.00) scale(0.01550 -0.01550)"/><path d="M132 0V456H60V530H132V578Q132 637 166.0 673.5Q200 710 272 710H356V636H278Q247 636 231.5 619.0Q216 602 216 572V530H349V456H216V0Z" transform="translate(193.24 140.00) scale(0.01550 -0.01550)"/><path d="M287 -12Q214 -12 159.0 22.0Q104 56 74.0 118.5Q44 181 44 265Q44 350 74.0 412.0Q104 474 159.0 508.0Q214 542 287 542Q360 542 414.5 508.0Q469 474 499.0 412.0Q529 350 529 265Q529 181 499.0 118.5Q469 56 414.5 22.0Q360 -12 287 -12ZM287 68Q360 68 400.5 120.5Q441 173 441 265Q441 357 400.5 409.5Q360 462 287 462Q214 462 173.0 409.5Q132 357 132 265Q132 173 173.0 120.5Q214 68 287 68Z" transform="translate(199.36 140.00) scale(0.01550 -0.01550)"/><path d="M80 0V530H154L157 432Q184 530 283 530H335V450H284Q164 450 164 320V0Z" transform="translate(208.25 140.00) scale(0.01550 -0.01550)"/><path d="M80 0V530H157L159 437Q179 486 218.0 514.0Q257 542 308 542Q368 542 409.0 513.0Q450 484 467 431Q484 484 524.0 513.0Q564 542 622 542Q707 542 752.0 489.5Q797 437 797 341V0H713V323Q713 468 602 468Q547 468 513.5 428.0Q480 388 480 317V0H396V317Q396 388 371.0 428.0Q346 468 287 468Q232 468 198.0 428.0Q164 388 164 317V0Z" transform="translate(214.12 140.00) scale(0.01550 -0.01550)"/><path d="M273 -12Q164 -12 107.0 38.5Q50 89 44 167L132 173Q140 125 171.5 96.5Q203 68 273 68Q327 68 356.5 85.5Q386 103 386 142Q386 163 376.5 177.0Q367 191 339.0 201.5Q311 212 257 222Q183 236 141.0 257.0Q99 278 82.0 308.0Q65 338 65 380Q65 451 117.5 496.5Q170 542 266 542Q336 542 380.5 517.5Q425 493 448.0 454.0Q471 415 476 372L388 366Q384 404 356.5 433.0Q329 462 264 462Q207 462 180.0 440.0Q153 418 153 384Q153 345 178.0 326.5Q203 308 273 296Q351 283 395.0 263.0Q439 243 456.5 213.5Q474 184 474 142Q474 69 417.5 28.5Q361 -12 273 -12Z" transform="translate(227.71 140.00) scale(0.01550 -0.01550)"/><path d="M47 -156 95 0H44V113H157V14L97 -156Z" transform="translate(235.77 140.00) scale(0.01550 -0.01550)"/><path d="M80 0V530H154L157 432Q184 530 283 530H335V450H284Q164 450 164 320V0Z" transform="translate(242.76 140.00) scale(0.01550 -0.01550)"/><path d="M287 -12Q212 -12 157.5 22.0Q103 56 73.5 118.5Q44 181 44 265Q44 349 73.5 411.0Q103 473 156.5 507.5Q210 542 283 542Q352 542 405.0 509.5Q458 477 487.5 415.0Q517 353 517 264V239H132Q137 154 177.5 111.0Q218 68 287 68Q339 68 372.5 92.5Q406 117 419 157L509 150Q488 79 429.5 33.5Q371 -12 287 -12ZM132 313H425Q419 390 380.5 426.0Q342 462 283 462Q222 462 182.5 424.5Q143 387 132 313Z" transform="translate(248.64 140.00) scale(0.01550 -0.01550)"/><path d="M223 -12Q141 -12 92.5 26.0Q44 64 44 132Q44 200 84.0 239.0Q124 278 211 294L399 329Q399 462 273 462Q218 462 186.0 437.5Q154 413 142 367L53 374Q68 449 125.5 495.5Q183 542 273 542Q375 542 429.0 484.5Q483 427 483 326V107Q483 74 511 74H532V0Q520 -2 500 -2Q454 -2 430.5 16.5Q407 35 401 77L400 82Q380 41 331.0 14.5Q282 -12 223 -12ZM231 62Q311 62 355.0 107.0Q399 152 399 218V256L227 224Q173 214 152.5 193.5Q132 173 132 140Q132 103 158.5 82.5Q185 62 231 62Z" transform="translate(257.33 140.00) scale(0.01550 -0.01550)"/><path d="M184 0Q138 0 109.0 24.0Q80 48 80 100V710H164V107Q164 74 197 74H243V0Z" transform="translate(265.87 140.00) scale(0.01550 -0.01550)"/><path d="M44 252V331H375V252Z" transform="translate(270.01 140.00) scale(0.01550 -0.01550)"/><path d="M274 0Q202 0 167.5 33.0Q133 66 133 136V456H55V530H133V654H217V530H358V456H217V138Q217 102 233.0 88.0Q249 74 282 74H358V0Z" transform="translate(276.51 140.00) scale(0.01550 -0.01550)"/><path d="M80 0V530H164V0ZM78 613V711H166V613Z" transform="translate(282.58 140.00) scale(0.01550 -0.01550)"/><path d="M80 0V530H157L159 437Q179 486 218.0 514.0Q257 542 308 542Q368 542 409.0 513.0Q450 484 467 431Q484 484 524.0 513.0Q564 542 622 542Q707 542 752.0 489.5Q797 437 797 341V0H713V323Q713 468 602 468Q547 468 513.5 428.0Q480 388 480 317V0H396V317Q396 388 371.0 428.0Q346 468 287 468Q232 468 198.0 428.0Q164 388 164 317V0Z" transform="translate(286.37 140.00) scale(0.01550 -0.01550)"/><path d="M287 -12Q212 -12 157.5 22.0Q103 56 73.5 118.5Q44 181 44 265Q44 349 73.5 411.0Q103 473 156.5 507.5Q210 542 283 542Q352 542 405.0 509.5Q458 477 487.5 415.0Q517 353 517 264V239H132Q137 154 177.5 111.0Q218 68 287 68Q339 68 372.5 92.5Q406 117 419 157L509 150Q488 79 429.5 33.5Q371 -12 287 -12ZM132 313H425Q419 390 380.5 426.0Q342 462 283 462Q222 462 182.5 424.5Q143 387 132 313Z" transform="translate(299.96 140.00) scale(0.01550 -0.01550)"/><path d="M20 0 276 710H392L648 0H554L483 202H185L114 0ZM214 286H454L334 635Z" transform="translate(312.53 140.00) scale(0.01550 -0.01550)"/><path d="M92 0V710H178V0Z" transform="translate(322.88 140.00) scale(0.01550 -0.01550)"/><path d="M47 -156 95 0H44V113H157V14L97 -156Z" transform="translate(327.07 140.00) scale(0.01550 -0.01550)"/><path d="M223 -12Q141 -12 92.5 26.0Q44 64 44 132Q44 200 84.0 239.0Q124 278 211 294L399 329Q399 462 273 462Q218 462 186.0 437.5Q154 413 142 367L53 374Q68 449 125.5 495.5Q183 542 273 542Q375 542 429.0 484.5Q483 427 483 326V107Q483 74 511 74H532V0Q520 -2 500 -2Q454 -2 430.5 16.5Q407 35 401 77L400 82Q380 41 331.0 14.5Q282 -12 223 -12ZM231 62Q311 62 355.0 107.0Q399 152 399 218V256L227 224Q173 214 152.5 193.5Q132 173 132 140Q132 103 158.5 82.5Q185 62 231 62Z" transform="translate(334.06 140.00) scale(0.01550 -0.01550)"/><path d="M80 0V530H157L159 435Q180 490 223.5 516.0Q267 542 322 542Q383 542 422.5 515.0Q462 488 481.5 442.5Q501 397 501 341V0H417V317Q417 391 390.5 429.5Q364 468 304 468Q243 468 203.5 429.5Q164 391 164 317V0Z" transform="translate(342.60 140.00) scale(0.01550 -0.01550)"/><path d="M268 -12Q199 -12 148.5 22.0Q98 56 71.0 118.0Q44 180 44 265Q44 350 71.0 412.0Q98 474 148.5 508.0Q199 542 268 542Q321 542 365.0 519.5Q409 497 431 456V710H515V0H439L436 80Q414 37 369.0 12.5Q324 -12 268 -12ZM285 68Q356 68 393.5 121.0Q431 174 431 265Q431 357 393.5 409.5Q356 462 285 462Q215 462 173.5 409.5Q132 357 132 265Q132 174 173.5 121.0Q215 68 285 68Z" transform="translate(351.61 140.00) scale(0.01550 -0.01550)"/><path d="M274 0Q202 0 167.5 33.0Q133 66 133 136V456H55V530H133V654H217V530H358V456H217V138Q217 102 233.0 88.0Q249 74 282 74H358V0Z" transform="translate(364.70 140.00) scale(0.01550 -0.01550)"/><path d="M80 0V710H164V447Q185 496 227.0 519.0Q269 542 324 542Q410 542 455.5 486.0Q501 430 501 341V0H417V317Q417 468 306 468Q242 468 203.0 429.0Q164 390 164 316V0Z" transform="translate(370.78 140.00) scale(0.01550 -0.01550)"/><path d="M287 -12Q212 -12 157.5 22.0Q103 56 73.5 118.5Q44 181 44 265Q44 349 73.5 411.0Q103 473 156.5 507.5Q210 542 283 542Q352 542 405.0 509.5Q458 477 487.5 415.0Q517 353 517 264V239H132Q137 154 177.5 111.0Q218 68 287 68Q339 68 372.5 92.5Q406 117 419 157L509 150Q488 79 429.5 33.5Q371 -12 287 -12ZM132 313H425Q419 390 380.5 426.0Q342 462 283 462Q222 462 182.5 424.5Q143 387 132 313Z" transform="translate(379.78 140.00) scale(0.01550 -0.01550)"/><path d="M80 0V530H154L157 432Q184 530 283 530H335V450H284Q164 450 164 320V0Z" transform="translate(392.35 140.00) scale(0.01550 -0.01550)"/><path d="M287 -12Q212 -12 157.5 22.0Q103 56 73.5 118.5Q44 181 44 265Q44 349 73.5 411.0Q103 473 156.5 507.5Q210 542 283 542Q352 542 405.0 509.5Q458 477 487.5 415.0Q517 353 517 264V239H132Q137 154 177.5 111.0Q218 68 287 68Q339 68 372.5 92.5Q406 117 419 157L509 150Q488 79 429.5 33.5Q371 -12 287 -12ZM132 313H425Q419 390 380.5 426.0Q342 462 283 462Q222 462 182.5 424.5Q143 387 132 313Z" transform="translate(398.23 140.00) scale(0.01550 -0.01550)"/><path d="M184 0Q138 0 109.0 24.0Q80 48 80 100V710H164V107Q164 74 197 74H243V0Z" transform="translate(406.92 140.00) scale(0.01550 -0.01550)"/><path d="M80 0V530H164V0ZM78 613V711H166V613Z" transform="translate(411.06 140.00) scale(0.01550 -0.01550)"/><path d="M223 -12Q141 -12 92.5 26.0Q44 64 44 132Q44 200 84.0 239.0Q124 278 211 294L399 329Q399 462 273 462Q218 462 186.0 437.5Q154 413 142 367L53 374Q68 449 125.5 495.5Q183 542 273 542Q375 542 429.0 484.5Q483 427 483 326V107Q483 74 511 74H532V0Q520 -2 500 -2Q454 -2 430.5 16.5Q407 35 401 77L400 82Q380 41 331.0 14.5Q282 -12 223 -12ZM231 62Q311 62 355.0 107.0Q399 152 399 218V256L227 224Q173 214 152.5 193.5Q132 173 132 140Q132 103 158.5 82.5Q185 62 231 62Z" transform="translate(414.85 140.00) scale(0.01550 -0.01550)"/><path d="M323 -12Q268 -12 225.0 12.5Q182 37 159 80L156 0H80V710H164V456Q184 489 226.0 515.5Q268 542 323 542Q393 542 444.0 508.0Q495 474 523.0 412.0Q551 350 551 265Q551 180 523.0 118.0Q495 56 444.0 22.0Q393 -12 323 -12ZM318 68Q385 68 424.0 121.0Q463 174 463 265Q463 357 424.0 409.5Q385 462 320 462Q247 462 205.5 409.5Q164 357 164 265Q164 174 205.0 121.0Q246 68 318 68Z" transform="translate(423.39 140.00) scale(0.01550 -0.01550)"/><path d="M80 0V530H164V0ZM78 613V711H166V613Z" transform="translate(432.61 140.00) scale(0.01550 -0.01550)"/><path d="M184 0Q138 0 109.0 24.0Q80 48 80 100V710H164V107Q164 74 197 74H243V0Z" transform="translate(436.39 140.00) scale(0.01550 -0.01550)"/><path d="M80 0V530H164V0ZM78 613V711H166V613Z" transform="translate(440.53 140.00) scale(0.01550 -0.01550)"/><path d="M274 0Q202 0 167.5 33.0Q133 66 133 136V456H55V530H133V654H217V530H358V456H217V138Q217 102 233.0 88.0Q249 74 282 74H358V0Z" transform="translate(444.31 140.00) scale(0.01550 -0.01550)"/><path d="M103 -150V-76H164Q192 -76 205.5 -67.5Q219 -59 226 -40L245 10H216L22 530H114L272 88L423 530H515L300 -67Q285 -110 255.0 -130.0Q225 -150 172 -150Z" transform="translate(450.39 140.00) scale(0.01550 -0.01550)"/><path d="M184 0Q138 0 109.0 24.0Q80 48 80 100V710H164V107Q164 74 197 74H243V0Z" transform="translate(462.59 140.00) scale(0.01550 -0.01550)"/><path d="M223 -12Q141 -12 92.5 26.0Q44 64 44 132Q44 200 84.0 239.0Q124 278 211 294L399 329Q399 462 273 462Q218 462 186.0 437.5Q154 413 142 367L53 374Q68 449 125.5 495.5Q183 542 273 542Q375 542 429.0 484.5Q483 427 483 326V107Q483 74 511 74H532V0Q520 -2 500 -2Q454 -2 430.5 16.5Q407 35 401 77L400 82Q380 41 331.0 14.5Q282 -12 223 -12ZM231 62Q311 62 355.0 107.0Q399 152 399 218V256L227 224Q173 214 152.5 193.5Q132 173 132 140Q132 103 158.5 82.5Q185 62 231 62Z" transform="translate(466.72 140.00) scale(0.01550 -0.01550)"/><path d="M103 -150V-76H164Q192 -76 205.5 -67.5Q219 -59 226 -40L245 10H216L22 530H114L272 88L423 530H515L300 -67Q285 -110 255.0 -130.0Q225 -150 172 -150Z" transform="translate(475.26 140.00) scale(0.01550 -0.01550)"/><path d="M287 -12Q212 -12 157.5 22.0Q103 56 73.5 118.5Q44 181 44 265Q44 349 73.5 411.0Q103 473 156.5 507.5Q210 542 283 542Q352 542 405.0 509.5Q458 477 487.5 415.0Q517 353 517 264V239H132Q137 154 177.5 111.0Q218 68 287 68Q339 68 372.5 92.5Q406 117 419 157L509 150Q488 79 429.5 33.5Q371 -12 287 -12ZM132 313H425Q419 390 380.5 426.0Q342 462 283 462Q222 462 182.5 424.5Q143 387 132 313Z" transform="translate(483.59 140.00) scale(0.01550 -0.01550)"/><path d="M80 0V530H154L157 432Q184 530 283 530H335V450H284Q164 450 164 320V0Z" transform="translate(492.28 140.00) scale(0.01550 -0.01550)"/><path d="M254 -12Q175 -12 127.5 41.5Q80 95 80 189V530H164V212Q164 135 191.5 98.5Q219 62 276 62Q339 62 375.0 102.5Q411 143 411 214V530H495V0H415V86Q371 -12 254 -12Z" transform="translate(502.03 140.00) scale(0.01550 -0.01550)"/><path d="M80 0V530H157L159 435Q180 490 223.5 516.0Q267 542 322 542Q383 542 422.5 515.0Q462 488 481.5 442.5Q501 397 501 341V0H417V317Q417 391 390.5 429.5Q364 468 304 468Q243 468 203.5 429.5Q164 391 164 317V0Z" transform="translate(510.95 140.00) scale(0.01550 -0.01550)"/><path d="M268 -12Q199 -12 148.5 22.0Q98 56 71.0 118.0Q44 180 44 265Q44 350 71.0 412.0Q98 474 148.5 508.0Q199 542 268 542Q321 542 365.0 519.5Q409 497 431 456V710H515V0H439L436 80Q414 37 369.0 12.5Q324 -12 268 -12ZM285 68Q356 68 393.5 121.0Q431 174 431 265Q431 357 393.5 409.5Q356 462 285 462Q215 462 173.5 409.5Q132 357 132 265Q132 174 173.5 121.0Q215 68 285 68Z" transform="translate(519.95 140.00) scale(0.01550 -0.01550)"/><path d="M287 -12Q212 -12 157.5 22.0Q103 56 73.5 118.5Q44 181 44 265Q44 349 73.5 411.0Q103 473 156.5 507.5Q210 542 283 542Q352 542 405.0 509.5Q458 477 487.5 415.0Q517 353 517 264V239H132Q137 154 177.5 111.0Q218 68 287 68Q339 68 372.5 92.5Q406 117 419 157L509 150Q488 79 429.5 33.5Q371 -12 287 -12ZM132 313H425Q419 390 380.5 426.0Q342 462 283 462Q222 462 182.5 424.5Q143 387 132 313Z" transform="translate(529.17 140.00) scale(0.01550 -0.01550)"/><path d="M80 0V530H154L157 432Q184 530 283 530H335V450H284Q164 450 164 320V0Z" transform="translate(537.87 140.00) scale(0.01550 -0.01550)"/><path d="M80 0V530H157L159 435Q180 490 223.5 516.0Q267 542 322 542Q383 542 422.5 515.0Q462 488 481.5 442.5Q501 397 501 341V0H417V317Q417 391 390.5 429.5Q364 468 304 468Q243 468 203.5 429.5Q164 391 164 317V0Z" transform="translate(543.74 140.00) scale(0.01550 -0.01550)"/><path d="M287 -12Q212 -12 157.5 22.0Q103 56 73.5 118.5Q44 181 44 265Q44 349 73.5 411.0Q103 473 156.5 507.5Q210 542 283 542Q352 542 405.0 509.5Q458 477 487.5 415.0Q517 353 517 264V239H132Q137 154 177.5 111.0Q218 68 287 68Q339 68 372.5 92.5Q406 117 419 157L509 150Q488 79 429.5 33.5Q371 -12 287 -12ZM132 313H425Q419 390 380.5 426.0Q342 462 283 462Q222 462 182.5 424.5Q143 387 132 313Z" transform="translate(552.75 140.00) scale(0.01550 -0.01550)"/><path d="M223 -12Q141 -12 92.5 26.0Q44 64 44 132Q44 200 84.0 239.0Q124 278 211 294L399 329Q399 462 273 462Q218 462 186.0 437.5Q154 413 142 367L53 374Q68 449 125.5 495.5Q183 542 273 542Q375 542 429.0 484.5Q483 427 483 326V107Q483 74 511 74H532V0Q520 -2 500 -2Q454 -2 430.5 16.5Q407 35 401 77L400 82Q380 41 331.0 14.5Q282 -12 223 -12ZM231 62Q311 62 355.0 107.0Q399 152 399 218V256L227 224Q173 214 152.5 193.5Q132 173 132 140Q132 103 158.5 82.5Q185 62 231 62Z" transform="translate(561.44 140.00) scale(0.01550 -0.01550)"/><path d="M274 0Q202 0 167.5 33.0Q133 66 133 136V456H55V530H133V654H217V530H358V456H217V138Q217 102 233.0 88.0Q249 74 282 74H358V0Z" transform="translate(569.98 140.00) scale(0.01550 -0.01550)"/><path d="M80 0V710H164V447Q185 496 227.0 519.0Q269 542 324 542Q410 542 455.5 486.0Q501 430 501 341V0H417V317Q417 468 306 468Q242 468 203.0 429.0Q164 390 164 316V0Z" transform="translate(576.06 140.00) scale(0.01550 -0.01550)"/><path d="M44 253V331H863V253Z" transform="translate(588.94 140.00) scale(0.01550 -0.01550)"/><path d="M287 -12Q212 -12 157.5 22.0Q103 56 73.5 118.5Q44 181 44 265Q44 349 73.5 411.0Q103 473 156.5 507.5Q210 542 283 542Q352 542 405.0 509.5Q458 477 487.5 415.0Q517 353 517 264V239H132Q137 154 177.5 111.0Q218 68 287 68Q339 68 372.5 92.5Q406 117 419 157L509 150Q488 79 429.5 33.5Q371 -12 287 -12ZM132 313H425Q419 390 380.5 426.0Q342 462 283 462Q222 462 182.5 424.5Q143 387 132 313Z" transform="translate(606.87 140.00) scale(0.01550 -0.01550)"/><path d="M223 -12Q141 -12 92.5 26.0Q44 64 44 132Q44 200 84.0 239.0Q124 278 211 294L399 329Q399 462 273 462Q218 462 186.0 437.5Q154 413 142 367L53 374Q68 449 125.5 495.5Q183 542 273 542Q375 542 429.0 484.5Q483 427 483 326V107Q483 74 511 74H532V0Q520 -2 500 -2Q454 -2 430.5 16.5Q407 35 401 77L400 82Q380 41 331.0 14.5Q282 -12 223 -12ZM231 62Q311 62 355.0 107.0Q399 152 399 218V256L227 224Q173 214 152.5 193.5Q132 173 132 140Q132 103 158.5 82.5Q185 62 231 62Z" transform="translate(615.57 140.00) scale(0.01550 -0.01550)"/><path d="M287 -12Q213 -12 158.5 22.0Q104 56 74.0 118.5Q44 181 44 265Q44 349 74.0 411.0Q104 473 158.5 507.5Q213 542 287 542Q379 542 439.0 494.5Q499 447 512 358L424 352Q415 405 378.0 433.5Q341 462 287 462Q214 462 173.0 409.5Q132 357 132 265Q132 173 173.0 120.5Q214 68 287 68Q341 68 378.0 98.0Q415 128 424 188L512 182Q499 94 439.0 41.0Q379 -12 287 -12Z" transform="translate(624.11 140.00) scale(0.01550 -0.01550)"/><path d="M80 0V710H164V447Q185 496 227.0 519.0Q269 542 324 542Q410 542 455.5 486.0Q501 430 501 341V0H417V317Q417 468 306 468Q242 468 203.0 429.0Q164 390 164 316V0Z" transform="translate(632.57 140.00) scale(0.01550 -0.01550)"/><path d="M287 -12Q213 -12 158.5 22.0Q104 56 74.0 118.5Q44 181 44 265Q44 349 74.0 411.0Q104 473 158.5 507.5Q213 542 287 542Q379 542 439.0 494.5Q499 447 512 358L424 352Q415 405 378.0 433.5Q341 462 287 462Q214 462 173.0 409.5Q132 357 132 265Q132 173 173.0 120.5Q214 68 287 68Q341 68 378.0 98.0Q415 128 424 188L512 182Q499 94 439.0 41.0Q379 -12 287 -12Z" transform="translate(645.45 140.00) scale(0.01550 -0.01550)"/><path d="M223 -12Q141 -12 92.5 26.0Q44 64 44 132Q44 200 84.0 239.0Q124 278 211 294L399 329Q399 462 273 462Q218 462 186.0 437.5Q154 413 142 367L53 374Q68 449 125.5 495.5Q183 542 273 542Q375 542 429.0 484.5Q483 427 483 326V107Q483 74 511 74H532V0Q520 -2 500 -2Q454 -2 430.5 16.5Q407 35 401 77L400 82Q380 41 331.0 14.5Q282 -12 223 -12ZM231 62Q311 62 355.0 107.0Q399 152 399 218V256L227 224Q173 214 152.5 193.5Q132 173 132 140Q132 103 158.5 82.5Q185 62 231 62Z" transform="translate(653.92 140.00) scale(0.01550 -0.01550)"/><path d="M80 0V530H154L157 432Q184 530 283 530H335V450H284Q164 450 164 320V0Z" transform="translate(662.46 140.00) scale(0.01550 -0.01550)"/><path d="M268 -12Q199 -12 148.5 22.0Q98 56 71.0 118.0Q44 180 44 265Q44 350 71.0 412.0Q98 474 148.5 508.0Q199 542 268 542Q321 542 365.0 519.5Q409 497 431 456V710H515V0H439L436 80Q414 37 369.0 12.5Q324 -12 268 -12ZM285 68Q356 68 393.5 121.0Q431 174 431 265Q431 357 393.5 409.5Q356 462 285 462Q215 462 173.5 409.5Q132 357 132 265Q132 174 173.5 121.0Q215 68 285 68Z" transform="translate(668.33 140.00) scale(0.01550 -0.01550)"/><path d="M184 0Q138 0 109.0 24.0Q80 48 80 100V710H164V107Q164 74 197 74H243V0Z" transform="translate(681.43 140.00) scale(0.01550 -0.01550)"/><path d="M80 0V530H164V0ZM78 613V711H166V613Z" transform="translate(685.57 140.00) scale(0.01550 -0.01550)"/><path d="M80 0V530H157L159 435Q180 490 223.5 516.0Q267 542 322 542Q383 542 422.5 515.0Q462 488 481.5 442.5Q501 397 501 341V0H417V317Q417 391 390.5 429.5Q364 468 304 468Q243 468 203.5 429.5Q164 391 164 317V0Z" transform="translate(689.35 140.00) scale(0.01550 -0.01550)"/><path d="M80 0V710H164V245L422 530H534L325 305L543 0H441L268 248L164 138V0Z" transform="translate(698.36 140.00) scale(0.01550 -0.01550)"/><path d="M273 -12Q164 -12 107.0 38.5Q50 89 44 167L132 173Q140 125 171.5 96.5Q203 68 273 68Q327 68 356.5 85.5Q386 103 386 142Q386 163 376.5 177.0Q367 191 339.0 201.5Q311 212 257 222Q183 236 141.0 257.0Q99 278 82.0 308.0Q65 338 65 380Q65 451 117.5 496.5Q170 542 266 542Q336 542 380.5 517.5Q425 493 448.0 454.0Q471 415 476 372L388 366Q384 404 356.5 433.0Q329 462 264 462Q207 462 180.0 440.0Q153 418 153 384Q153 345 178.0 326.5Q203 308 273 296Q351 283 395.0 263.0Q439 243 456.5 213.5Q474 184 474 142Q474 69 417.5 28.5Q361 -12 273 -12Z" transform="translate(707.50 140.00) scale(0.01550 -0.01550)"/><path d="M274 0Q202 0 167.5 33.0Q133 66 133 136V456H55V530H133V654H217V530H358V456H217V138Q217 102 233.0 88.0Q249 74 282 74H358V0Z" transform="translate(719.44 140.00) scale(0.01550 -0.01550)"/><path d="M287 -12Q214 -12 159.0 22.0Q104 56 74.0 118.5Q44 181 44 265Q44 350 74.0 412.0Q104 474 159.0 508.0Q214 542 287 542Q360 542 414.5 508.0Q469 474 499.0 412.0Q529 350 529 265Q529 181 499.0 118.5Q469 56 414.5 22.0Q360 -12 287 -12ZM287 68Q360 68 400.5 120.5Q441 173 441 265Q441 357 400.5 409.5Q360 462 287 462Q214 462 173.0 409.5Q132 357 132 265Q132 173 173.0 120.5Q214 68 287 68Z" transform="translate(725.51 140.00) scale(0.01550 -0.01550)"/><path d="M80 0V530H164V0ZM78 613V711H166V613Z" transform="translate(738.27 140.00) scale(0.01550 -0.01550)"/><path d="M274 0Q202 0 167.5 33.0Q133 66 133 136V456H55V530H133V654H217V530H358V456H217V138Q217 102 233.0 88.0Q249 74 282 74H358V0Z" transform="translate(742.05 140.00) scale(0.01550 -0.01550)"/><path d="M273 -12Q164 -12 107.0 38.5Q50 89 44 167L132 173Q140 125 171.5 96.5Q203 68 273 68Q327 68 356.5 85.5Q386 103 386 142Q386 163 376.5 177.0Q367 191 339.0 201.5Q311 212 257 222Q183 236 141.0 257.0Q99 278 82.0 308.0Q65 338 65 380Q65 451 117.5 496.5Q170 542 266 542Q336 542 380.5 517.5Q425 493 448.0 454.0Q471 415 476 372L388 366Q384 404 356.5 433.0Q329 462 264 462Q207 462 180.0 440.0Q153 418 153 384Q153 345 178.0 326.5Q203 308 273 296Q351 283 395.0 263.0Q439 243 456.5 213.5Q474 184 474 142Q474 69 417.5 28.5Q361 -12 273 -12Z" transform="translate(748.13 140.00) scale(0.01550 -0.01550)"/><path d="M80 0V530H154L157 432Q184 530 283 530H335V450H284Q164 450 164 320V0Z" transform="translate(760.06 140.00) scale(0.01550 -0.01550)"/><path d="M287 -12Q212 -12 157.5 22.0Q103 56 73.5 118.5Q44 181 44 265Q44 349 73.5 411.0Q103 473 156.5 507.5Q210 542 283 542Q352 542 405.0 509.5Q458 477 487.5 415.0Q517 353 517 264V239H132Q137 154 177.5 111.0Q218 68 287 68Q339 68 372.5 92.5Q406 117 419 157L509 150Q488 79 429.5 33.5Q371 -12 287 -12ZM132 313H425Q419 390 380.5 426.0Q342 462 283 462Q222 462 182.5 424.5Q143 387 132 313Z" transform="translate(765.94 140.00) scale(0.01550 -0.01550)"/><path d="M80 -150V530H158L159 449Q183 495 225.5 518.5Q268 542 322 542Q401 542 451.5 503.0Q502 464 526.5 401.0Q551 338 551 265Q551 192 526.5 129.0Q502 66 451.5 27.0Q401 -12 322 -12Q270 -12 227.5 10.0Q185 32 164 70V-150ZM314 68Q383 68 423.0 120.0Q463 172 463 265Q463 358 423.0 410.0Q383 462 314 462Q245 462 204.5 412.5Q164 363 164 265Q164 168 204.0 118.0Q244 68 314 68Z" transform="translate(774.63 140.00) scale(0.01550 -0.01550)"/><path d="M287 -12Q214 -12 159.0 22.0Q104 56 74.0 118.5Q44 181 44 265Q44 350 74.0 412.0Q104 474 159.0 508.0Q214 542 287 542Q360 542 414.5 508.0Q469 474 499.0 412.0Q529 350 529 265Q529 181 499.0 118.5Q469 56 414.5 22.0Q360 -12 287 -12ZM287 68Q360 68 400.5 120.5Q441 173 441 265Q441 357 400.5 409.5Q360 462 287 462Q214 462 173.0 409.5Q132 357 132 265Q132 173 173.0 120.5Q214 68 287 68Z" transform="translate(783.85 140.00) scale(0.01550 -0.01550)"/><path d="M273 -12Q164 -12 107.0 38.5Q50 89 44 167L132 173Q140 125 171.5 96.5Q203 68 273 68Q327 68 356.5 85.5Q386 103 386 142Q386 163 376.5 177.0Q367 191 339.0 201.5Q311 212 257 222Q183 236 141.0 257.0Q99 278 82.0 308.0Q65 338 65 380Q65 451 117.5 496.5Q170 542 266 542Q336 542 380.5 517.5Q425 493 448.0 454.0Q471 415 476 372L388 366Q384 404 356.5 433.0Q329 462 264 462Q207 462 180.0 440.0Q153 418 153 384Q153 345 178.0 326.5Q203 308 273 296Q351 283 395.0 263.0Q439 243 456.5 213.5Q474 184 474 142Q474 69 417.5 28.5Q361 -12 273 -12Z" transform="translate(792.73 140.00) scale(0.01550 -0.01550)"/><path d="M80 0V530H164V0ZM78 613V711H166V613Z" transform="translate(800.79 140.00) scale(0.01550 -0.01550)"/><path d="M274 0Q202 0 167.5 33.0Q133 66 133 136V456H55V530H133V654H217V530H358V456H217V138Q217 102 233.0 88.0Q249 74 282 74H358V0Z" transform="translate(804.58 140.00) scale(0.01550 -0.01550)"/><path d="M287 -12Q214 -12 159.0 22.0Q104 56 74.0 118.5Q44 181 44 265Q44 350 74.0 412.0Q104 474 159.0 508.0Q214 542 287 542Q360 542 414.5 508.0Q469 474 499.0 412.0Q529 350 529 265Q529 181 499.0 118.5Q469 56 414.5 22.0Q360 -12 287 -12ZM287 68Q360 68 400.5 120.5Q441 173 441 265Q441 357 400.5 409.5Q360 462 287 462Q214 462 173.0 409.5Q132 357 132 265Q132 173 173.0 120.5Q214 68 287 68Z" transform="translate(810.65 140.00) scale(0.01550 -0.01550)"/><path d="M80 0V530H154L157 432Q184 530 283 530H335V450H284Q164 450 164 320V0Z" transform="translate(819.53 140.00) scale(0.01550 -0.01550)"/><path d="M103 -150V-76H164Q192 -76 205.5 -67.5Q219 -59 226 -40L245 10H216L22 530H114L272 88L423 530H515L300 -67Q285 -110 255.0 -130.0Q225 -150 172 -150Z" transform="translate(825.41 140.00) scale(0.01550 -0.01550)"/><path d="M44 0V113H157V0Z" transform="translate(833.73 140.00) scale(0.01550 -0.01550)"/></g><g transform="translate(1076.00 54.00) scale(1.6667)" fill="none" stroke="#e8451c" stroke-width="1.7" stroke-linecap="round"><path d="M12 2.5 L12 21.5 M3.77 7.25 L20.23 16.75 M20.23 7.25 L3.77 16.75 M12 2.5 l-1.9 2 M12 2.5 l1.9 2 M12 21.5 l-1.9 -2 M12 21.5 l1.9 -2 M20.23 7.25 l-2.7 -0.3 M20.23 7.25 l-0.3 2.7 M3.77 16.75 l2.7 0.3 M3.77 16.75 l0.3 -2.7 M3.77 7.25 l2.7 -0.3 M3.77 7.25 l0.3 2.7 M20.23 16.75 l-2.7 0.3 M20.23 16.75 l-0.3 -2.7"/></g></svg>